G04 EAGLE Gerber RS-274X export*
G75*
%MOMM*%
%FSLAX34Y34*%
%LPD*%
%INSoldermask Bottom*%
%IPPOS*%
%AMOC8*
5,1,8,0,0,1.08239X$1,22.5*%
G01*
%ADD10C,2.006600*%
%ADD11C,0.762000*%
%ADD12C,0.225719*%
%ADD13C,0.225588*%
%ADD14C,3.429000*%
%ADD15C,1.127000*%
%ADD16C,1.270000*%
%ADD17C,1.627000*%


D10*
X165100Y12700D03*
D11*
X6350Y6350D03*
X247650Y120650D03*
D12*
X106507Y80407D02*
X102493Y80407D01*
X106507Y80407D02*
X106507Y76393D01*
X102493Y76393D01*
X102493Y80407D01*
X102493Y78537D02*
X106507Y78537D01*
X109993Y80407D02*
X114007Y80407D01*
X114007Y76393D01*
X109993Y76393D01*
X109993Y80407D01*
X109993Y78537D02*
X114007Y78537D01*
X117493Y80407D02*
X121507Y80407D01*
X121507Y76393D01*
X117493Y76393D01*
X117493Y80407D01*
X117493Y78537D02*
X121507Y78537D01*
X124993Y80407D02*
X129007Y80407D01*
X129007Y76393D01*
X124993Y76393D01*
X124993Y80407D01*
X124993Y78537D02*
X129007Y78537D01*
X132493Y80407D02*
X136507Y80407D01*
X136507Y76393D01*
X132493Y76393D01*
X132493Y80407D01*
X132493Y78537D02*
X136507Y78537D01*
X151493Y86893D02*
X155507Y86893D01*
X151493Y86893D02*
X151493Y90907D01*
X155507Y90907D01*
X155507Y86893D01*
X155507Y89037D02*
X151493Y89037D01*
X136507Y101407D02*
X132493Y101407D01*
X136507Y101407D02*
X136507Y97393D01*
X132493Y97393D01*
X132493Y101407D01*
X132493Y99537D02*
X136507Y99537D01*
X129007Y101407D02*
X124993Y101407D01*
X129007Y101407D02*
X129007Y97393D01*
X124993Y97393D01*
X124993Y101407D01*
X124993Y99537D02*
X129007Y99537D01*
X121507Y101407D02*
X117493Y101407D01*
X121507Y101407D02*
X121507Y97393D01*
X117493Y97393D01*
X117493Y101407D01*
X117493Y99537D02*
X121507Y99537D01*
X114007Y101407D02*
X109993Y101407D01*
X114007Y101407D02*
X114007Y97393D01*
X109993Y97393D01*
X109993Y101407D01*
X109993Y99537D02*
X114007Y99537D01*
X106507Y101407D02*
X102493Y101407D01*
X106507Y101407D02*
X106507Y97393D01*
X102493Y97393D01*
X102493Y101407D01*
X102493Y99537D02*
X106507Y99537D01*
X102507Y90907D02*
X98493Y90907D01*
X102507Y90907D02*
X102507Y86893D01*
X98493Y86893D01*
X98493Y90907D01*
X98493Y89037D02*
X102507Y89037D01*
X139993Y80407D02*
X144007Y80407D01*
X144007Y76393D01*
X139993Y76393D01*
X139993Y80407D01*
X139993Y78537D02*
X144007Y78537D01*
X147493Y80407D02*
X151507Y80407D01*
X151507Y76393D01*
X147493Y76393D01*
X147493Y80407D01*
X147493Y78537D02*
X151507Y78537D01*
X144007Y101407D02*
X139993Y101407D01*
X144007Y101407D02*
X144007Y97393D01*
X139993Y97393D01*
X139993Y101407D01*
X139993Y99537D02*
X144007Y99537D01*
X147493Y101407D02*
X151507Y101407D01*
X151507Y97393D01*
X147493Y97393D01*
X147493Y101407D01*
X147493Y99537D02*
X151507Y99537D01*
D13*
X145007Y94407D02*
X108993Y94407D01*
X145007Y94407D02*
X145007Y83393D01*
X108993Y83393D01*
X108993Y94407D01*
X108993Y85536D02*
X145007Y85536D01*
X145007Y87679D02*
X108993Y87679D01*
X108993Y89822D02*
X145007Y89822D01*
X145007Y91965D02*
X108993Y91965D01*
X108993Y94108D02*
X145007Y94108D01*
D10*
X190500Y12700D03*
D14*
X25400Y25400D03*
X228600Y25400D03*
D10*
X63500Y12700D03*
X88900Y12700D03*
X114300Y12700D03*
X139700Y12700D03*
X424180Y12700D03*
D11*
X265430Y6350D03*
X506730Y120650D03*
D12*
X365587Y80407D02*
X361573Y80407D01*
X365587Y80407D02*
X365587Y76393D01*
X361573Y76393D01*
X361573Y80407D01*
X361573Y78537D02*
X365587Y78537D01*
X369073Y80407D02*
X373087Y80407D01*
X373087Y76393D01*
X369073Y76393D01*
X369073Y80407D01*
X369073Y78537D02*
X373087Y78537D01*
X376573Y80407D02*
X380587Y80407D01*
X380587Y76393D01*
X376573Y76393D01*
X376573Y80407D01*
X376573Y78537D02*
X380587Y78537D01*
X384073Y80407D02*
X388087Y80407D01*
X388087Y76393D01*
X384073Y76393D01*
X384073Y80407D01*
X384073Y78537D02*
X388087Y78537D01*
X391573Y80407D02*
X395587Y80407D01*
X395587Y76393D01*
X391573Y76393D01*
X391573Y80407D01*
X391573Y78537D02*
X395587Y78537D01*
X410573Y86893D02*
X414587Y86893D01*
X410573Y86893D02*
X410573Y90907D01*
X414587Y90907D01*
X414587Y86893D01*
X414587Y89037D02*
X410573Y89037D01*
X395587Y101407D02*
X391573Y101407D01*
X395587Y101407D02*
X395587Y97393D01*
X391573Y97393D01*
X391573Y101407D01*
X391573Y99537D02*
X395587Y99537D01*
X388087Y101407D02*
X384073Y101407D01*
X388087Y101407D02*
X388087Y97393D01*
X384073Y97393D01*
X384073Y101407D01*
X384073Y99537D02*
X388087Y99537D01*
X380587Y101407D02*
X376573Y101407D01*
X380587Y101407D02*
X380587Y97393D01*
X376573Y97393D01*
X376573Y101407D01*
X376573Y99537D02*
X380587Y99537D01*
X373087Y101407D02*
X369073Y101407D01*
X373087Y101407D02*
X373087Y97393D01*
X369073Y97393D01*
X369073Y101407D01*
X369073Y99537D02*
X373087Y99537D01*
X365587Y101407D02*
X361573Y101407D01*
X365587Y101407D02*
X365587Y97393D01*
X361573Y97393D01*
X361573Y101407D01*
X361573Y99537D02*
X365587Y99537D01*
X361587Y90907D02*
X357573Y90907D01*
X361587Y90907D02*
X361587Y86893D01*
X357573Y86893D01*
X357573Y90907D01*
X357573Y89037D02*
X361587Y89037D01*
X399073Y80407D02*
X403087Y80407D01*
X403087Y76393D01*
X399073Y76393D01*
X399073Y80407D01*
X399073Y78537D02*
X403087Y78537D01*
X406573Y80407D02*
X410587Y80407D01*
X410587Y76393D01*
X406573Y76393D01*
X406573Y80407D01*
X406573Y78537D02*
X410587Y78537D01*
X403087Y101407D02*
X399073Y101407D01*
X403087Y101407D02*
X403087Y97393D01*
X399073Y97393D01*
X399073Y101407D01*
X399073Y99537D02*
X403087Y99537D01*
X406573Y101407D02*
X410587Y101407D01*
X410587Y97393D01*
X406573Y97393D01*
X406573Y101407D01*
X406573Y99537D02*
X410587Y99537D01*
D13*
X404087Y94407D02*
X368073Y94407D01*
X404087Y94407D02*
X404087Y83393D01*
X368073Y83393D01*
X368073Y94407D01*
X368073Y85536D02*
X404087Y85536D01*
X404087Y87679D02*
X368073Y87679D01*
X368073Y89822D02*
X404087Y89822D01*
X404087Y91965D02*
X368073Y91965D01*
X368073Y94108D02*
X404087Y94108D01*
D10*
X449580Y12700D03*
D14*
X284480Y25400D03*
X487680Y25400D03*
D10*
X322580Y12700D03*
X347980Y12700D03*
X373380Y12700D03*
X398780Y12700D03*
X683260Y12700D03*
D11*
X524510Y6350D03*
X765810Y120650D03*
D12*
X624667Y80407D02*
X620653Y80407D01*
X624667Y80407D02*
X624667Y76393D01*
X620653Y76393D01*
X620653Y80407D01*
X620653Y78537D02*
X624667Y78537D01*
X628153Y80407D02*
X632167Y80407D01*
X632167Y76393D01*
X628153Y76393D01*
X628153Y80407D01*
X628153Y78537D02*
X632167Y78537D01*
X635653Y80407D02*
X639667Y80407D01*
X639667Y76393D01*
X635653Y76393D01*
X635653Y80407D01*
X635653Y78537D02*
X639667Y78537D01*
X643153Y80407D02*
X647167Y80407D01*
X647167Y76393D01*
X643153Y76393D01*
X643153Y80407D01*
X643153Y78537D02*
X647167Y78537D01*
X650653Y80407D02*
X654667Y80407D01*
X654667Y76393D01*
X650653Y76393D01*
X650653Y80407D01*
X650653Y78537D02*
X654667Y78537D01*
X669653Y86893D02*
X673667Y86893D01*
X669653Y86893D02*
X669653Y90907D01*
X673667Y90907D01*
X673667Y86893D01*
X673667Y89037D02*
X669653Y89037D01*
X654667Y101407D02*
X650653Y101407D01*
X654667Y101407D02*
X654667Y97393D01*
X650653Y97393D01*
X650653Y101407D01*
X650653Y99537D02*
X654667Y99537D01*
X647167Y101407D02*
X643153Y101407D01*
X647167Y101407D02*
X647167Y97393D01*
X643153Y97393D01*
X643153Y101407D01*
X643153Y99537D02*
X647167Y99537D01*
X639667Y101407D02*
X635653Y101407D01*
X639667Y101407D02*
X639667Y97393D01*
X635653Y97393D01*
X635653Y101407D01*
X635653Y99537D02*
X639667Y99537D01*
X632167Y101407D02*
X628153Y101407D01*
X632167Y101407D02*
X632167Y97393D01*
X628153Y97393D01*
X628153Y101407D01*
X628153Y99537D02*
X632167Y99537D01*
X624667Y101407D02*
X620653Y101407D01*
X624667Y101407D02*
X624667Y97393D01*
X620653Y97393D01*
X620653Y101407D01*
X620653Y99537D02*
X624667Y99537D01*
X620667Y90907D02*
X616653Y90907D01*
X620667Y90907D02*
X620667Y86893D01*
X616653Y86893D01*
X616653Y90907D01*
X616653Y89037D02*
X620667Y89037D01*
X658153Y80407D02*
X662167Y80407D01*
X662167Y76393D01*
X658153Y76393D01*
X658153Y80407D01*
X658153Y78537D02*
X662167Y78537D01*
X665653Y80407D02*
X669667Y80407D01*
X669667Y76393D01*
X665653Y76393D01*
X665653Y80407D01*
X665653Y78537D02*
X669667Y78537D01*
X662167Y101407D02*
X658153Y101407D01*
X662167Y101407D02*
X662167Y97393D01*
X658153Y97393D01*
X658153Y101407D01*
X658153Y99537D02*
X662167Y99537D01*
X665653Y101407D02*
X669667Y101407D01*
X669667Y97393D01*
X665653Y97393D01*
X665653Y101407D01*
X665653Y99537D02*
X669667Y99537D01*
D13*
X663167Y94407D02*
X627153Y94407D01*
X663167Y94407D02*
X663167Y83393D01*
X627153Y83393D01*
X627153Y94407D01*
X627153Y85536D02*
X663167Y85536D01*
X663167Y87679D02*
X627153Y87679D01*
X627153Y89822D02*
X663167Y89822D01*
X663167Y91965D02*
X627153Y91965D01*
X627153Y94108D02*
X663167Y94108D01*
D10*
X708660Y12700D03*
D14*
X543560Y25400D03*
X746760Y25400D03*
D10*
X581660Y12700D03*
X607060Y12700D03*
X632460Y12700D03*
X657860Y12700D03*
X942340Y12700D03*
D11*
X783590Y6350D03*
X1024890Y120650D03*
D12*
X883747Y80407D02*
X879733Y80407D01*
X883747Y80407D02*
X883747Y76393D01*
X879733Y76393D01*
X879733Y80407D01*
X879733Y78537D02*
X883747Y78537D01*
X887233Y80407D02*
X891247Y80407D01*
X891247Y76393D01*
X887233Y76393D01*
X887233Y80407D01*
X887233Y78537D02*
X891247Y78537D01*
X894733Y80407D02*
X898747Y80407D01*
X898747Y76393D01*
X894733Y76393D01*
X894733Y80407D01*
X894733Y78537D02*
X898747Y78537D01*
X902233Y80407D02*
X906247Y80407D01*
X906247Y76393D01*
X902233Y76393D01*
X902233Y80407D01*
X902233Y78537D02*
X906247Y78537D01*
X909733Y80407D02*
X913747Y80407D01*
X913747Y76393D01*
X909733Y76393D01*
X909733Y80407D01*
X909733Y78537D02*
X913747Y78537D01*
X928733Y86893D02*
X932747Y86893D01*
X928733Y86893D02*
X928733Y90907D01*
X932747Y90907D01*
X932747Y86893D01*
X932747Y89037D02*
X928733Y89037D01*
X913747Y101407D02*
X909733Y101407D01*
X913747Y101407D02*
X913747Y97393D01*
X909733Y97393D01*
X909733Y101407D01*
X909733Y99537D02*
X913747Y99537D01*
X906247Y101407D02*
X902233Y101407D01*
X906247Y101407D02*
X906247Y97393D01*
X902233Y97393D01*
X902233Y101407D01*
X902233Y99537D02*
X906247Y99537D01*
X898747Y101407D02*
X894733Y101407D01*
X898747Y101407D02*
X898747Y97393D01*
X894733Y97393D01*
X894733Y101407D01*
X894733Y99537D02*
X898747Y99537D01*
X891247Y101407D02*
X887233Y101407D01*
X891247Y101407D02*
X891247Y97393D01*
X887233Y97393D01*
X887233Y101407D01*
X887233Y99537D02*
X891247Y99537D01*
X883747Y101407D02*
X879733Y101407D01*
X883747Y101407D02*
X883747Y97393D01*
X879733Y97393D01*
X879733Y101407D01*
X879733Y99537D02*
X883747Y99537D01*
X879747Y90907D02*
X875733Y90907D01*
X879747Y90907D02*
X879747Y86893D01*
X875733Y86893D01*
X875733Y90907D01*
X875733Y89037D02*
X879747Y89037D01*
X917233Y80407D02*
X921247Y80407D01*
X921247Y76393D01*
X917233Y76393D01*
X917233Y80407D01*
X917233Y78537D02*
X921247Y78537D01*
X924733Y80407D02*
X928747Y80407D01*
X928747Y76393D01*
X924733Y76393D01*
X924733Y80407D01*
X924733Y78537D02*
X928747Y78537D01*
X921247Y101407D02*
X917233Y101407D01*
X921247Y101407D02*
X921247Y97393D01*
X917233Y97393D01*
X917233Y101407D01*
X917233Y99537D02*
X921247Y99537D01*
X924733Y101407D02*
X928747Y101407D01*
X928747Y97393D01*
X924733Y97393D01*
X924733Y101407D01*
X924733Y99537D02*
X928747Y99537D01*
D13*
X922247Y94407D02*
X886233Y94407D01*
X922247Y94407D02*
X922247Y83393D01*
X886233Y83393D01*
X886233Y94407D01*
X886233Y85536D02*
X922247Y85536D01*
X922247Y87679D02*
X886233Y87679D01*
X886233Y89822D02*
X922247Y89822D01*
X922247Y91965D02*
X886233Y91965D01*
X886233Y94108D02*
X922247Y94108D01*
D10*
X967740Y12700D03*
D14*
X802640Y25400D03*
X1005840Y25400D03*
D10*
X840740Y12700D03*
X866140Y12700D03*
X891540Y12700D03*
X916940Y12700D03*
X1201420Y12700D03*
D11*
X1042670Y6350D03*
X1283970Y120650D03*
D12*
X1142827Y80407D02*
X1138813Y80407D01*
X1142827Y80407D02*
X1142827Y76393D01*
X1138813Y76393D01*
X1138813Y80407D01*
X1138813Y78537D02*
X1142827Y78537D01*
X1146313Y80407D02*
X1150327Y80407D01*
X1150327Y76393D01*
X1146313Y76393D01*
X1146313Y80407D01*
X1146313Y78537D02*
X1150327Y78537D01*
X1153813Y80407D02*
X1157827Y80407D01*
X1157827Y76393D01*
X1153813Y76393D01*
X1153813Y80407D01*
X1153813Y78537D02*
X1157827Y78537D01*
X1161313Y80407D02*
X1165327Y80407D01*
X1165327Y76393D01*
X1161313Y76393D01*
X1161313Y80407D01*
X1161313Y78537D02*
X1165327Y78537D01*
X1168813Y80407D02*
X1172827Y80407D01*
X1172827Y76393D01*
X1168813Y76393D01*
X1168813Y80407D01*
X1168813Y78537D02*
X1172827Y78537D01*
X1187813Y86893D02*
X1191827Y86893D01*
X1187813Y86893D02*
X1187813Y90907D01*
X1191827Y90907D01*
X1191827Y86893D01*
X1191827Y89037D02*
X1187813Y89037D01*
X1172827Y101407D02*
X1168813Y101407D01*
X1172827Y101407D02*
X1172827Y97393D01*
X1168813Y97393D01*
X1168813Y101407D01*
X1168813Y99537D02*
X1172827Y99537D01*
X1165327Y101407D02*
X1161313Y101407D01*
X1165327Y101407D02*
X1165327Y97393D01*
X1161313Y97393D01*
X1161313Y101407D01*
X1161313Y99537D02*
X1165327Y99537D01*
X1157827Y101407D02*
X1153813Y101407D01*
X1157827Y101407D02*
X1157827Y97393D01*
X1153813Y97393D01*
X1153813Y101407D01*
X1153813Y99537D02*
X1157827Y99537D01*
X1150327Y101407D02*
X1146313Y101407D01*
X1150327Y101407D02*
X1150327Y97393D01*
X1146313Y97393D01*
X1146313Y101407D01*
X1146313Y99537D02*
X1150327Y99537D01*
X1142827Y101407D02*
X1138813Y101407D01*
X1142827Y101407D02*
X1142827Y97393D01*
X1138813Y97393D01*
X1138813Y101407D01*
X1138813Y99537D02*
X1142827Y99537D01*
X1138827Y90907D02*
X1134813Y90907D01*
X1138827Y90907D02*
X1138827Y86893D01*
X1134813Y86893D01*
X1134813Y90907D01*
X1134813Y89037D02*
X1138827Y89037D01*
X1176313Y80407D02*
X1180327Y80407D01*
X1180327Y76393D01*
X1176313Y76393D01*
X1176313Y80407D01*
X1176313Y78537D02*
X1180327Y78537D01*
X1183813Y80407D02*
X1187827Y80407D01*
X1187827Y76393D01*
X1183813Y76393D01*
X1183813Y80407D01*
X1183813Y78537D02*
X1187827Y78537D01*
X1180327Y101407D02*
X1176313Y101407D01*
X1180327Y101407D02*
X1180327Y97393D01*
X1176313Y97393D01*
X1176313Y101407D01*
X1176313Y99537D02*
X1180327Y99537D01*
X1183813Y101407D02*
X1187827Y101407D01*
X1187827Y97393D01*
X1183813Y97393D01*
X1183813Y101407D01*
X1183813Y99537D02*
X1187827Y99537D01*
D13*
X1181327Y94407D02*
X1145313Y94407D01*
X1181327Y94407D02*
X1181327Y83393D01*
X1145313Y83393D01*
X1145313Y94407D01*
X1145313Y85536D02*
X1181327Y85536D01*
X1181327Y87679D02*
X1145313Y87679D01*
X1145313Y89822D02*
X1181327Y89822D01*
X1181327Y91965D02*
X1145313Y91965D01*
X1145313Y94108D02*
X1181327Y94108D01*
D10*
X1226820Y12700D03*
D14*
X1061720Y25400D03*
X1264920Y25400D03*
D10*
X1099820Y12700D03*
X1125220Y12700D03*
X1150620Y12700D03*
X1176020Y12700D03*
X1460500Y12700D03*
D11*
X1301750Y6350D03*
X1543050Y120650D03*
D12*
X1401907Y80407D02*
X1397893Y80407D01*
X1401907Y80407D02*
X1401907Y76393D01*
X1397893Y76393D01*
X1397893Y80407D01*
X1397893Y78537D02*
X1401907Y78537D01*
X1405393Y80407D02*
X1409407Y80407D01*
X1409407Y76393D01*
X1405393Y76393D01*
X1405393Y80407D01*
X1405393Y78537D02*
X1409407Y78537D01*
X1412893Y80407D02*
X1416907Y80407D01*
X1416907Y76393D01*
X1412893Y76393D01*
X1412893Y80407D01*
X1412893Y78537D02*
X1416907Y78537D01*
X1420393Y80407D02*
X1424407Y80407D01*
X1424407Y76393D01*
X1420393Y76393D01*
X1420393Y80407D01*
X1420393Y78537D02*
X1424407Y78537D01*
X1427893Y80407D02*
X1431907Y80407D01*
X1431907Y76393D01*
X1427893Y76393D01*
X1427893Y80407D01*
X1427893Y78537D02*
X1431907Y78537D01*
X1446893Y86893D02*
X1450907Y86893D01*
X1446893Y86893D02*
X1446893Y90907D01*
X1450907Y90907D01*
X1450907Y86893D01*
X1450907Y89037D02*
X1446893Y89037D01*
X1431907Y101407D02*
X1427893Y101407D01*
X1431907Y101407D02*
X1431907Y97393D01*
X1427893Y97393D01*
X1427893Y101407D01*
X1427893Y99537D02*
X1431907Y99537D01*
X1424407Y101407D02*
X1420393Y101407D01*
X1424407Y101407D02*
X1424407Y97393D01*
X1420393Y97393D01*
X1420393Y101407D01*
X1420393Y99537D02*
X1424407Y99537D01*
X1416907Y101407D02*
X1412893Y101407D01*
X1416907Y101407D02*
X1416907Y97393D01*
X1412893Y97393D01*
X1412893Y101407D01*
X1412893Y99537D02*
X1416907Y99537D01*
X1409407Y101407D02*
X1405393Y101407D01*
X1409407Y101407D02*
X1409407Y97393D01*
X1405393Y97393D01*
X1405393Y101407D01*
X1405393Y99537D02*
X1409407Y99537D01*
X1401907Y101407D02*
X1397893Y101407D01*
X1401907Y101407D02*
X1401907Y97393D01*
X1397893Y97393D01*
X1397893Y101407D01*
X1397893Y99537D02*
X1401907Y99537D01*
X1397907Y90907D02*
X1393893Y90907D01*
X1397907Y90907D02*
X1397907Y86893D01*
X1393893Y86893D01*
X1393893Y90907D01*
X1393893Y89037D02*
X1397907Y89037D01*
X1435393Y80407D02*
X1439407Y80407D01*
X1439407Y76393D01*
X1435393Y76393D01*
X1435393Y80407D01*
X1435393Y78537D02*
X1439407Y78537D01*
X1442893Y80407D02*
X1446907Y80407D01*
X1446907Y76393D01*
X1442893Y76393D01*
X1442893Y80407D01*
X1442893Y78537D02*
X1446907Y78537D01*
X1439407Y101407D02*
X1435393Y101407D01*
X1439407Y101407D02*
X1439407Y97393D01*
X1435393Y97393D01*
X1435393Y101407D01*
X1435393Y99537D02*
X1439407Y99537D01*
X1442893Y101407D02*
X1446907Y101407D01*
X1446907Y97393D01*
X1442893Y97393D01*
X1442893Y101407D01*
X1442893Y99537D02*
X1446907Y99537D01*
D13*
X1440407Y94407D02*
X1404393Y94407D01*
X1440407Y94407D02*
X1440407Y83393D01*
X1404393Y83393D01*
X1404393Y94407D01*
X1404393Y85536D02*
X1440407Y85536D01*
X1440407Y87679D02*
X1404393Y87679D01*
X1404393Y89822D02*
X1440407Y89822D01*
X1440407Y91965D02*
X1404393Y91965D01*
X1404393Y94108D02*
X1440407Y94108D01*
D10*
X1485900Y12700D03*
D14*
X1320800Y25400D03*
X1524000Y25400D03*
D10*
X1358900Y12700D03*
X1384300Y12700D03*
X1409700Y12700D03*
X1435100Y12700D03*
X165100Y144780D03*
D11*
X6350Y138430D03*
X247650Y252730D03*
D12*
X106507Y212487D02*
X102493Y212487D01*
X106507Y212487D02*
X106507Y208473D01*
X102493Y208473D01*
X102493Y212487D01*
X102493Y210617D02*
X106507Y210617D01*
X109993Y212487D02*
X114007Y212487D01*
X114007Y208473D01*
X109993Y208473D01*
X109993Y212487D01*
X109993Y210617D02*
X114007Y210617D01*
X117493Y212487D02*
X121507Y212487D01*
X121507Y208473D01*
X117493Y208473D01*
X117493Y212487D01*
X117493Y210617D02*
X121507Y210617D01*
X124993Y212487D02*
X129007Y212487D01*
X129007Y208473D01*
X124993Y208473D01*
X124993Y212487D01*
X124993Y210617D02*
X129007Y210617D01*
X132493Y212487D02*
X136507Y212487D01*
X136507Y208473D01*
X132493Y208473D01*
X132493Y212487D01*
X132493Y210617D02*
X136507Y210617D01*
X151493Y218973D02*
X155507Y218973D01*
X151493Y218973D02*
X151493Y222987D01*
X155507Y222987D01*
X155507Y218973D01*
X155507Y221117D02*
X151493Y221117D01*
X136507Y233487D02*
X132493Y233487D01*
X136507Y233487D02*
X136507Y229473D01*
X132493Y229473D01*
X132493Y233487D01*
X132493Y231617D02*
X136507Y231617D01*
X129007Y233487D02*
X124993Y233487D01*
X129007Y233487D02*
X129007Y229473D01*
X124993Y229473D01*
X124993Y233487D01*
X124993Y231617D02*
X129007Y231617D01*
X121507Y233487D02*
X117493Y233487D01*
X121507Y233487D02*
X121507Y229473D01*
X117493Y229473D01*
X117493Y233487D01*
X117493Y231617D02*
X121507Y231617D01*
X114007Y233487D02*
X109993Y233487D01*
X114007Y233487D02*
X114007Y229473D01*
X109993Y229473D01*
X109993Y233487D01*
X109993Y231617D02*
X114007Y231617D01*
X106507Y233487D02*
X102493Y233487D01*
X106507Y233487D02*
X106507Y229473D01*
X102493Y229473D01*
X102493Y233487D01*
X102493Y231617D02*
X106507Y231617D01*
X102507Y222987D02*
X98493Y222987D01*
X102507Y222987D02*
X102507Y218973D01*
X98493Y218973D01*
X98493Y222987D01*
X98493Y221117D02*
X102507Y221117D01*
X139993Y212487D02*
X144007Y212487D01*
X144007Y208473D01*
X139993Y208473D01*
X139993Y212487D01*
X139993Y210617D02*
X144007Y210617D01*
X147493Y212487D02*
X151507Y212487D01*
X151507Y208473D01*
X147493Y208473D01*
X147493Y212487D01*
X147493Y210617D02*
X151507Y210617D01*
X144007Y233487D02*
X139993Y233487D01*
X144007Y233487D02*
X144007Y229473D01*
X139993Y229473D01*
X139993Y233487D01*
X139993Y231617D02*
X144007Y231617D01*
X147493Y233487D02*
X151507Y233487D01*
X151507Y229473D01*
X147493Y229473D01*
X147493Y233487D01*
X147493Y231617D02*
X151507Y231617D01*
D13*
X145007Y226487D02*
X108993Y226487D01*
X145007Y226487D02*
X145007Y215473D01*
X108993Y215473D01*
X108993Y226487D01*
X108993Y217616D02*
X145007Y217616D01*
X145007Y219759D02*
X108993Y219759D01*
X108993Y221902D02*
X145007Y221902D01*
X145007Y224045D02*
X108993Y224045D01*
X108993Y226188D02*
X145007Y226188D01*
D10*
X190500Y144780D03*
D14*
X25400Y157480D03*
X228600Y157480D03*
D10*
X63500Y144780D03*
X88900Y144780D03*
X114300Y144780D03*
X139700Y144780D03*
X424180Y144780D03*
D11*
X265430Y138430D03*
X506730Y252730D03*
D12*
X365587Y212487D02*
X361573Y212487D01*
X365587Y212487D02*
X365587Y208473D01*
X361573Y208473D01*
X361573Y212487D01*
X361573Y210617D02*
X365587Y210617D01*
X369073Y212487D02*
X373087Y212487D01*
X373087Y208473D01*
X369073Y208473D01*
X369073Y212487D01*
X369073Y210617D02*
X373087Y210617D01*
X376573Y212487D02*
X380587Y212487D01*
X380587Y208473D01*
X376573Y208473D01*
X376573Y212487D01*
X376573Y210617D02*
X380587Y210617D01*
X384073Y212487D02*
X388087Y212487D01*
X388087Y208473D01*
X384073Y208473D01*
X384073Y212487D01*
X384073Y210617D02*
X388087Y210617D01*
X391573Y212487D02*
X395587Y212487D01*
X395587Y208473D01*
X391573Y208473D01*
X391573Y212487D01*
X391573Y210617D02*
X395587Y210617D01*
X410573Y218973D02*
X414587Y218973D01*
X410573Y218973D02*
X410573Y222987D01*
X414587Y222987D01*
X414587Y218973D01*
X414587Y221117D02*
X410573Y221117D01*
X395587Y233487D02*
X391573Y233487D01*
X395587Y233487D02*
X395587Y229473D01*
X391573Y229473D01*
X391573Y233487D01*
X391573Y231617D02*
X395587Y231617D01*
X388087Y233487D02*
X384073Y233487D01*
X388087Y233487D02*
X388087Y229473D01*
X384073Y229473D01*
X384073Y233487D01*
X384073Y231617D02*
X388087Y231617D01*
X380587Y233487D02*
X376573Y233487D01*
X380587Y233487D02*
X380587Y229473D01*
X376573Y229473D01*
X376573Y233487D01*
X376573Y231617D02*
X380587Y231617D01*
X373087Y233487D02*
X369073Y233487D01*
X373087Y233487D02*
X373087Y229473D01*
X369073Y229473D01*
X369073Y233487D01*
X369073Y231617D02*
X373087Y231617D01*
X365587Y233487D02*
X361573Y233487D01*
X365587Y233487D02*
X365587Y229473D01*
X361573Y229473D01*
X361573Y233487D01*
X361573Y231617D02*
X365587Y231617D01*
X361587Y222987D02*
X357573Y222987D01*
X361587Y222987D02*
X361587Y218973D01*
X357573Y218973D01*
X357573Y222987D01*
X357573Y221117D02*
X361587Y221117D01*
X399073Y212487D02*
X403087Y212487D01*
X403087Y208473D01*
X399073Y208473D01*
X399073Y212487D01*
X399073Y210617D02*
X403087Y210617D01*
X406573Y212487D02*
X410587Y212487D01*
X410587Y208473D01*
X406573Y208473D01*
X406573Y212487D01*
X406573Y210617D02*
X410587Y210617D01*
X403087Y233487D02*
X399073Y233487D01*
X403087Y233487D02*
X403087Y229473D01*
X399073Y229473D01*
X399073Y233487D01*
X399073Y231617D02*
X403087Y231617D01*
X406573Y233487D02*
X410587Y233487D01*
X410587Y229473D01*
X406573Y229473D01*
X406573Y233487D01*
X406573Y231617D02*
X410587Y231617D01*
D13*
X404087Y226487D02*
X368073Y226487D01*
X404087Y226487D02*
X404087Y215473D01*
X368073Y215473D01*
X368073Y226487D01*
X368073Y217616D02*
X404087Y217616D01*
X404087Y219759D02*
X368073Y219759D01*
X368073Y221902D02*
X404087Y221902D01*
X404087Y224045D02*
X368073Y224045D01*
X368073Y226188D02*
X404087Y226188D01*
D10*
X449580Y144780D03*
D14*
X284480Y157480D03*
X487680Y157480D03*
D10*
X322580Y144780D03*
X347980Y144780D03*
X373380Y144780D03*
X398780Y144780D03*
X683260Y144780D03*
D11*
X524510Y138430D03*
X765810Y252730D03*
D12*
X624667Y212487D02*
X620653Y212487D01*
X624667Y212487D02*
X624667Y208473D01*
X620653Y208473D01*
X620653Y212487D01*
X620653Y210617D02*
X624667Y210617D01*
X628153Y212487D02*
X632167Y212487D01*
X632167Y208473D01*
X628153Y208473D01*
X628153Y212487D01*
X628153Y210617D02*
X632167Y210617D01*
X635653Y212487D02*
X639667Y212487D01*
X639667Y208473D01*
X635653Y208473D01*
X635653Y212487D01*
X635653Y210617D02*
X639667Y210617D01*
X643153Y212487D02*
X647167Y212487D01*
X647167Y208473D01*
X643153Y208473D01*
X643153Y212487D01*
X643153Y210617D02*
X647167Y210617D01*
X650653Y212487D02*
X654667Y212487D01*
X654667Y208473D01*
X650653Y208473D01*
X650653Y212487D01*
X650653Y210617D02*
X654667Y210617D01*
X669653Y218973D02*
X673667Y218973D01*
X669653Y218973D02*
X669653Y222987D01*
X673667Y222987D01*
X673667Y218973D01*
X673667Y221117D02*
X669653Y221117D01*
X654667Y233487D02*
X650653Y233487D01*
X654667Y233487D02*
X654667Y229473D01*
X650653Y229473D01*
X650653Y233487D01*
X650653Y231617D02*
X654667Y231617D01*
X647167Y233487D02*
X643153Y233487D01*
X647167Y233487D02*
X647167Y229473D01*
X643153Y229473D01*
X643153Y233487D01*
X643153Y231617D02*
X647167Y231617D01*
X639667Y233487D02*
X635653Y233487D01*
X639667Y233487D02*
X639667Y229473D01*
X635653Y229473D01*
X635653Y233487D01*
X635653Y231617D02*
X639667Y231617D01*
X632167Y233487D02*
X628153Y233487D01*
X632167Y233487D02*
X632167Y229473D01*
X628153Y229473D01*
X628153Y233487D01*
X628153Y231617D02*
X632167Y231617D01*
X624667Y233487D02*
X620653Y233487D01*
X624667Y233487D02*
X624667Y229473D01*
X620653Y229473D01*
X620653Y233487D01*
X620653Y231617D02*
X624667Y231617D01*
X620667Y222987D02*
X616653Y222987D01*
X620667Y222987D02*
X620667Y218973D01*
X616653Y218973D01*
X616653Y222987D01*
X616653Y221117D02*
X620667Y221117D01*
X658153Y212487D02*
X662167Y212487D01*
X662167Y208473D01*
X658153Y208473D01*
X658153Y212487D01*
X658153Y210617D02*
X662167Y210617D01*
X665653Y212487D02*
X669667Y212487D01*
X669667Y208473D01*
X665653Y208473D01*
X665653Y212487D01*
X665653Y210617D02*
X669667Y210617D01*
X662167Y233487D02*
X658153Y233487D01*
X662167Y233487D02*
X662167Y229473D01*
X658153Y229473D01*
X658153Y233487D01*
X658153Y231617D02*
X662167Y231617D01*
X665653Y233487D02*
X669667Y233487D01*
X669667Y229473D01*
X665653Y229473D01*
X665653Y233487D01*
X665653Y231617D02*
X669667Y231617D01*
D13*
X663167Y226487D02*
X627153Y226487D01*
X663167Y226487D02*
X663167Y215473D01*
X627153Y215473D01*
X627153Y226487D01*
X627153Y217616D02*
X663167Y217616D01*
X663167Y219759D02*
X627153Y219759D01*
X627153Y221902D02*
X663167Y221902D01*
X663167Y224045D02*
X627153Y224045D01*
X627153Y226188D02*
X663167Y226188D01*
D10*
X708660Y144780D03*
D14*
X543560Y157480D03*
X746760Y157480D03*
D10*
X581660Y144780D03*
X607060Y144780D03*
X632460Y144780D03*
X657860Y144780D03*
X942340Y144780D03*
D11*
X783590Y138430D03*
X1024890Y252730D03*
D12*
X883747Y212487D02*
X879733Y212487D01*
X883747Y212487D02*
X883747Y208473D01*
X879733Y208473D01*
X879733Y212487D01*
X879733Y210617D02*
X883747Y210617D01*
X887233Y212487D02*
X891247Y212487D01*
X891247Y208473D01*
X887233Y208473D01*
X887233Y212487D01*
X887233Y210617D02*
X891247Y210617D01*
X894733Y212487D02*
X898747Y212487D01*
X898747Y208473D01*
X894733Y208473D01*
X894733Y212487D01*
X894733Y210617D02*
X898747Y210617D01*
X902233Y212487D02*
X906247Y212487D01*
X906247Y208473D01*
X902233Y208473D01*
X902233Y212487D01*
X902233Y210617D02*
X906247Y210617D01*
X909733Y212487D02*
X913747Y212487D01*
X913747Y208473D01*
X909733Y208473D01*
X909733Y212487D01*
X909733Y210617D02*
X913747Y210617D01*
X928733Y218973D02*
X932747Y218973D01*
X928733Y218973D02*
X928733Y222987D01*
X932747Y222987D01*
X932747Y218973D01*
X932747Y221117D02*
X928733Y221117D01*
X913747Y233487D02*
X909733Y233487D01*
X913747Y233487D02*
X913747Y229473D01*
X909733Y229473D01*
X909733Y233487D01*
X909733Y231617D02*
X913747Y231617D01*
X906247Y233487D02*
X902233Y233487D01*
X906247Y233487D02*
X906247Y229473D01*
X902233Y229473D01*
X902233Y233487D01*
X902233Y231617D02*
X906247Y231617D01*
X898747Y233487D02*
X894733Y233487D01*
X898747Y233487D02*
X898747Y229473D01*
X894733Y229473D01*
X894733Y233487D01*
X894733Y231617D02*
X898747Y231617D01*
X891247Y233487D02*
X887233Y233487D01*
X891247Y233487D02*
X891247Y229473D01*
X887233Y229473D01*
X887233Y233487D01*
X887233Y231617D02*
X891247Y231617D01*
X883747Y233487D02*
X879733Y233487D01*
X883747Y233487D02*
X883747Y229473D01*
X879733Y229473D01*
X879733Y233487D01*
X879733Y231617D02*
X883747Y231617D01*
X879747Y222987D02*
X875733Y222987D01*
X879747Y222987D02*
X879747Y218973D01*
X875733Y218973D01*
X875733Y222987D01*
X875733Y221117D02*
X879747Y221117D01*
X917233Y212487D02*
X921247Y212487D01*
X921247Y208473D01*
X917233Y208473D01*
X917233Y212487D01*
X917233Y210617D02*
X921247Y210617D01*
X924733Y212487D02*
X928747Y212487D01*
X928747Y208473D01*
X924733Y208473D01*
X924733Y212487D01*
X924733Y210617D02*
X928747Y210617D01*
X921247Y233487D02*
X917233Y233487D01*
X921247Y233487D02*
X921247Y229473D01*
X917233Y229473D01*
X917233Y233487D01*
X917233Y231617D02*
X921247Y231617D01*
X924733Y233487D02*
X928747Y233487D01*
X928747Y229473D01*
X924733Y229473D01*
X924733Y233487D01*
X924733Y231617D02*
X928747Y231617D01*
D13*
X922247Y226487D02*
X886233Y226487D01*
X922247Y226487D02*
X922247Y215473D01*
X886233Y215473D01*
X886233Y226487D01*
X886233Y217616D02*
X922247Y217616D01*
X922247Y219759D02*
X886233Y219759D01*
X886233Y221902D02*
X922247Y221902D01*
X922247Y224045D02*
X886233Y224045D01*
X886233Y226188D02*
X922247Y226188D01*
D10*
X967740Y144780D03*
D14*
X802640Y157480D03*
X1005840Y157480D03*
D10*
X840740Y144780D03*
X866140Y144780D03*
X891540Y144780D03*
X916940Y144780D03*
X1201420Y144780D03*
D11*
X1042670Y138430D03*
X1283970Y252730D03*
D12*
X1142827Y212487D02*
X1138813Y212487D01*
X1142827Y212487D02*
X1142827Y208473D01*
X1138813Y208473D01*
X1138813Y212487D01*
X1138813Y210617D02*
X1142827Y210617D01*
X1146313Y212487D02*
X1150327Y212487D01*
X1150327Y208473D01*
X1146313Y208473D01*
X1146313Y212487D01*
X1146313Y210617D02*
X1150327Y210617D01*
X1153813Y212487D02*
X1157827Y212487D01*
X1157827Y208473D01*
X1153813Y208473D01*
X1153813Y212487D01*
X1153813Y210617D02*
X1157827Y210617D01*
X1161313Y212487D02*
X1165327Y212487D01*
X1165327Y208473D01*
X1161313Y208473D01*
X1161313Y212487D01*
X1161313Y210617D02*
X1165327Y210617D01*
X1168813Y212487D02*
X1172827Y212487D01*
X1172827Y208473D01*
X1168813Y208473D01*
X1168813Y212487D01*
X1168813Y210617D02*
X1172827Y210617D01*
X1187813Y218973D02*
X1191827Y218973D01*
X1187813Y218973D02*
X1187813Y222987D01*
X1191827Y222987D01*
X1191827Y218973D01*
X1191827Y221117D02*
X1187813Y221117D01*
X1172827Y233487D02*
X1168813Y233487D01*
X1172827Y233487D02*
X1172827Y229473D01*
X1168813Y229473D01*
X1168813Y233487D01*
X1168813Y231617D02*
X1172827Y231617D01*
X1165327Y233487D02*
X1161313Y233487D01*
X1165327Y233487D02*
X1165327Y229473D01*
X1161313Y229473D01*
X1161313Y233487D01*
X1161313Y231617D02*
X1165327Y231617D01*
X1157827Y233487D02*
X1153813Y233487D01*
X1157827Y233487D02*
X1157827Y229473D01*
X1153813Y229473D01*
X1153813Y233487D01*
X1153813Y231617D02*
X1157827Y231617D01*
X1150327Y233487D02*
X1146313Y233487D01*
X1150327Y233487D02*
X1150327Y229473D01*
X1146313Y229473D01*
X1146313Y233487D01*
X1146313Y231617D02*
X1150327Y231617D01*
X1142827Y233487D02*
X1138813Y233487D01*
X1142827Y233487D02*
X1142827Y229473D01*
X1138813Y229473D01*
X1138813Y233487D01*
X1138813Y231617D02*
X1142827Y231617D01*
X1138827Y222987D02*
X1134813Y222987D01*
X1138827Y222987D02*
X1138827Y218973D01*
X1134813Y218973D01*
X1134813Y222987D01*
X1134813Y221117D02*
X1138827Y221117D01*
X1176313Y212487D02*
X1180327Y212487D01*
X1180327Y208473D01*
X1176313Y208473D01*
X1176313Y212487D01*
X1176313Y210617D02*
X1180327Y210617D01*
X1183813Y212487D02*
X1187827Y212487D01*
X1187827Y208473D01*
X1183813Y208473D01*
X1183813Y212487D01*
X1183813Y210617D02*
X1187827Y210617D01*
X1180327Y233487D02*
X1176313Y233487D01*
X1180327Y233487D02*
X1180327Y229473D01*
X1176313Y229473D01*
X1176313Y233487D01*
X1176313Y231617D02*
X1180327Y231617D01*
X1183813Y233487D02*
X1187827Y233487D01*
X1187827Y229473D01*
X1183813Y229473D01*
X1183813Y233487D01*
X1183813Y231617D02*
X1187827Y231617D01*
D13*
X1181327Y226487D02*
X1145313Y226487D01*
X1181327Y226487D02*
X1181327Y215473D01*
X1145313Y215473D01*
X1145313Y226487D01*
X1145313Y217616D02*
X1181327Y217616D01*
X1181327Y219759D02*
X1145313Y219759D01*
X1145313Y221902D02*
X1181327Y221902D01*
X1181327Y224045D02*
X1145313Y224045D01*
X1145313Y226188D02*
X1181327Y226188D01*
D10*
X1226820Y144780D03*
D14*
X1061720Y157480D03*
X1264920Y157480D03*
D10*
X1099820Y144780D03*
X1125220Y144780D03*
X1150620Y144780D03*
X1176020Y144780D03*
X1460500Y144780D03*
D11*
X1301750Y138430D03*
X1543050Y252730D03*
D12*
X1401907Y212487D02*
X1397893Y212487D01*
X1401907Y212487D02*
X1401907Y208473D01*
X1397893Y208473D01*
X1397893Y212487D01*
X1397893Y210617D02*
X1401907Y210617D01*
X1405393Y212487D02*
X1409407Y212487D01*
X1409407Y208473D01*
X1405393Y208473D01*
X1405393Y212487D01*
X1405393Y210617D02*
X1409407Y210617D01*
X1412893Y212487D02*
X1416907Y212487D01*
X1416907Y208473D01*
X1412893Y208473D01*
X1412893Y212487D01*
X1412893Y210617D02*
X1416907Y210617D01*
X1420393Y212487D02*
X1424407Y212487D01*
X1424407Y208473D01*
X1420393Y208473D01*
X1420393Y212487D01*
X1420393Y210617D02*
X1424407Y210617D01*
X1427893Y212487D02*
X1431907Y212487D01*
X1431907Y208473D01*
X1427893Y208473D01*
X1427893Y212487D01*
X1427893Y210617D02*
X1431907Y210617D01*
X1446893Y218973D02*
X1450907Y218973D01*
X1446893Y218973D02*
X1446893Y222987D01*
X1450907Y222987D01*
X1450907Y218973D01*
X1450907Y221117D02*
X1446893Y221117D01*
X1431907Y233487D02*
X1427893Y233487D01*
X1431907Y233487D02*
X1431907Y229473D01*
X1427893Y229473D01*
X1427893Y233487D01*
X1427893Y231617D02*
X1431907Y231617D01*
X1424407Y233487D02*
X1420393Y233487D01*
X1424407Y233487D02*
X1424407Y229473D01*
X1420393Y229473D01*
X1420393Y233487D01*
X1420393Y231617D02*
X1424407Y231617D01*
X1416907Y233487D02*
X1412893Y233487D01*
X1416907Y233487D02*
X1416907Y229473D01*
X1412893Y229473D01*
X1412893Y233487D01*
X1412893Y231617D02*
X1416907Y231617D01*
X1409407Y233487D02*
X1405393Y233487D01*
X1409407Y233487D02*
X1409407Y229473D01*
X1405393Y229473D01*
X1405393Y233487D01*
X1405393Y231617D02*
X1409407Y231617D01*
X1401907Y233487D02*
X1397893Y233487D01*
X1401907Y233487D02*
X1401907Y229473D01*
X1397893Y229473D01*
X1397893Y233487D01*
X1397893Y231617D02*
X1401907Y231617D01*
X1397907Y222987D02*
X1393893Y222987D01*
X1397907Y222987D02*
X1397907Y218973D01*
X1393893Y218973D01*
X1393893Y222987D01*
X1393893Y221117D02*
X1397907Y221117D01*
X1435393Y212487D02*
X1439407Y212487D01*
X1439407Y208473D01*
X1435393Y208473D01*
X1435393Y212487D01*
X1435393Y210617D02*
X1439407Y210617D01*
X1442893Y212487D02*
X1446907Y212487D01*
X1446907Y208473D01*
X1442893Y208473D01*
X1442893Y212487D01*
X1442893Y210617D02*
X1446907Y210617D01*
X1439407Y233487D02*
X1435393Y233487D01*
X1439407Y233487D02*
X1439407Y229473D01*
X1435393Y229473D01*
X1435393Y233487D01*
X1435393Y231617D02*
X1439407Y231617D01*
X1442893Y233487D02*
X1446907Y233487D01*
X1446907Y229473D01*
X1442893Y229473D01*
X1442893Y233487D01*
X1442893Y231617D02*
X1446907Y231617D01*
D13*
X1440407Y226487D02*
X1404393Y226487D01*
X1440407Y226487D02*
X1440407Y215473D01*
X1404393Y215473D01*
X1404393Y226487D01*
X1404393Y217616D02*
X1440407Y217616D01*
X1440407Y219759D02*
X1404393Y219759D01*
X1404393Y221902D02*
X1440407Y221902D01*
X1440407Y224045D02*
X1404393Y224045D01*
X1404393Y226188D02*
X1440407Y226188D01*
D10*
X1485900Y144780D03*
D14*
X1320800Y157480D03*
X1524000Y157480D03*
D10*
X1358900Y144780D03*
X1384300Y144780D03*
X1409700Y144780D03*
X1435100Y144780D03*
X165100Y276860D03*
D11*
X6350Y270510D03*
X247650Y384810D03*
D12*
X106507Y344567D02*
X102493Y344567D01*
X106507Y344567D02*
X106507Y340553D01*
X102493Y340553D01*
X102493Y344567D01*
X102493Y342697D02*
X106507Y342697D01*
X109993Y344567D02*
X114007Y344567D01*
X114007Y340553D01*
X109993Y340553D01*
X109993Y344567D01*
X109993Y342697D02*
X114007Y342697D01*
X117493Y344567D02*
X121507Y344567D01*
X121507Y340553D01*
X117493Y340553D01*
X117493Y344567D01*
X117493Y342697D02*
X121507Y342697D01*
X124993Y344567D02*
X129007Y344567D01*
X129007Y340553D01*
X124993Y340553D01*
X124993Y344567D01*
X124993Y342697D02*
X129007Y342697D01*
X132493Y344567D02*
X136507Y344567D01*
X136507Y340553D01*
X132493Y340553D01*
X132493Y344567D01*
X132493Y342697D02*
X136507Y342697D01*
X151493Y351053D02*
X155507Y351053D01*
X151493Y351053D02*
X151493Y355067D01*
X155507Y355067D01*
X155507Y351053D01*
X155507Y353197D02*
X151493Y353197D01*
X136507Y365567D02*
X132493Y365567D01*
X136507Y365567D02*
X136507Y361553D01*
X132493Y361553D01*
X132493Y365567D01*
X132493Y363697D02*
X136507Y363697D01*
X129007Y365567D02*
X124993Y365567D01*
X129007Y365567D02*
X129007Y361553D01*
X124993Y361553D01*
X124993Y365567D01*
X124993Y363697D02*
X129007Y363697D01*
X121507Y365567D02*
X117493Y365567D01*
X121507Y365567D02*
X121507Y361553D01*
X117493Y361553D01*
X117493Y365567D01*
X117493Y363697D02*
X121507Y363697D01*
X114007Y365567D02*
X109993Y365567D01*
X114007Y365567D02*
X114007Y361553D01*
X109993Y361553D01*
X109993Y365567D01*
X109993Y363697D02*
X114007Y363697D01*
X106507Y365567D02*
X102493Y365567D01*
X106507Y365567D02*
X106507Y361553D01*
X102493Y361553D01*
X102493Y365567D01*
X102493Y363697D02*
X106507Y363697D01*
X102507Y355067D02*
X98493Y355067D01*
X102507Y355067D02*
X102507Y351053D01*
X98493Y351053D01*
X98493Y355067D01*
X98493Y353197D02*
X102507Y353197D01*
X139993Y344567D02*
X144007Y344567D01*
X144007Y340553D01*
X139993Y340553D01*
X139993Y344567D01*
X139993Y342697D02*
X144007Y342697D01*
X147493Y344567D02*
X151507Y344567D01*
X151507Y340553D01*
X147493Y340553D01*
X147493Y344567D01*
X147493Y342697D02*
X151507Y342697D01*
X144007Y365567D02*
X139993Y365567D01*
X144007Y365567D02*
X144007Y361553D01*
X139993Y361553D01*
X139993Y365567D01*
X139993Y363697D02*
X144007Y363697D01*
X147493Y365567D02*
X151507Y365567D01*
X151507Y361553D01*
X147493Y361553D01*
X147493Y365567D01*
X147493Y363697D02*
X151507Y363697D01*
D13*
X145007Y358567D02*
X108993Y358567D01*
X145007Y358567D02*
X145007Y347553D01*
X108993Y347553D01*
X108993Y358567D01*
X108993Y349696D02*
X145007Y349696D01*
X145007Y351839D02*
X108993Y351839D01*
X108993Y353982D02*
X145007Y353982D01*
X145007Y356125D02*
X108993Y356125D01*
X108993Y358268D02*
X145007Y358268D01*
D10*
X190500Y276860D03*
D14*
X25400Y289560D03*
X228600Y289560D03*
D10*
X63500Y276860D03*
X88900Y276860D03*
X114300Y276860D03*
X139700Y276860D03*
X424180Y276860D03*
D11*
X265430Y270510D03*
X506730Y384810D03*
D12*
X365587Y344567D02*
X361573Y344567D01*
X365587Y344567D02*
X365587Y340553D01*
X361573Y340553D01*
X361573Y344567D01*
X361573Y342697D02*
X365587Y342697D01*
X369073Y344567D02*
X373087Y344567D01*
X373087Y340553D01*
X369073Y340553D01*
X369073Y344567D01*
X369073Y342697D02*
X373087Y342697D01*
X376573Y344567D02*
X380587Y344567D01*
X380587Y340553D01*
X376573Y340553D01*
X376573Y344567D01*
X376573Y342697D02*
X380587Y342697D01*
X384073Y344567D02*
X388087Y344567D01*
X388087Y340553D01*
X384073Y340553D01*
X384073Y344567D01*
X384073Y342697D02*
X388087Y342697D01*
X391573Y344567D02*
X395587Y344567D01*
X395587Y340553D01*
X391573Y340553D01*
X391573Y344567D01*
X391573Y342697D02*
X395587Y342697D01*
X410573Y351053D02*
X414587Y351053D01*
X410573Y351053D02*
X410573Y355067D01*
X414587Y355067D01*
X414587Y351053D01*
X414587Y353197D02*
X410573Y353197D01*
X395587Y365567D02*
X391573Y365567D01*
X395587Y365567D02*
X395587Y361553D01*
X391573Y361553D01*
X391573Y365567D01*
X391573Y363697D02*
X395587Y363697D01*
X388087Y365567D02*
X384073Y365567D01*
X388087Y365567D02*
X388087Y361553D01*
X384073Y361553D01*
X384073Y365567D01*
X384073Y363697D02*
X388087Y363697D01*
X380587Y365567D02*
X376573Y365567D01*
X380587Y365567D02*
X380587Y361553D01*
X376573Y361553D01*
X376573Y365567D01*
X376573Y363697D02*
X380587Y363697D01*
X373087Y365567D02*
X369073Y365567D01*
X373087Y365567D02*
X373087Y361553D01*
X369073Y361553D01*
X369073Y365567D01*
X369073Y363697D02*
X373087Y363697D01*
X365587Y365567D02*
X361573Y365567D01*
X365587Y365567D02*
X365587Y361553D01*
X361573Y361553D01*
X361573Y365567D01*
X361573Y363697D02*
X365587Y363697D01*
X361587Y355067D02*
X357573Y355067D01*
X361587Y355067D02*
X361587Y351053D01*
X357573Y351053D01*
X357573Y355067D01*
X357573Y353197D02*
X361587Y353197D01*
X399073Y344567D02*
X403087Y344567D01*
X403087Y340553D01*
X399073Y340553D01*
X399073Y344567D01*
X399073Y342697D02*
X403087Y342697D01*
X406573Y344567D02*
X410587Y344567D01*
X410587Y340553D01*
X406573Y340553D01*
X406573Y344567D01*
X406573Y342697D02*
X410587Y342697D01*
X403087Y365567D02*
X399073Y365567D01*
X403087Y365567D02*
X403087Y361553D01*
X399073Y361553D01*
X399073Y365567D01*
X399073Y363697D02*
X403087Y363697D01*
X406573Y365567D02*
X410587Y365567D01*
X410587Y361553D01*
X406573Y361553D01*
X406573Y365567D01*
X406573Y363697D02*
X410587Y363697D01*
D13*
X404087Y358567D02*
X368073Y358567D01*
X404087Y358567D02*
X404087Y347553D01*
X368073Y347553D01*
X368073Y358567D01*
X368073Y349696D02*
X404087Y349696D01*
X404087Y351839D02*
X368073Y351839D01*
X368073Y353982D02*
X404087Y353982D01*
X404087Y356125D02*
X368073Y356125D01*
X368073Y358268D02*
X404087Y358268D01*
D10*
X449580Y276860D03*
D14*
X284480Y289560D03*
X487680Y289560D03*
D10*
X322580Y276860D03*
X347980Y276860D03*
X373380Y276860D03*
X398780Y276860D03*
X683260Y276860D03*
D11*
X524510Y270510D03*
X765810Y384810D03*
D12*
X624667Y344567D02*
X620653Y344567D01*
X624667Y344567D02*
X624667Y340553D01*
X620653Y340553D01*
X620653Y344567D01*
X620653Y342697D02*
X624667Y342697D01*
X628153Y344567D02*
X632167Y344567D01*
X632167Y340553D01*
X628153Y340553D01*
X628153Y344567D01*
X628153Y342697D02*
X632167Y342697D01*
X635653Y344567D02*
X639667Y344567D01*
X639667Y340553D01*
X635653Y340553D01*
X635653Y344567D01*
X635653Y342697D02*
X639667Y342697D01*
X643153Y344567D02*
X647167Y344567D01*
X647167Y340553D01*
X643153Y340553D01*
X643153Y344567D01*
X643153Y342697D02*
X647167Y342697D01*
X650653Y344567D02*
X654667Y344567D01*
X654667Y340553D01*
X650653Y340553D01*
X650653Y344567D01*
X650653Y342697D02*
X654667Y342697D01*
X669653Y351053D02*
X673667Y351053D01*
X669653Y351053D02*
X669653Y355067D01*
X673667Y355067D01*
X673667Y351053D01*
X673667Y353197D02*
X669653Y353197D01*
X654667Y365567D02*
X650653Y365567D01*
X654667Y365567D02*
X654667Y361553D01*
X650653Y361553D01*
X650653Y365567D01*
X650653Y363697D02*
X654667Y363697D01*
X647167Y365567D02*
X643153Y365567D01*
X647167Y365567D02*
X647167Y361553D01*
X643153Y361553D01*
X643153Y365567D01*
X643153Y363697D02*
X647167Y363697D01*
X639667Y365567D02*
X635653Y365567D01*
X639667Y365567D02*
X639667Y361553D01*
X635653Y361553D01*
X635653Y365567D01*
X635653Y363697D02*
X639667Y363697D01*
X632167Y365567D02*
X628153Y365567D01*
X632167Y365567D02*
X632167Y361553D01*
X628153Y361553D01*
X628153Y365567D01*
X628153Y363697D02*
X632167Y363697D01*
X624667Y365567D02*
X620653Y365567D01*
X624667Y365567D02*
X624667Y361553D01*
X620653Y361553D01*
X620653Y365567D01*
X620653Y363697D02*
X624667Y363697D01*
X620667Y355067D02*
X616653Y355067D01*
X620667Y355067D02*
X620667Y351053D01*
X616653Y351053D01*
X616653Y355067D01*
X616653Y353197D02*
X620667Y353197D01*
X658153Y344567D02*
X662167Y344567D01*
X662167Y340553D01*
X658153Y340553D01*
X658153Y344567D01*
X658153Y342697D02*
X662167Y342697D01*
X665653Y344567D02*
X669667Y344567D01*
X669667Y340553D01*
X665653Y340553D01*
X665653Y344567D01*
X665653Y342697D02*
X669667Y342697D01*
X662167Y365567D02*
X658153Y365567D01*
X662167Y365567D02*
X662167Y361553D01*
X658153Y361553D01*
X658153Y365567D01*
X658153Y363697D02*
X662167Y363697D01*
X665653Y365567D02*
X669667Y365567D01*
X669667Y361553D01*
X665653Y361553D01*
X665653Y365567D01*
X665653Y363697D02*
X669667Y363697D01*
D13*
X663167Y358567D02*
X627153Y358567D01*
X663167Y358567D02*
X663167Y347553D01*
X627153Y347553D01*
X627153Y358567D01*
X627153Y349696D02*
X663167Y349696D01*
X663167Y351839D02*
X627153Y351839D01*
X627153Y353982D02*
X663167Y353982D01*
X663167Y356125D02*
X627153Y356125D01*
X627153Y358268D02*
X663167Y358268D01*
D10*
X708660Y276860D03*
D14*
X543560Y289560D03*
X746760Y289560D03*
D10*
X581660Y276860D03*
X607060Y276860D03*
X632460Y276860D03*
X657860Y276860D03*
X942340Y276860D03*
D11*
X783590Y270510D03*
X1024890Y384810D03*
D12*
X883747Y344567D02*
X879733Y344567D01*
X883747Y344567D02*
X883747Y340553D01*
X879733Y340553D01*
X879733Y344567D01*
X879733Y342697D02*
X883747Y342697D01*
X887233Y344567D02*
X891247Y344567D01*
X891247Y340553D01*
X887233Y340553D01*
X887233Y344567D01*
X887233Y342697D02*
X891247Y342697D01*
X894733Y344567D02*
X898747Y344567D01*
X898747Y340553D01*
X894733Y340553D01*
X894733Y344567D01*
X894733Y342697D02*
X898747Y342697D01*
X902233Y344567D02*
X906247Y344567D01*
X906247Y340553D01*
X902233Y340553D01*
X902233Y344567D01*
X902233Y342697D02*
X906247Y342697D01*
X909733Y344567D02*
X913747Y344567D01*
X913747Y340553D01*
X909733Y340553D01*
X909733Y344567D01*
X909733Y342697D02*
X913747Y342697D01*
X928733Y351053D02*
X932747Y351053D01*
X928733Y351053D02*
X928733Y355067D01*
X932747Y355067D01*
X932747Y351053D01*
X932747Y353197D02*
X928733Y353197D01*
X913747Y365567D02*
X909733Y365567D01*
X913747Y365567D02*
X913747Y361553D01*
X909733Y361553D01*
X909733Y365567D01*
X909733Y363697D02*
X913747Y363697D01*
X906247Y365567D02*
X902233Y365567D01*
X906247Y365567D02*
X906247Y361553D01*
X902233Y361553D01*
X902233Y365567D01*
X902233Y363697D02*
X906247Y363697D01*
X898747Y365567D02*
X894733Y365567D01*
X898747Y365567D02*
X898747Y361553D01*
X894733Y361553D01*
X894733Y365567D01*
X894733Y363697D02*
X898747Y363697D01*
X891247Y365567D02*
X887233Y365567D01*
X891247Y365567D02*
X891247Y361553D01*
X887233Y361553D01*
X887233Y365567D01*
X887233Y363697D02*
X891247Y363697D01*
X883747Y365567D02*
X879733Y365567D01*
X883747Y365567D02*
X883747Y361553D01*
X879733Y361553D01*
X879733Y365567D01*
X879733Y363697D02*
X883747Y363697D01*
X879747Y355067D02*
X875733Y355067D01*
X879747Y355067D02*
X879747Y351053D01*
X875733Y351053D01*
X875733Y355067D01*
X875733Y353197D02*
X879747Y353197D01*
X917233Y344567D02*
X921247Y344567D01*
X921247Y340553D01*
X917233Y340553D01*
X917233Y344567D01*
X917233Y342697D02*
X921247Y342697D01*
X924733Y344567D02*
X928747Y344567D01*
X928747Y340553D01*
X924733Y340553D01*
X924733Y344567D01*
X924733Y342697D02*
X928747Y342697D01*
X921247Y365567D02*
X917233Y365567D01*
X921247Y365567D02*
X921247Y361553D01*
X917233Y361553D01*
X917233Y365567D01*
X917233Y363697D02*
X921247Y363697D01*
X924733Y365567D02*
X928747Y365567D01*
X928747Y361553D01*
X924733Y361553D01*
X924733Y365567D01*
X924733Y363697D02*
X928747Y363697D01*
D13*
X922247Y358567D02*
X886233Y358567D01*
X922247Y358567D02*
X922247Y347553D01*
X886233Y347553D01*
X886233Y358567D01*
X886233Y349696D02*
X922247Y349696D01*
X922247Y351839D02*
X886233Y351839D01*
X886233Y353982D02*
X922247Y353982D01*
X922247Y356125D02*
X886233Y356125D01*
X886233Y358268D02*
X922247Y358268D01*
D10*
X967740Y276860D03*
D14*
X802640Y289560D03*
X1005840Y289560D03*
D10*
X840740Y276860D03*
X866140Y276860D03*
X891540Y276860D03*
X916940Y276860D03*
X1201420Y276860D03*
D11*
X1042670Y270510D03*
X1283970Y384810D03*
D12*
X1142827Y344567D02*
X1138813Y344567D01*
X1142827Y344567D02*
X1142827Y340553D01*
X1138813Y340553D01*
X1138813Y344567D01*
X1138813Y342697D02*
X1142827Y342697D01*
X1146313Y344567D02*
X1150327Y344567D01*
X1150327Y340553D01*
X1146313Y340553D01*
X1146313Y344567D01*
X1146313Y342697D02*
X1150327Y342697D01*
X1153813Y344567D02*
X1157827Y344567D01*
X1157827Y340553D01*
X1153813Y340553D01*
X1153813Y344567D01*
X1153813Y342697D02*
X1157827Y342697D01*
X1161313Y344567D02*
X1165327Y344567D01*
X1165327Y340553D01*
X1161313Y340553D01*
X1161313Y344567D01*
X1161313Y342697D02*
X1165327Y342697D01*
X1168813Y344567D02*
X1172827Y344567D01*
X1172827Y340553D01*
X1168813Y340553D01*
X1168813Y344567D01*
X1168813Y342697D02*
X1172827Y342697D01*
X1187813Y351053D02*
X1191827Y351053D01*
X1187813Y351053D02*
X1187813Y355067D01*
X1191827Y355067D01*
X1191827Y351053D01*
X1191827Y353197D02*
X1187813Y353197D01*
X1172827Y365567D02*
X1168813Y365567D01*
X1172827Y365567D02*
X1172827Y361553D01*
X1168813Y361553D01*
X1168813Y365567D01*
X1168813Y363697D02*
X1172827Y363697D01*
X1165327Y365567D02*
X1161313Y365567D01*
X1165327Y365567D02*
X1165327Y361553D01*
X1161313Y361553D01*
X1161313Y365567D01*
X1161313Y363697D02*
X1165327Y363697D01*
X1157827Y365567D02*
X1153813Y365567D01*
X1157827Y365567D02*
X1157827Y361553D01*
X1153813Y361553D01*
X1153813Y365567D01*
X1153813Y363697D02*
X1157827Y363697D01*
X1150327Y365567D02*
X1146313Y365567D01*
X1150327Y365567D02*
X1150327Y361553D01*
X1146313Y361553D01*
X1146313Y365567D01*
X1146313Y363697D02*
X1150327Y363697D01*
X1142827Y365567D02*
X1138813Y365567D01*
X1142827Y365567D02*
X1142827Y361553D01*
X1138813Y361553D01*
X1138813Y365567D01*
X1138813Y363697D02*
X1142827Y363697D01*
X1138827Y355067D02*
X1134813Y355067D01*
X1138827Y355067D02*
X1138827Y351053D01*
X1134813Y351053D01*
X1134813Y355067D01*
X1134813Y353197D02*
X1138827Y353197D01*
X1176313Y344567D02*
X1180327Y344567D01*
X1180327Y340553D01*
X1176313Y340553D01*
X1176313Y344567D01*
X1176313Y342697D02*
X1180327Y342697D01*
X1183813Y344567D02*
X1187827Y344567D01*
X1187827Y340553D01*
X1183813Y340553D01*
X1183813Y344567D01*
X1183813Y342697D02*
X1187827Y342697D01*
X1180327Y365567D02*
X1176313Y365567D01*
X1180327Y365567D02*
X1180327Y361553D01*
X1176313Y361553D01*
X1176313Y365567D01*
X1176313Y363697D02*
X1180327Y363697D01*
X1183813Y365567D02*
X1187827Y365567D01*
X1187827Y361553D01*
X1183813Y361553D01*
X1183813Y365567D01*
X1183813Y363697D02*
X1187827Y363697D01*
D13*
X1181327Y358567D02*
X1145313Y358567D01*
X1181327Y358567D02*
X1181327Y347553D01*
X1145313Y347553D01*
X1145313Y358567D01*
X1145313Y349696D02*
X1181327Y349696D01*
X1181327Y351839D02*
X1145313Y351839D01*
X1145313Y353982D02*
X1181327Y353982D01*
X1181327Y356125D02*
X1145313Y356125D01*
X1145313Y358268D02*
X1181327Y358268D01*
D10*
X1226820Y276860D03*
D14*
X1061720Y289560D03*
X1264920Y289560D03*
D10*
X1099820Y276860D03*
X1125220Y276860D03*
X1150620Y276860D03*
X1176020Y276860D03*
X1460500Y276860D03*
D11*
X1301750Y270510D03*
X1543050Y384810D03*
D12*
X1401907Y344567D02*
X1397893Y344567D01*
X1401907Y344567D02*
X1401907Y340553D01*
X1397893Y340553D01*
X1397893Y344567D01*
X1397893Y342697D02*
X1401907Y342697D01*
X1405393Y344567D02*
X1409407Y344567D01*
X1409407Y340553D01*
X1405393Y340553D01*
X1405393Y344567D01*
X1405393Y342697D02*
X1409407Y342697D01*
X1412893Y344567D02*
X1416907Y344567D01*
X1416907Y340553D01*
X1412893Y340553D01*
X1412893Y344567D01*
X1412893Y342697D02*
X1416907Y342697D01*
X1420393Y344567D02*
X1424407Y344567D01*
X1424407Y340553D01*
X1420393Y340553D01*
X1420393Y344567D01*
X1420393Y342697D02*
X1424407Y342697D01*
X1427893Y344567D02*
X1431907Y344567D01*
X1431907Y340553D01*
X1427893Y340553D01*
X1427893Y344567D01*
X1427893Y342697D02*
X1431907Y342697D01*
X1446893Y351053D02*
X1450907Y351053D01*
X1446893Y351053D02*
X1446893Y355067D01*
X1450907Y355067D01*
X1450907Y351053D01*
X1450907Y353197D02*
X1446893Y353197D01*
X1431907Y365567D02*
X1427893Y365567D01*
X1431907Y365567D02*
X1431907Y361553D01*
X1427893Y361553D01*
X1427893Y365567D01*
X1427893Y363697D02*
X1431907Y363697D01*
X1424407Y365567D02*
X1420393Y365567D01*
X1424407Y365567D02*
X1424407Y361553D01*
X1420393Y361553D01*
X1420393Y365567D01*
X1420393Y363697D02*
X1424407Y363697D01*
X1416907Y365567D02*
X1412893Y365567D01*
X1416907Y365567D02*
X1416907Y361553D01*
X1412893Y361553D01*
X1412893Y365567D01*
X1412893Y363697D02*
X1416907Y363697D01*
X1409407Y365567D02*
X1405393Y365567D01*
X1409407Y365567D02*
X1409407Y361553D01*
X1405393Y361553D01*
X1405393Y365567D01*
X1405393Y363697D02*
X1409407Y363697D01*
X1401907Y365567D02*
X1397893Y365567D01*
X1401907Y365567D02*
X1401907Y361553D01*
X1397893Y361553D01*
X1397893Y365567D01*
X1397893Y363697D02*
X1401907Y363697D01*
X1397907Y355067D02*
X1393893Y355067D01*
X1397907Y355067D02*
X1397907Y351053D01*
X1393893Y351053D01*
X1393893Y355067D01*
X1393893Y353197D02*
X1397907Y353197D01*
X1435393Y344567D02*
X1439407Y344567D01*
X1439407Y340553D01*
X1435393Y340553D01*
X1435393Y344567D01*
X1435393Y342697D02*
X1439407Y342697D01*
X1442893Y344567D02*
X1446907Y344567D01*
X1446907Y340553D01*
X1442893Y340553D01*
X1442893Y344567D01*
X1442893Y342697D02*
X1446907Y342697D01*
X1439407Y365567D02*
X1435393Y365567D01*
X1439407Y365567D02*
X1439407Y361553D01*
X1435393Y361553D01*
X1435393Y365567D01*
X1435393Y363697D02*
X1439407Y363697D01*
X1442893Y365567D02*
X1446907Y365567D01*
X1446907Y361553D01*
X1442893Y361553D01*
X1442893Y365567D01*
X1442893Y363697D02*
X1446907Y363697D01*
D13*
X1440407Y358567D02*
X1404393Y358567D01*
X1440407Y358567D02*
X1440407Y347553D01*
X1404393Y347553D01*
X1404393Y358567D01*
X1404393Y349696D02*
X1440407Y349696D01*
X1440407Y351839D02*
X1404393Y351839D01*
X1404393Y353982D02*
X1440407Y353982D01*
X1440407Y356125D02*
X1404393Y356125D01*
X1404393Y358268D02*
X1440407Y358268D01*
D10*
X1485900Y276860D03*
D14*
X1320800Y289560D03*
X1524000Y289560D03*
D10*
X1358900Y276860D03*
X1384300Y276860D03*
X1409700Y276860D03*
X1435100Y276860D03*
X165100Y408940D03*
D11*
X6350Y402590D03*
X247650Y516890D03*
D12*
X106507Y476647D02*
X102493Y476647D01*
X106507Y476647D02*
X106507Y472633D01*
X102493Y472633D01*
X102493Y476647D01*
X102493Y474777D02*
X106507Y474777D01*
X109993Y476647D02*
X114007Y476647D01*
X114007Y472633D01*
X109993Y472633D01*
X109993Y476647D01*
X109993Y474777D02*
X114007Y474777D01*
X117493Y476647D02*
X121507Y476647D01*
X121507Y472633D01*
X117493Y472633D01*
X117493Y476647D01*
X117493Y474777D02*
X121507Y474777D01*
X124993Y476647D02*
X129007Y476647D01*
X129007Y472633D01*
X124993Y472633D01*
X124993Y476647D01*
X124993Y474777D02*
X129007Y474777D01*
X132493Y476647D02*
X136507Y476647D01*
X136507Y472633D01*
X132493Y472633D01*
X132493Y476647D01*
X132493Y474777D02*
X136507Y474777D01*
X151493Y483133D02*
X155507Y483133D01*
X151493Y483133D02*
X151493Y487147D01*
X155507Y487147D01*
X155507Y483133D01*
X155507Y485277D02*
X151493Y485277D01*
X136507Y497647D02*
X132493Y497647D01*
X136507Y497647D02*
X136507Y493633D01*
X132493Y493633D01*
X132493Y497647D01*
X132493Y495777D02*
X136507Y495777D01*
X129007Y497647D02*
X124993Y497647D01*
X129007Y497647D02*
X129007Y493633D01*
X124993Y493633D01*
X124993Y497647D01*
X124993Y495777D02*
X129007Y495777D01*
X121507Y497647D02*
X117493Y497647D01*
X121507Y497647D02*
X121507Y493633D01*
X117493Y493633D01*
X117493Y497647D01*
X117493Y495777D02*
X121507Y495777D01*
X114007Y497647D02*
X109993Y497647D01*
X114007Y497647D02*
X114007Y493633D01*
X109993Y493633D01*
X109993Y497647D01*
X109993Y495777D02*
X114007Y495777D01*
X106507Y497647D02*
X102493Y497647D01*
X106507Y497647D02*
X106507Y493633D01*
X102493Y493633D01*
X102493Y497647D01*
X102493Y495777D02*
X106507Y495777D01*
X102507Y487147D02*
X98493Y487147D01*
X102507Y487147D02*
X102507Y483133D01*
X98493Y483133D01*
X98493Y487147D01*
X98493Y485277D02*
X102507Y485277D01*
X139993Y476647D02*
X144007Y476647D01*
X144007Y472633D01*
X139993Y472633D01*
X139993Y476647D01*
X139993Y474777D02*
X144007Y474777D01*
X147493Y476647D02*
X151507Y476647D01*
X151507Y472633D01*
X147493Y472633D01*
X147493Y476647D01*
X147493Y474777D02*
X151507Y474777D01*
X144007Y497647D02*
X139993Y497647D01*
X144007Y497647D02*
X144007Y493633D01*
X139993Y493633D01*
X139993Y497647D01*
X139993Y495777D02*
X144007Y495777D01*
X147493Y497647D02*
X151507Y497647D01*
X151507Y493633D01*
X147493Y493633D01*
X147493Y497647D01*
X147493Y495777D02*
X151507Y495777D01*
D13*
X145007Y490647D02*
X108993Y490647D01*
X145007Y490647D02*
X145007Y479633D01*
X108993Y479633D01*
X108993Y490647D01*
X108993Y481776D02*
X145007Y481776D01*
X145007Y483919D02*
X108993Y483919D01*
X108993Y486062D02*
X145007Y486062D01*
X145007Y488205D02*
X108993Y488205D01*
X108993Y490348D02*
X145007Y490348D01*
D10*
X190500Y408940D03*
D14*
X25400Y421640D03*
X228600Y421640D03*
D10*
X63500Y408940D03*
X88900Y408940D03*
X114300Y408940D03*
X139700Y408940D03*
X424180Y408940D03*
D11*
X265430Y402590D03*
X506730Y516890D03*
D12*
X365587Y476647D02*
X361573Y476647D01*
X365587Y476647D02*
X365587Y472633D01*
X361573Y472633D01*
X361573Y476647D01*
X361573Y474777D02*
X365587Y474777D01*
X369073Y476647D02*
X373087Y476647D01*
X373087Y472633D01*
X369073Y472633D01*
X369073Y476647D01*
X369073Y474777D02*
X373087Y474777D01*
X376573Y476647D02*
X380587Y476647D01*
X380587Y472633D01*
X376573Y472633D01*
X376573Y476647D01*
X376573Y474777D02*
X380587Y474777D01*
X384073Y476647D02*
X388087Y476647D01*
X388087Y472633D01*
X384073Y472633D01*
X384073Y476647D01*
X384073Y474777D02*
X388087Y474777D01*
X391573Y476647D02*
X395587Y476647D01*
X395587Y472633D01*
X391573Y472633D01*
X391573Y476647D01*
X391573Y474777D02*
X395587Y474777D01*
X410573Y483133D02*
X414587Y483133D01*
X410573Y483133D02*
X410573Y487147D01*
X414587Y487147D01*
X414587Y483133D01*
X414587Y485277D02*
X410573Y485277D01*
X395587Y497647D02*
X391573Y497647D01*
X395587Y497647D02*
X395587Y493633D01*
X391573Y493633D01*
X391573Y497647D01*
X391573Y495777D02*
X395587Y495777D01*
X388087Y497647D02*
X384073Y497647D01*
X388087Y497647D02*
X388087Y493633D01*
X384073Y493633D01*
X384073Y497647D01*
X384073Y495777D02*
X388087Y495777D01*
X380587Y497647D02*
X376573Y497647D01*
X380587Y497647D02*
X380587Y493633D01*
X376573Y493633D01*
X376573Y497647D01*
X376573Y495777D02*
X380587Y495777D01*
X373087Y497647D02*
X369073Y497647D01*
X373087Y497647D02*
X373087Y493633D01*
X369073Y493633D01*
X369073Y497647D01*
X369073Y495777D02*
X373087Y495777D01*
X365587Y497647D02*
X361573Y497647D01*
X365587Y497647D02*
X365587Y493633D01*
X361573Y493633D01*
X361573Y497647D01*
X361573Y495777D02*
X365587Y495777D01*
X361587Y487147D02*
X357573Y487147D01*
X361587Y487147D02*
X361587Y483133D01*
X357573Y483133D01*
X357573Y487147D01*
X357573Y485277D02*
X361587Y485277D01*
X399073Y476647D02*
X403087Y476647D01*
X403087Y472633D01*
X399073Y472633D01*
X399073Y476647D01*
X399073Y474777D02*
X403087Y474777D01*
X406573Y476647D02*
X410587Y476647D01*
X410587Y472633D01*
X406573Y472633D01*
X406573Y476647D01*
X406573Y474777D02*
X410587Y474777D01*
X403087Y497647D02*
X399073Y497647D01*
X403087Y497647D02*
X403087Y493633D01*
X399073Y493633D01*
X399073Y497647D01*
X399073Y495777D02*
X403087Y495777D01*
X406573Y497647D02*
X410587Y497647D01*
X410587Y493633D01*
X406573Y493633D01*
X406573Y497647D01*
X406573Y495777D02*
X410587Y495777D01*
D13*
X404087Y490647D02*
X368073Y490647D01*
X404087Y490647D02*
X404087Y479633D01*
X368073Y479633D01*
X368073Y490647D01*
X368073Y481776D02*
X404087Y481776D01*
X404087Y483919D02*
X368073Y483919D01*
X368073Y486062D02*
X404087Y486062D01*
X404087Y488205D02*
X368073Y488205D01*
X368073Y490348D02*
X404087Y490348D01*
D10*
X449580Y408940D03*
D14*
X284480Y421640D03*
X487680Y421640D03*
D10*
X322580Y408940D03*
X347980Y408940D03*
X373380Y408940D03*
X398780Y408940D03*
X683260Y408940D03*
D11*
X524510Y402590D03*
X765810Y516890D03*
D12*
X624667Y476647D02*
X620653Y476647D01*
X624667Y476647D02*
X624667Y472633D01*
X620653Y472633D01*
X620653Y476647D01*
X620653Y474777D02*
X624667Y474777D01*
X628153Y476647D02*
X632167Y476647D01*
X632167Y472633D01*
X628153Y472633D01*
X628153Y476647D01*
X628153Y474777D02*
X632167Y474777D01*
X635653Y476647D02*
X639667Y476647D01*
X639667Y472633D01*
X635653Y472633D01*
X635653Y476647D01*
X635653Y474777D02*
X639667Y474777D01*
X643153Y476647D02*
X647167Y476647D01*
X647167Y472633D01*
X643153Y472633D01*
X643153Y476647D01*
X643153Y474777D02*
X647167Y474777D01*
X650653Y476647D02*
X654667Y476647D01*
X654667Y472633D01*
X650653Y472633D01*
X650653Y476647D01*
X650653Y474777D02*
X654667Y474777D01*
X669653Y483133D02*
X673667Y483133D01*
X669653Y483133D02*
X669653Y487147D01*
X673667Y487147D01*
X673667Y483133D01*
X673667Y485277D02*
X669653Y485277D01*
X654667Y497647D02*
X650653Y497647D01*
X654667Y497647D02*
X654667Y493633D01*
X650653Y493633D01*
X650653Y497647D01*
X650653Y495777D02*
X654667Y495777D01*
X647167Y497647D02*
X643153Y497647D01*
X647167Y497647D02*
X647167Y493633D01*
X643153Y493633D01*
X643153Y497647D01*
X643153Y495777D02*
X647167Y495777D01*
X639667Y497647D02*
X635653Y497647D01*
X639667Y497647D02*
X639667Y493633D01*
X635653Y493633D01*
X635653Y497647D01*
X635653Y495777D02*
X639667Y495777D01*
X632167Y497647D02*
X628153Y497647D01*
X632167Y497647D02*
X632167Y493633D01*
X628153Y493633D01*
X628153Y497647D01*
X628153Y495777D02*
X632167Y495777D01*
X624667Y497647D02*
X620653Y497647D01*
X624667Y497647D02*
X624667Y493633D01*
X620653Y493633D01*
X620653Y497647D01*
X620653Y495777D02*
X624667Y495777D01*
X620667Y487147D02*
X616653Y487147D01*
X620667Y487147D02*
X620667Y483133D01*
X616653Y483133D01*
X616653Y487147D01*
X616653Y485277D02*
X620667Y485277D01*
X658153Y476647D02*
X662167Y476647D01*
X662167Y472633D01*
X658153Y472633D01*
X658153Y476647D01*
X658153Y474777D02*
X662167Y474777D01*
X665653Y476647D02*
X669667Y476647D01*
X669667Y472633D01*
X665653Y472633D01*
X665653Y476647D01*
X665653Y474777D02*
X669667Y474777D01*
X662167Y497647D02*
X658153Y497647D01*
X662167Y497647D02*
X662167Y493633D01*
X658153Y493633D01*
X658153Y497647D01*
X658153Y495777D02*
X662167Y495777D01*
X665653Y497647D02*
X669667Y497647D01*
X669667Y493633D01*
X665653Y493633D01*
X665653Y497647D01*
X665653Y495777D02*
X669667Y495777D01*
D13*
X663167Y490647D02*
X627153Y490647D01*
X663167Y490647D02*
X663167Y479633D01*
X627153Y479633D01*
X627153Y490647D01*
X627153Y481776D02*
X663167Y481776D01*
X663167Y483919D02*
X627153Y483919D01*
X627153Y486062D02*
X663167Y486062D01*
X663167Y488205D02*
X627153Y488205D01*
X627153Y490348D02*
X663167Y490348D01*
D10*
X708660Y408940D03*
D14*
X543560Y421640D03*
X746760Y421640D03*
D10*
X581660Y408940D03*
X607060Y408940D03*
X632460Y408940D03*
X657860Y408940D03*
X942340Y408940D03*
D11*
X783590Y402590D03*
X1024890Y516890D03*
D12*
X883747Y476647D02*
X879733Y476647D01*
X883747Y476647D02*
X883747Y472633D01*
X879733Y472633D01*
X879733Y476647D01*
X879733Y474777D02*
X883747Y474777D01*
X887233Y476647D02*
X891247Y476647D01*
X891247Y472633D01*
X887233Y472633D01*
X887233Y476647D01*
X887233Y474777D02*
X891247Y474777D01*
X894733Y476647D02*
X898747Y476647D01*
X898747Y472633D01*
X894733Y472633D01*
X894733Y476647D01*
X894733Y474777D02*
X898747Y474777D01*
X902233Y476647D02*
X906247Y476647D01*
X906247Y472633D01*
X902233Y472633D01*
X902233Y476647D01*
X902233Y474777D02*
X906247Y474777D01*
X909733Y476647D02*
X913747Y476647D01*
X913747Y472633D01*
X909733Y472633D01*
X909733Y476647D01*
X909733Y474777D02*
X913747Y474777D01*
X928733Y483133D02*
X932747Y483133D01*
X928733Y483133D02*
X928733Y487147D01*
X932747Y487147D01*
X932747Y483133D01*
X932747Y485277D02*
X928733Y485277D01*
X913747Y497647D02*
X909733Y497647D01*
X913747Y497647D02*
X913747Y493633D01*
X909733Y493633D01*
X909733Y497647D01*
X909733Y495777D02*
X913747Y495777D01*
X906247Y497647D02*
X902233Y497647D01*
X906247Y497647D02*
X906247Y493633D01*
X902233Y493633D01*
X902233Y497647D01*
X902233Y495777D02*
X906247Y495777D01*
X898747Y497647D02*
X894733Y497647D01*
X898747Y497647D02*
X898747Y493633D01*
X894733Y493633D01*
X894733Y497647D01*
X894733Y495777D02*
X898747Y495777D01*
X891247Y497647D02*
X887233Y497647D01*
X891247Y497647D02*
X891247Y493633D01*
X887233Y493633D01*
X887233Y497647D01*
X887233Y495777D02*
X891247Y495777D01*
X883747Y497647D02*
X879733Y497647D01*
X883747Y497647D02*
X883747Y493633D01*
X879733Y493633D01*
X879733Y497647D01*
X879733Y495777D02*
X883747Y495777D01*
X879747Y487147D02*
X875733Y487147D01*
X879747Y487147D02*
X879747Y483133D01*
X875733Y483133D01*
X875733Y487147D01*
X875733Y485277D02*
X879747Y485277D01*
X917233Y476647D02*
X921247Y476647D01*
X921247Y472633D01*
X917233Y472633D01*
X917233Y476647D01*
X917233Y474777D02*
X921247Y474777D01*
X924733Y476647D02*
X928747Y476647D01*
X928747Y472633D01*
X924733Y472633D01*
X924733Y476647D01*
X924733Y474777D02*
X928747Y474777D01*
X921247Y497647D02*
X917233Y497647D01*
X921247Y497647D02*
X921247Y493633D01*
X917233Y493633D01*
X917233Y497647D01*
X917233Y495777D02*
X921247Y495777D01*
X924733Y497647D02*
X928747Y497647D01*
X928747Y493633D01*
X924733Y493633D01*
X924733Y497647D01*
X924733Y495777D02*
X928747Y495777D01*
D13*
X922247Y490647D02*
X886233Y490647D01*
X922247Y490647D02*
X922247Y479633D01*
X886233Y479633D01*
X886233Y490647D01*
X886233Y481776D02*
X922247Y481776D01*
X922247Y483919D02*
X886233Y483919D01*
X886233Y486062D02*
X922247Y486062D01*
X922247Y488205D02*
X886233Y488205D01*
X886233Y490348D02*
X922247Y490348D01*
D10*
X967740Y408940D03*
D14*
X802640Y421640D03*
X1005840Y421640D03*
D10*
X840740Y408940D03*
X866140Y408940D03*
X891540Y408940D03*
X916940Y408940D03*
X1201420Y408940D03*
D11*
X1042670Y402590D03*
X1283970Y516890D03*
D12*
X1142827Y476647D02*
X1138813Y476647D01*
X1142827Y476647D02*
X1142827Y472633D01*
X1138813Y472633D01*
X1138813Y476647D01*
X1138813Y474777D02*
X1142827Y474777D01*
X1146313Y476647D02*
X1150327Y476647D01*
X1150327Y472633D01*
X1146313Y472633D01*
X1146313Y476647D01*
X1146313Y474777D02*
X1150327Y474777D01*
X1153813Y476647D02*
X1157827Y476647D01*
X1157827Y472633D01*
X1153813Y472633D01*
X1153813Y476647D01*
X1153813Y474777D02*
X1157827Y474777D01*
X1161313Y476647D02*
X1165327Y476647D01*
X1165327Y472633D01*
X1161313Y472633D01*
X1161313Y476647D01*
X1161313Y474777D02*
X1165327Y474777D01*
X1168813Y476647D02*
X1172827Y476647D01*
X1172827Y472633D01*
X1168813Y472633D01*
X1168813Y476647D01*
X1168813Y474777D02*
X1172827Y474777D01*
X1187813Y483133D02*
X1191827Y483133D01*
X1187813Y483133D02*
X1187813Y487147D01*
X1191827Y487147D01*
X1191827Y483133D01*
X1191827Y485277D02*
X1187813Y485277D01*
X1172827Y497647D02*
X1168813Y497647D01*
X1172827Y497647D02*
X1172827Y493633D01*
X1168813Y493633D01*
X1168813Y497647D01*
X1168813Y495777D02*
X1172827Y495777D01*
X1165327Y497647D02*
X1161313Y497647D01*
X1165327Y497647D02*
X1165327Y493633D01*
X1161313Y493633D01*
X1161313Y497647D01*
X1161313Y495777D02*
X1165327Y495777D01*
X1157827Y497647D02*
X1153813Y497647D01*
X1157827Y497647D02*
X1157827Y493633D01*
X1153813Y493633D01*
X1153813Y497647D01*
X1153813Y495777D02*
X1157827Y495777D01*
X1150327Y497647D02*
X1146313Y497647D01*
X1150327Y497647D02*
X1150327Y493633D01*
X1146313Y493633D01*
X1146313Y497647D01*
X1146313Y495777D02*
X1150327Y495777D01*
X1142827Y497647D02*
X1138813Y497647D01*
X1142827Y497647D02*
X1142827Y493633D01*
X1138813Y493633D01*
X1138813Y497647D01*
X1138813Y495777D02*
X1142827Y495777D01*
X1138827Y487147D02*
X1134813Y487147D01*
X1138827Y487147D02*
X1138827Y483133D01*
X1134813Y483133D01*
X1134813Y487147D01*
X1134813Y485277D02*
X1138827Y485277D01*
X1176313Y476647D02*
X1180327Y476647D01*
X1180327Y472633D01*
X1176313Y472633D01*
X1176313Y476647D01*
X1176313Y474777D02*
X1180327Y474777D01*
X1183813Y476647D02*
X1187827Y476647D01*
X1187827Y472633D01*
X1183813Y472633D01*
X1183813Y476647D01*
X1183813Y474777D02*
X1187827Y474777D01*
X1180327Y497647D02*
X1176313Y497647D01*
X1180327Y497647D02*
X1180327Y493633D01*
X1176313Y493633D01*
X1176313Y497647D01*
X1176313Y495777D02*
X1180327Y495777D01*
X1183813Y497647D02*
X1187827Y497647D01*
X1187827Y493633D01*
X1183813Y493633D01*
X1183813Y497647D01*
X1183813Y495777D02*
X1187827Y495777D01*
D13*
X1181327Y490647D02*
X1145313Y490647D01*
X1181327Y490647D02*
X1181327Y479633D01*
X1145313Y479633D01*
X1145313Y490647D01*
X1145313Y481776D02*
X1181327Y481776D01*
X1181327Y483919D02*
X1145313Y483919D01*
X1145313Y486062D02*
X1181327Y486062D01*
X1181327Y488205D02*
X1145313Y488205D01*
X1145313Y490348D02*
X1181327Y490348D01*
D10*
X1226820Y408940D03*
D14*
X1061720Y421640D03*
X1264920Y421640D03*
D10*
X1099820Y408940D03*
X1125220Y408940D03*
X1150620Y408940D03*
X1176020Y408940D03*
X1460500Y408940D03*
D11*
X1301750Y402590D03*
X1543050Y516890D03*
D12*
X1401907Y476647D02*
X1397893Y476647D01*
X1401907Y476647D02*
X1401907Y472633D01*
X1397893Y472633D01*
X1397893Y476647D01*
X1397893Y474777D02*
X1401907Y474777D01*
X1405393Y476647D02*
X1409407Y476647D01*
X1409407Y472633D01*
X1405393Y472633D01*
X1405393Y476647D01*
X1405393Y474777D02*
X1409407Y474777D01*
X1412893Y476647D02*
X1416907Y476647D01*
X1416907Y472633D01*
X1412893Y472633D01*
X1412893Y476647D01*
X1412893Y474777D02*
X1416907Y474777D01*
X1420393Y476647D02*
X1424407Y476647D01*
X1424407Y472633D01*
X1420393Y472633D01*
X1420393Y476647D01*
X1420393Y474777D02*
X1424407Y474777D01*
X1427893Y476647D02*
X1431907Y476647D01*
X1431907Y472633D01*
X1427893Y472633D01*
X1427893Y476647D01*
X1427893Y474777D02*
X1431907Y474777D01*
X1446893Y483133D02*
X1450907Y483133D01*
X1446893Y483133D02*
X1446893Y487147D01*
X1450907Y487147D01*
X1450907Y483133D01*
X1450907Y485277D02*
X1446893Y485277D01*
X1431907Y497647D02*
X1427893Y497647D01*
X1431907Y497647D02*
X1431907Y493633D01*
X1427893Y493633D01*
X1427893Y497647D01*
X1427893Y495777D02*
X1431907Y495777D01*
X1424407Y497647D02*
X1420393Y497647D01*
X1424407Y497647D02*
X1424407Y493633D01*
X1420393Y493633D01*
X1420393Y497647D01*
X1420393Y495777D02*
X1424407Y495777D01*
X1416907Y497647D02*
X1412893Y497647D01*
X1416907Y497647D02*
X1416907Y493633D01*
X1412893Y493633D01*
X1412893Y497647D01*
X1412893Y495777D02*
X1416907Y495777D01*
X1409407Y497647D02*
X1405393Y497647D01*
X1409407Y497647D02*
X1409407Y493633D01*
X1405393Y493633D01*
X1405393Y497647D01*
X1405393Y495777D02*
X1409407Y495777D01*
X1401907Y497647D02*
X1397893Y497647D01*
X1401907Y497647D02*
X1401907Y493633D01*
X1397893Y493633D01*
X1397893Y497647D01*
X1397893Y495777D02*
X1401907Y495777D01*
X1397907Y487147D02*
X1393893Y487147D01*
X1397907Y487147D02*
X1397907Y483133D01*
X1393893Y483133D01*
X1393893Y487147D01*
X1393893Y485277D02*
X1397907Y485277D01*
X1435393Y476647D02*
X1439407Y476647D01*
X1439407Y472633D01*
X1435393Y472633D01*
X1435393Y476647D01*
X1435393Y474777D02*
X1439407Y474777D01*
X1442893Y476647D02*
X1446907Y476647D01*
X1446907Y472633D01*
X1442893Y472633D01*
X1442893Y476647D01*
X1442893Y474777D02*
X1446907Y474777D01*
X1439407Y497647D02*
X1435393Y497647D01*
X1439407Y497647D02*
X1439407Y493633D01*
X1435393Y493633D01*
X1435393Y497647D01*
X1435393Y495777D02*
X1439407Y495777D01*
X1442893Y497647D02*
X1446907Y497647D01*
X1446907Y493633D01*
X1442893Y493633D01*
X1442893Y497647D01*
X1442893Y495777D02*
X1446907Y495777D01*
D13*
X1440407Y490647D02*
X1404393Y490647D01*
X1440407Y490647D02*
X1440407Y479633D01*
X1404393Y479633D01*
X1404393Y490647D01*
X1404393Y481776D02*
X1440407Y481776D01*
X1440407Y483919D02*
X1404393Y483919D01*
X1404393Y486062D02*
X1440407Y486062D01*
X1440407Y488205D02*
X1404393Y488205D01*
X1404393Y490348D02*
X1440407Y490348D01*
D10*
X1485900Y408940D03*
D14*
X1320800Y421640D03*
X1524000Y421640D03*
D10*
X1358900Y408940D03*
X1384300Y408940D03*
X1409700Y408940D03*
X1435100Y408940D03*
X165100Y541020D03*
D11*
X6350Y534670D03*
X247650Y648970D03*
D12*
X106507Y608727D02*
X102493Y608727D01*
X106507Y608727D02*
X106507Y604713D01*
X102493Y604713D01*
X102493Y608727D01*
X102493Y606857D02*
X106507Y606857D01*
X109993Y608727D02*
X114007Y608727D01*
X114007Y604713D01*
X109993Y604713D01*
X109993Y608727D01*
X109993Y606857D02*
X114007Y606857D01*
X117493Y608727D02*
X121507Y608727D01*
X121507Y604713D01*
X117493Y604713D01*
X117493Y608727D01*
X117493Y606857D02*
X121507Y606857D01*
X124993Y608727D02*
X129007Y608727D01*
X129007Y604713D01*
X124993Y604713D01*
X124993Y608727D01*
X124993Y606857D02*
X129007Y606857D01*
X132493Y608727D02*
X136507Y608727D01*
X136507Y604713D01*
X132493Y604713D01*
X132493Y608727D01*
X132493Y606857D02*
X136507Y606857D01*
X151493Y615213D02*
X155507Y615213D01*
X151493Y615213D02*
X151493Y619227D01*
X155507Y619227D01*
X155507Y615213D01*
X155507Y617357D02*
X151493Y617357D01*
X136507Y629727D02*
X132493Y629727D01*
X136507Y629727D02*
X136507Y625713D01*
X132493Y625713D01*
X132493Y629727D01*
X132493Y627857D02*
X136507Y627857D01*
X129007Y629727D02*
X124993Y629727D01*
X129007Y629727D02*
X129007Y625713D01*
X124993Y625713D01*
X124993Y629727D01*
X124993Y627857D02*
X129007Y627857D01*
X121507Y629727D02*
X117493Y629727D01*
X121507Y629727D02*
X121507Y625713D01*
X117493Y625713D01*
X117493Y629727D01*
X117493Y627857D02*
X121507Y627857D01*
X114007Y629727D02*
X109993Y629727D01*
X114007Y629727D02*
X114007Y625713D01*
X109993Y625713D01*
X109993Y629727D01*
X109993Y627857D02*
X114007Y627857D01*
X106507Y629727D02*
X102493Y629727D01*
X106507Y629727D02*
X106507Y625713D01*
X102493Y625713D01*
X102493Y629727D01*
X102493Y627857D02*
X106507Y627857D01*
X102507Y619227D02*
X98493Y619227D01*
X102507Y619227D02*
X102507Y615213D01*
X98493Y615213D01*
X98493Y619227D01*
X98493Y617357D02*
X102507Y617357D01*
X139993Y608727D02*
X144007Y608727D01*
X144007Y604713D01*
X139993Y604713D01*
X139993Y608727D01*
X139993Y606857D02*
X144007Y606857D01*
X147493Y608727D02*
X151507Y608727D01*
X151507Y604713D01*
X147493Y604713D01*
X147493Y608727D01*
X147493Y606857D02*
X151507Y606857D01*
X144007Y629727D02*
X139993Y629727D01*
X144007Y629727D02*
X144007Y625713D01*
X139993Y625713D01*
X139993Y629727D01*
X139993Y627857D02*
X144007Y627857D01*
X147493Y629727D02*
X151507Y629727D01*
X151507Y625713D01*
X147493Y625713D01*
X147493Y629727D01*
X147493Y627857D02*
X151507Y627857D01*
D13*
X145007Y622727D02*
X108993Y622727D01*
X145007Y622727D02*
X145007Y611713D01*
X108993Y611713D01*
X108993Y622727D01*
X108993Y613856D02*
X145007Y613856D01*
X145007Y615999D02*
X108993Y615999D01*
X108993Y618142D02*
X145007Y618142D01*
X145007Y620285D02*
X108993Y620285D01*
X108993Y622428D02*
X145007Y622428D01*
D10*
X190500Y541020D03*
D14*
X25400Y553720D03*
X228600Y553720D03*
D10*
X63500Y541020D03*
X88900Y541020D03*
X114300Y541020D03*
X139700Y541020D03*
X424180Y541020D03*
D11*
X265430Y534670D03*
X506730Y648970D03*
D12*
X365587Y608727D02*
X361573Y608727D01*
X365587Y608727D02*
X365587Y604713D01*
X361573Y604713D01*
X361573Y608727D01*
X361573Y606857D02*
X365587Y606857D01*
X369073Y608727D02*
X373087Y608727D01*
X373087Y604713D01*
X369073Y604713D01*
X369073Y608727D01*
X369073Y606857D02*
X373087Y606857D01*
X376573Y608727D02*
X380587Y608727D01*
X380587Y604713D01*
X376573Y604713D01*
X376573Y608727D01*
X376573Y606857D02*
X380587Y606857D01*
X384073Y608727D02*
X388087Y608727D01*
X388087Y604713D01*
X384073Y604713D01*
X384073Y608727D01*
X384073Y606857D02*
X388087Y606857D01*
X391573Y608727D02*
X395587Y608727D01*
X395587Y604713D01*
X391573Y604713D01*
X391573Y608727D01*
X391573Y606857D02*
X395587Y606857D01*
X410573Y615213D02*
X414587Y615213D01*
X410573Y615213D02*
X410573Y619227D01*
X414587Y619227D01*
X414587Y615213D01*
X414587Y617357D02*
X410573Y617357D01*
X395587Y629727D02*
X391573Y629727D01*
X395587Y629727D02*
X395587Y625713D01*
X391573Y625713D01*
X391573Y629727D01*
X391573Y627857D02*
X395587Y627857D01*
X388087Y629727D02*
X384073Y629727D01*
X388087Y629727D02*
X388087Y625713D01*
X384073Y625713D01*
X384073Y629727D01*
X384073Y627857D02*
X388087Y627857D01*
X380587Y629727D02*
X376573Y629727D01*
X380587Y629727D02*
X380587Y625713D01*
X376573Y625713D01*
X376573Y629727D01*
X376573Y627857D02*
X380587Y627857D01*
X373087Y629727D02*
X369073Y629727D01*
X373087Y629727D02*
X373087Y625713D01*
X369073Y625713D01*
X369073Y629727D01*
X369073Y627857D02*
X373087Y627857D01*
X365587Y629727D02*
X361573Y629727D01*
X365587Y629727D02*
X365587Y625713D01*
X361573Y625713D01*
X361573Y629727D01*
X361573Y627857D02*
X365587Y627857D01*
X361587Y619227D02*
X357573Y619227D01*
X361587Y619227D02*
X361587Y615213D01*
X357573Y615213D01*
X357573Y619227D01*
X357573Y617357D02*
X361587Y617357D01*
X399073Y608727D02*
X403087Y608727D01*
X403087Y604713D01*
X399073Y604713D01*
X399073Y608727D01*
X399073Y606857D02*
X403087Y606857D01*
X406573Y608727D02*
X410587Y608727D01*
X410587Y604713D01*
X406573Y604713D01*
X406573Y608727D01*
X406573Y606857D02*
X410587Y606857D01*
X403087Y629727D02*
X399073Y629727D01*
X403087Y629727D02*
X403087Y625713D01*
X399073Y625713D01*
X399073Y629727D01*
X399073Y627857D02*
X403087Y627857D01*
X406573Y629727D02*
X410587Y629727D01*
X410587Y625713D01*
X406573Y625713D01*
X406573Y629727D01*
X406573Y627857D02*
X410587Y627857D01*
D13*
X404087Y622727D02*
X368073Y622727D01*
X404087Y622727D02*
X404087Y611713D01*
X368073Y611713D01*
X368073Y622727D01*
X368073Y613856D02*
X404087Y613856D01*
X404087Y615999D02*
X368073Y615999D01*
X368073Y618142D02*
X404087Y618142D01*
X404087Y620285D02*
X368073Y620285D01*
X368073Y622428D02*
X404087Y622428D01*
D10*
X449580Y541020D03*
D14*
X284480Y553720D03*
X487680Y553720D03*
D10*
X322580Y541020D03*
X347980Y541020D03*
X373380Y541020D03*
X398780Y541020D03*
X683260Y541020D03*
D11*
X524510Y534670D03*
X765810Y648970D03*
D12*
X624667Y608727D02*
X620653Y608727D01*
X624667Y608727D02*
X624667Y604713D01*
X620653Y604713D01*
X620653Y608727D01*
X620653Y606857D02*
X624667Y606857D01*
X628153Y608727D02*
X632167Y608727D01*
X632167Y604713D01*
X628153Y604713D01*
X628153Y608727D01*
X628153Y606857D02*
X632167Y606857D01*
X635653Y608727D02*
X639667Y608727D01*
X639667Y604713D01*
X635653Y604713D01*
X635653Y608727D01*
X635653Y606857D02*
X639667Y606857D01*
X643153Y608727D02*
X647167Y608727D01*
X647167Y604713D01*
X643153Y604713D01*
X643153Y608727D01*
X643153Y606857D02*
X647167Y606857D01*
X650653Y608727D02*
X654667Y608727D01*
X654667Y604713D01*
X650653Y604713D01*
X650653Y608727D01*
X650653Y606857D02*
X654667Y606857D01*
X669653Y615213D02*
X673667Y615213D01*
X669653Y615213D02*
X669653Y619227D01*
X673667Y619227D01*
X673667Y615213D01*
X673667Y617357D02*
X669653Y617357D01*
X654667Y629727D02*
X650653Y629727D01*
X654667Y629727D02*
X654667Y625713D01*
X650653Y625713D01*
X650653Y629727D01*
X650653Y627857D02*
X654667Y627857D01*
X647167Y629727D02*
X643153Y629727D01*
X647167Y629727D02*
X647167Y625713D01*
X643153Y625713D01*
X643153Y629727D01*
X643153Y627857D02*
X647167Y627857D01*
X639667Y629727D02*
X635653Y629727D01*
X639667Y629727D02*
X639667Y625713D01*
X635653Y625713D01*
X635653Y629727D01*
X635653Y627857D02*
X639667Y627857D01*
X632167Y629727D02*
X628153Y629727D01*
X632167Y629727D02*
X632167Y625713D01*
X628153Y625713D01*
X628153Y629727D01*
X628153Y627857D02*
X632167Y627857D01*
X624667Y629727D02*
X620653Y629727D01*
X624667Y629727D02*
X624667Y625713D01*
X620653Y625713D01*
X620653Y629727D01*
X620653Y627857D02*
X624667Y627857D01*
X620667Y619227D02*
X616653Y619227D01*
X620667Y619227D02*
X620667Y615213D01*
X616653Y615213D01*
X616653Y619227D01*
X616653Y617357D02*
X620667Y617357D01*
X658153Y608727D02*
X662167Y608727D01*
X662167Y604713D01*
X658153Y604713D01*
X658153Y608727D01*
X658153Y606857D02*
X662167Y606857D01*
X665653Y608727D02*
X669667Y608727D01*
X669667Y604713D01*
X665653Y604713D01*
X665653Y608727D01*
X665653Y606857D02*
X669667Y606857D01*
X662167Y629727D02*
X658153Y629727D01*
X662167Y629727D02*
X662167Y625713D01*
X658153Y625713D01*
X658153Y629727D01*
X658153Y627857D02*
X662167Y627857D01*
X665653Y629727D02*
X669667Y629727D01*
X669667Y625713D01*
X665653Y625713D01*
X665653Y629727D01*
X665653Y627857D02*
X669667Y627857D01*
D13*
X663167Y622727D02*
X627153Y622727D01*
X663167Y622727D02*
X663167Y611713D01*
X627153Y611713D01*
X627153Y622727D01*
X627153Y613856D02*
X663167Y613856D01*
X663167Y615999D02*
X627153Y615999D01*
X627153Y618142D02*
X663167Y618142D01*
X663167Y620285D02*
X627153Y620285D01*
X627153Y622428D02*
X663167Y622428D01*
D10*
X708660Y541020D03*
D14*
X543560Y553720D03*
X746760Y553720D03*
D10*
X581660Y541020D03*
X607060Y541020D03*
X632460Y541020D03*
X657860Y541020D03*
X942340Y541020D03*
D11*
X783590Y534670D03*
X1024890Y648970D03*
D12*
X883747Y608727D02*
X879733Y608727D01*
X883747Y608727D02*
X883747Y604713D01*
X879733Y604713D01*
X879733Y608727D01*
X879733Y606857D02*
X883747Y606857D01*
X887233Y608727D02*
X891247Y608727D01*
X891247Y604713D01*
X887233Y604713D01*
X887233Y608727D01*
X887233Y606857D02*
X891247Y606857D01*
X894733Y608727D02*
X898747Y608727D01*
X898747Y604713D01*
X894733Y604713D01*
X894733Y608727D01*
X894733Y606857D02*
X898747Y606857D01*
X902233Y608727D02*
X906247Y608727D01*
X906247Y604713D01*
X902233Y604713D01*
X902233Y608727D01*
X902233Y606857D02*
X906247Y606857D01*
X909733Y608727D02*
X913747Y608727D01*
X913747Y604713D01*
X909733Y604713D01*
X909733Y608727D01*
X909733Y606857D02*
X913747Y606857D01*
X928733Y615213D02*
X932747Y615213D01*
X928733Y615213D02*
X928733Y619227D01*
X932747Y619227D01*
X932747Y615213D01*
X932747Y617357D02*
X928733Y617357D01*
X913747Y629727D02*
X909733Y629727D01*
X913747Y629727D02*
X913747Y625713D01*
X909733Y625713D01*
X909733Y629727D01*
X909733Y627857D02*
X913747Y627857D01*
X906247Y629727D02*
X902233Y629727D01*
X906247Y629727D02*
X906247Y625713D01*
X902233Y625713D01*
X902233Y629727D01*
X902233Y627857D02*
X906247Y627857D01*
X898747Y629727D02*
X894733Y629727D01*
X898747Y629727D02*
X898747Y625713D01*
X894733Y625713D01*
X894733Y629727D01*
X894733Y627857D02*
X898747Y627857D01*
X891247Y629727D02*
X887233Y629727D01*
X891247Y629727D02*
X891247Y625713D01*
X887233Y625713D01*
X887233Y629727D01*
X887233Y627857D02*
X891247Y627857D01*
X883747Y629727D02*
X879733Y629727D01*
X883747Y629727D02*
X883747Y625713D01*
X879733Y625713D01*
X879733Y629727D01*
X879733Y627857D02*
X883747Y627857D01*
X879747Y619227D02*
X875733Y619227D01*
X879747Y619227D02*
X879747Y615213D01*
X875733Y615213D01*
X875733Y619227D01*
X875733Y617357D02*
X879747Y617357D01*
X917233Y608727D02*
X921247Y608727D01*
X921247Y604713D01*
X917233Y604713D01*
X917233Y608727D01*
X917233Y606857D02*
X921247Y606857D01*
X924733Y608727D02*
X928747Y608727D01*
X928747Y604713D01*
X924733Y604713D01*
X924733Y608727D01*
X924733Y606857D02*
X928747Y606857D01*
X921247Y629727D02*
X917233Y629727D01*
X921247Y629727D02*
X921247Y625713D01*
X917233Y625713D01*
X917233Y629727D01*
X917233Y627857D02*
X921247Y627857D01*
X924733Y629727D02*
X928747Y629727D01*
X928747Y625713D01*
X924733Y625713D01*
X924733Y629727D01*
X924733Y627857D02*
X928747Y627857D01*
D13*
X922247Y622727D02*
X886233Y622727D01*
X922247Y622727D02*
X922247Y611713D01*
X886233Y611713D01*
X886233Y622727D01*
X886233Y613856D02*
X922247Y613856D01*
X922247Y615999D02*
X886233Y615999D01*
X886233Y618142D02*
X922247Y618142D01*
X922247Y620285D02*
X886233Y620285D01*
X886233Y622428D02*
X922247Y622428D01*
D10*
X967740Y541020D03*
D14*
X802640Y553720D03*
X1005840Y553720D03*
D10*
X840740Y541020D03*
X866140Y541020D03*
X891540Y541020D03*
X916940Y541020D03*
X1201420Y541020D03*
D11*
X1042670Y534670D03*
X1283970Y648970D03*
D12*
X1142827Y608727D02*
X1138813Y608727D01*
X1142827Y608727D02*
X1142827Y604713D01*
X1138813Y604713D01*
X1138813Y608727D01*
X1138813Y606857D02*
X1142827Y606857D01*
X1146313Y608727D02*
X1150327Y608727D01*
X1150327Y604713D01*
X1146313Y604713D01*
X1146313Y608727D01*
X1146313Y606857D02*
X1150327Y606857D01*
X1153813Y608727D02*
X1157827Y608727D01*
X1157827Y604713D01*
X1153813Y604713D01*
X1153813Y608727D01*
X1153813Y606857D02*
X1157827Y606857D01*
X1161313Y608727D02*
X1165327Y608727D01*
X1165327Y604713D01*
X1161313Y604713D01*
X1161313Y608727D01*
X1161313Y606857D02*
X1165327Y606857D01*
X1168813Y608727D02*
X1172827Y608727D01*
X1172827Y604713D01*
X1168813Y604713D01*
X1168813Y608727D01*
X1168813Y606857D02*
X1172827Y606857D01*
X1187813Y615213D02*
X1191827Y615213D01*
X1187813Y615213D02*
X1187813Y619227D01*
X1191827Y619227D01*
X1191827Y615213D01*
X1191827Y617357D02*
X1187813Y617357D01*
X1172827Y629727D02*
X1168813Y629727D01*
X1172827Y629727D02*
X1172827Y625713D01*
X1168813Y625713D01*
X1168813Y629727D01*
X1168813Y627857D02*
X1172827Y627857D01*
X1165327Y629727D02*
X1161313Y629727D01*
X1165327Y629727D02*
X1165327Y625713D01*
X1161313Y625713D01*
X1161313Y629727D01*
X1161313Y627857D02*
X1165327Y627857D01*
X1157827Y629727D02*
X1153813Y629727D01*
X1157827Y629727D02*
X1157827Y625713D01*
X1153813Y625713D01*
X1153813Y629727D01*
X1153813Y627857D02*
X1157827Y627857D01*
X1150327Y629727D02*
X1146313Y629727D01*
X1150327Y629727D02*
X1150327Y625713D01*
X1146313Y625713D01*
X1146313Y629727D01*
X1146313Y627857D02*
X1150327Y627857D01*
X1142827Y629727D02*
X1138813Y629727D01*
X1142827Y629727D02*
X1142827Y625713D01*
X1138813Y625713D01*
X1138813Y629727D01*
X1138813Y627857D02*
X1142827Y627857D01*
X1138827Y619227D02*
X1134813Y619227D01*
X1138827Y619227D02*
X1138827Y615213D01*
X1134813Y615213D01*
X1134813Y619227D01*
X1134813Y617357D02*
X1138827Y617357D01*
X1176313Y608727D02*
X1180327Y608727D01*
X1180327Y604713D01*
X1176313Y604713D01*
X1176313Y608727D01*
X1176313Y606857D02*
X1180327Y606857D01*
X1183813Y608727D02*
X1187827Y608727D01*
X1187827Y604713D01*
X1183813Y604713D01*
X1183813Y608727D01*
X1183813Y606857D02*
X1187827Y606857D01*
X1180327Y629727D02*
X1176313Y629727D01*
X1180327Y629727D02*
X1180327Y625713D01*
X1176313Y625713D01*
X1176313Y629727D01*
X1176313Y627857D02*
X1180327Y627857D01*
X1183813Y629727D02*
X1187827Y629727D01*
X1187827Y625713D01*
X1183813Y625713D01*
X1183813Y629727D01*
X1183813Y627857D02*
X1187827Y627857D01*
D13*
X1181327Y622727D02*
X1145313Y622727D01*
X1181327Y622727D02*
X1181327Y611713D01*
X1145313Y611713D01*
X1145313Y622727D01*
X1145313Y613856D02*
X1181327Y613856D01*
X1181327Y615999D02*
X1145313Y615999D01*
X1145313Y618142D02*
X1181327Y618142D01*
X1181327Y620285D02*
X1145313Y620285D01*
X1145313Y622428D02*
X1181327Y622428D01*
D10*
X1226820Y541020D03*
D14*
X1061720Y553720D03*
X1264920Y553720D03*
D10*
X1099820Y541020D03*
X1125220Y541020D03*
X1150620Y541020D03*
X1176020Y541020D03*
X1460500Y541020D03*
D11*
X1301750Y534670D03*
X1543050Y648970D03*
D12*
X1401907Y608727D02*
X1397893Y608727D01*
X1401907Y608727D02*
X1401907Y604713D01*
X1397893Y604713D01*
X1397893Y608727D01*
X1397893Y606857D02*
X1401907Y606857D01*
X1405393Y608727D02*
X1409407Y608727D01*
X1409407Y604713D01*
X1405393Y604713D01*
X1405393Y608727D01*
X1405393Y606857D02*
X1409407Y606857D01*
X1412893Y608727D02*
X1416907Y608727D01*
X1416907Y604713D01*
X1412893Y604713D01*
X1412893Y608727D01*
X1412893Y606857D02*
X1416907Y606857D01*
X1420393Y608727D02*
X1424407Y608727D01*
X1424407Y604713D01*
X1420393Y604713D01*
X1420393Y608727D01*
X1420393Y606857D02*
X1424407Y606857D01*
X1427893Y608727D02*
X1431907Y608727D01*
X1431907Y604713D01*
X1427893Y604713D01*
X1427893Y608727D01*
X1427893Y606857D02*
X1431907Y606857D01*
X1446893Y615213D02*
X1450907Y615213D01*
X1446893Y615213D02*
X1446893Y619227D01*
X1450907Y619227D01*
X1450907Y615213D01*
X1450907Y617357D02*
X1446893Y617357D01*
X1431907Y629727D02*
X1427893Y629727D01*
X1431907Y629727D02*
X1431907Y625713D01*
X1427893Y625713D01*
X1427893Y629727D01*
X1427893Y627857D02*
X1431907Y627857D01*
X1424407Y629727D02*
X1420393Y629727D01*
X1424407Y629727D02*
X1424407Y625713D01*
X1420393Y625713D01*
X1420393Y629727D01*
X1420393Y627857D02*
X1424407Y627857D01*
X1416907Y629727D02*
X1412893Y629727D01*
X1416907Y629727D02*
X1416907Y625713D01*
X1412893Y625713D01*
X1412893Y629727D01*
X1412893Y627857D02*
X1416907Y627857D01*
X1409407Y629727D02*
X1405393Y629727D01*
X1409407Y629727D02*
X1409407Y625713D01*
X1405393Y625713D01*
X1405393Y629727D01*
X1405393Y627857D02*
X1409407Y627857D01*
X1401907Y629727D02*
X1397893Y629727D01*
X1401907Y629727D02*
X1401907Y625713D01*
X1397893Y625713D01*
X1397893Y629727D01*
X1397893Y627857D02*
X1401907Y627857D01*
X1397907Y619227D02*
X1393893Y619227D01*
X1397907Y619227D02*
X1397907Y615213D01*
X1393893Y615213D01*
X1393893Y619227D01*
X1393893Y617357D02*
X1397907Y617357D01*
X1435393Y608727D02*
X1439407Y608727D01*
X1439407Y604713D01*
X1435393Y604713D01*
X1435393Y608727D01*
X1435393Y606857D02*
X1439407Y606857D01*
X1442893Y608727D02*
X1446907Y608727D01*
X1446907Y604713D01*
X1442893Y604713D01*
X1442893Y608727D01*
X1442893Y606857D02*
X1446907Y606857D01*
X1439407Y629727D02*
X1435393Y629727D01*
X1439407Y629727D02*
X1439407Y625713D01*
X1435393Y625713D01*
X1435393Y629727D01*
X1435393Y627857D02*
X1439407Y627857D01*
X1442893Y629727D02*
X1446907Y629727D01*
X1446907Y625713D01*
X1442893Y625713D01*
X1442893Y629727D01*
X1442893Y627857D02*
X1446907Y627857D01*
D13*
X1440407Y622727D02*
X1404393Y622727D01*
X1440407Y622727D02*
X1440407Y611713D01*
X1404393Y611713D01*
X1404393Y622727D01*
X1404393Y613856D02*
X1440407Y613856D01*
X1440407Y615999D02*
X1404393Y615999D01*
X1404393Y618142D02*
X1440407Y618142D01*
X1440407Y620285D02*
X1404393Y620285D01*
X1404393Y622428D02*
X1440407Y622428D01*
D10*
X1485900Y541020D03*
D14*
X1320800Y553720D03*
X1524000Y553720D03*
D10*
X1358900Y541020D03*
X1384300Y541020D03*
X1409700Y541020D03*
X1435100Y541020D03*
X165100Y673100D03*
D11*
X6350Y666750D03*
X247650Y781050D03*
D12*
X106507Y740807D02*
X102493Y740807D01*
X106507Y740807D02*
X106507Y736793D01*
X102493Y736793D01*
X102493Y740807D01*
X102493Y738937D02*
X106507Y738937D01*
X109993Y740807D02*
X114007Y740807D01*
X114007Y736793D01*
X109993Y736793D01*
X109993Y740807D01*
X109993Y738937D02*
X114007Y738937D01*
X117493Y740807D02*
X121507Y740807D01*
X121507Y736793D01*
X117493Y736793D01*
X117493Y740807D01*
X117493Y738937D02*
X121507Y738937D01*
X124993Y740807D02*
X129007Y740807D01*
X129007Y736793D01*
X124993Y736793D01*
X124993Y740807D01*
X124993Y738937D02*
X129007Y738937D01*
X132493Y740807D02*
X136507Y740807D01*
X136507Y736793D01*
X132493Y736793D01*
X132493Y740807D01*
X132493Y738937D02*
X136507Y738937D01*
X151493Y747293D02*
X155507Y747293D01*
X151493Y747293D02*
X151493Y751307D01*
X155507Y751307D01*
X155507Y747293D01*
X155507Y749437D02*
X151493Y749437D01*
X136507Y761807D02*
X132493Y761807D01*
X136507Y761807D02*
X136507Y757793D01*
X132493Y757793D01*
X132493Y761807D01*
X132493Y759937D02*
X136507Y759937D01*
X129007Y761807D02*
X124993Y761807D01*
X129007Y761807D02*
X129007Y757793D01*
X124993Y757793D01*
X124993Y761807D01*
X124993Y759937D02*
X129007Y759937D01*
X121507Y761807D02*
X117493Y761807D01*
X121507Y761807D02*
X121507Y757793D01*
X117493Y757793D01*
X117493Y761807D01*
X117493Y759937D02*
X121507Y759937D01*
X114007Y761807D02*
X109993Y761807D01*
X114007Y761807D02*
X114007Y757793D01*
X109993Y757793D01*
X109993Y761807D01*
X109993Y759937D02*
X114007Y759937D01*
X106507Y761807D02*
X102493Y761807D01*
X106507Y761807D02*
X106507Y757793D01*
X102493Y757793D01*
X102493Y761807D01*
X102493Y759937D02*
X106507Y759937D01*
X102507Y751307D02*
X98493Y751307D01*
X102507Y751307D02*
X102507Y747293D01*
X98493Y747293D01*
X98493Y751307D01*
X98493Y749437D02*
X102507Y749437D01*
X139993Y740807D02*
X144007Y740807D01*
X144007Y736793D01*
X139993Y736793D01*
X139993Y740807D01*
X139993Y738937D02*
X144007Y738937D01*
X147493Y740807D02*
X151507Y740807D01*
X151507Y736793D01*
X147493Y736793D01*
X147493Y740807D01*
X147493Y738937D02*
X151507Y738937D01*
X144007Y761807D02*
X139993Y761807D01*
X144007Y761807D02*
X144007Y757793D01*
X139993Y757793D01*
X139993Y761807D01*
X139993Y759937D02*
X144007Y759937D01*
X147493Y761807D02*
X151507Y761807D01*
X151507Y757793D01*
X147493Y757793D01*
X147493Y761807D01*
X147493Y759937D02*
X151507Y759937D01*
D13*
X145007Y754807D02*
X108993Y754807D01*
X145007Y754807D02*
X145007Y743793D01*
X108993Y743793D01*
X108993Y754807D01*
X108993Y745936D02*
X145007Y745936D01*
X145007Y748079D02*
X108993Y748079D01*
X108993Y750222D02*
X145007Y750222D01*
X145007Y752365D02*
X108993Y752365D01*
X108993Y754508D02*
X145007Y754508D01*
D10*
X190500Y673100D03*
D14*
X25400Y685800D03*
X228600Y685800D03*
D10*
X63500Y673100D03*
X88900Y673100D03*
X114300Y673100D03*
X139700Y673100D03*
X424180Y673100D03*
D11*
X265430Y666750D03*
X506730Y781050D03*
D12*
X365587Y740807D02*
X361573Y740807D01*
X365587Y740807D02*
X365587Y736793D01*
X361573Y736793D01*
X361573Y740807D01*
X361573Y738937D02*
X365587Y738937D01*
X369073Y740807D02*
X373087Y740807D01*
X373087Y736793D01*
X369073Y736793D01*
X369073Y740807D01*
X369073Y738937D02*
X373087Y738937D01*
X376573Y740807D02*
X380587Y740807D01*
X380587Y736793D01*
X376573Y736793D01*
X376573Y740807D01*
X376573Y738937D02*
X380587Y738937D01*
X384073Y740807D02*
X388087Y740807D01*
X388087Y736793D01*
X384073Y736793D01*
X384073Y740807D01*
X384073Y738937D02*
X388087Y738937D01*
X391573Y740807D02*
X395587Y740807D01*
X395587Y736793D01*
X391573Y736793D01*
X391573Y740807D01*
X391573Y738937D02*
X395587Y738937D01*
X410573Y747293D02*
X414587Y747293D01*
X410573Y747293D02*
X410573Y751307D01*
X414587Y751307D01*
X414587Y747293D01*
X414587Y749437D02*
X410573Y749437D01*
X395587Y761807D02*
X391573Y761807D01*
X395587Y761807D02*
X395587Y757793D01*
X391573Y757793D01*
X391573Y761807D01*
X391573Y759937D02*
X395587Y759937D01*
X388087Y761807D02*
X384073Y761807D01*
X388087Y761807D02*
X388087Y757793D01*
X384073Y757793D01*
X384073Y761807D01*
X384073Y759937D02*
X388087Y759937D01*
X380587Y761807D02*
X376573Y761807D01*
X380587Y761807D02*
X380587Y757793D01*
X376573Y757793D01*
X376573Y761807D01*
X376573Y759937D02*
X380587Y759937D01*
X373087Y761807D02*
X369073Y761807D01*
X373087Y761807D02*
X373087Y757793D01*
X369073Y757793D01*
X369073Y761807D01*
X369073Y759937D02*
X373087Y759937D01*
X365587Y761807D02*
X361573Y761807D01*
X365587Y761807D02*
X365587Y757793D01*
X361573Y757793D01*
X361573Y761807D01*
X361573Y759937D02*
X365587Y759937D01*
X361587Y751307D02*
X357573Y751307D01*
X361587Y751307D02*
X361587Y747293D01*
X357573Y747293D01*
X357573Y751307D01*
X357573Y749437D02*
X361587Y749437D01*
X399073Y740807D02*
X403087Y740807D01*
X403087Y736793D01*
X399073Y736793D01*
X399073Y740807D01*
X399073Y738937D02*
X403087Y738937D01*
X406573Y740807D02*
X410587Y740807D01*
X410587Y736793D01*
X406573Y736793D01*
X406573Y740807D01*
X406573Y738937D02*
X410587Y738937D01*
X403087Y761807D02*
X399073Y761807D01*
X403087Y761807D02*
X403087Y757793D01*
X399073Y757793D01*
X399073Y761807D01*
X399073Y759937D02*
X403087Y759937D01*
X406573Y761807D02*
X410587Y761807D01*
X410587Y757793D01*
X406573Y757793D01*
X406573Y761807D01*
X406573Y759937D02*
X410587Y759937D01*
D13*
X404087Y754807D02*
X368073Y754807D01*
X404087Y754807D02*
X404087Y743793D01*
X368073Y743793D01*
X368073Y754807D01*
X368073Y745936D02*
X404087Y745936D01*
X404087Y748079D02*
X368073Y748079D01*
X368073Y750222D02*
X404087Y750222D01*
X404087Y752365D02*
X368073Y752365D01*
X368073Y754508D02*
X404087Y754508D01*
D10*
X449580Y673100D03*
D14*
X284480Y685800D03*
X487680Y685800D03*
D10*
X322580Y673100D03*
X347980Y673100D03*
X373380Y673100D03*
X398780Y673100D03*
X683260Y673100D03*
D11*
X524510Y666750D03*
X765810Y781050D03*
D12*
X624667Y740807D02*
X620653Y740807D01*
X624667Y740807D02*
X624667Y736793D01*
X620653Y736793D01*
X620653Y740807D01*
X620653Y738937D02*
X624667Y738937D01*
X628153Y740807D02*
X632167Y740807D01*
X632167Y736793D01*
X628153Y736793D01*
X628153Y740807D01*
X628153Y738937D02*
X632167Y738937D01*
X635653Y740807D02*
X639667Y740807D01*
X639667Y736793D01*
X635653Y736793D01*
X635653Y740807D01*
X635653Y738937D02*
X639667Y738937D01*
X643153Y740807D02*
X647167Y740807D01*
X647167Y736793D01*
X643153Y736793D01*
X643153Y740807D01*
X643153Y738937D02*
X647167Y738937D01*
X650653Y740807D02*
X654667Y740807D01*
X654667Y736793D01*
X650653Y736793D01*
X650653Y740807D01*
X650653Y738937D02*
X654667Y738937D01*
X669653Y747293D02*
X673667Y747293D01*
X669653Y747293D02*
X669653Y751307D01*
X673667Y751307D01*
X673667Y747293D01*
X673667Y749437D02*
X669653Y749437D01*
X654667Y761807D02*
X650653Y761807D01*
X654667Y761807D02*
X654667Y757793D01*
X650653Y757793D01*
X650653Y761807D01*
X650653Y759937D02*
X654667Y759937D01*
X647167Y761807D02*
X643153Y761807D01*
X647167Y761807D02*
X647167Y757793D01*
X643153Y757793D01*
X643153Y761807D01*
X643153Y759937D02*
X647167Y759937D01*
X639667Y761807D02*
X635653Y761807D01*
X639667Y761807D02*
X639667Y757793D01*
X635653Y757793D01*
X635653Y761807D01*
X635653Y759937D02*
X639667Y759937D01*
X632167Y761807D02*
X628153Y761807D01*
X632167Y761807D02*
X632167Y757793D01*
X628153Y757793D01*
X628153Y761807D01*
X628153Y759937D02*
X632167Y759937D01*
X624667Y761807D02*
X620653Y761807D01*
X624667Y761807D02*
X624667Y757793D01*
X620653Y757793D01*
X620653Y761807D01*
X620653Y759937D02*
X624667Y759937D01*
X620667Y751307D02*
X616653Y751307D01*
X620667Y751307D02*
X620667Y747293D01*
X616653Y747293D01*
X616653Y751307D01*
X616653Y749437D02*
X620667Y749437D01*
X658153Y740807D02*
X662167Y740807D01*
X662167Y736793D01*
X658153Y736793D01*
X658153Y740807D01*
X658153Y738937D02*
X662167Y738937D01*
X665653Y740807D02*
X669667Y740807D01*
X669667Y736793D01*
X665653Y736793D01*
X665653Y740807D01*
X665653Y738937D02*
X669667Y738937D01*
X662167Y761807D02*
X658153Y761807D01*
X662167Y761807D02*
X662167Y757793D01*
X658153Y757793D01*
X658153Y761807D01*
X658153Y759937D02*
X662167Y759937D01*
X665653Y761807D02*
X669667Y761807D01*
X669667Y757793D01*
X665653Y757793D01*
X665653Y761807D01*
X665653Y759937D02*
X669667Y759937D01*
D13*
X663167Y754807D02*
X627153Y754807D01*
X663167Y754807D02*
X663167Y743793D01*
X627153Y743793D01*
X627153Y754807D01*
X627153Y745936D02*
X663167Y745936D01*
X663167Y748079D02*
X627153Y748079D01*
X627153Y750222D02*
X663167Y750222D01*
X663167Y752365D02*
X627153Y752365D01*
X627153Y754508D02*
X663167Y754508D01*
D10*
X708660Y673100D03*
D14*
X543560Y685800D03*
X746760Y685800D03*
D10*
X581660Y673100D03*
X607060Y673100D03*
X632460Y673100D03*
X657860Y673100D03*
X942340Y673100D03*
D11*
X783590Y666750D03*
X1024890Y781050D03*
D12*
X883747Y740807D02*
X879733Y740807D01*
X883747Y740807D02*
X883747Y736793D01*
X879733Y736793D01*
X879733Y740807D01*
X879733Y738937D02*
X883747Y738937D01*
X887233Y740807D02*
X891247Y740807D01*
X891247Y736793D01*
X887233Y736793D01*
X887233Y740807D01*
X887233Y738937D02*
X891247Y738937D01*
X894733Y740807D02*
X898747Y740807D01*
X898747Y736793D01*
X894733Y736793D01*
X894733Y740807D01*
X894733Y738937D02*
X898747Y738937D01*
X902233Y740807D02*
X906247Y740807D01*
X906247Y736793D01*
X902233Y736793D01*
X902233Y740807D01*
X902233Y738937D02*
X906247Y738937D01*
X909733Y740807D02*
X913747Y740807D01*
X913747Y736793D01*
X909733Y736793D01*
X909733Y740807D01*
X909733Y738937D02*
X913747Y738937D01*
X928733Y747293D02*
X932747Y747293D01*
X928733Y747293D02*
X928733Y751307D01*
X932747Y751307D01*
X932747Y747293D01*
X932747Y749437D02*
X928733Y749437D01*
X913747Y761807D02*
X909733Y761807D01*
X913747Y761807D02*
X913747Y757793D01*
X909733Y757793D01*
X909733Y761807D01*
X909733Y759937D02*
X913747Y759937D01*
X906247Y761807D02*
X902233Y761807D01*
X906247Y761807D02*
X906247Y757793D01*
X902233Y757793D01*
X902233Y761807D01*
X902233Y759937D02*
X906247Y759937D01*
X898747Y761807D02*
X894733Y761807D01*
X898747Y761807D02*
X898747Y757793D01*
X894733Y757793D01*
X894733Y761807D01*
X894733Y759937D02*
X898747Y759937D01*
X891247Y761807D02*
X887233Y761807D01*
X891247Y761807D02*
X891247Y757793D01*
X887233Y757793D01*
X887233Y761807D01*
X887233Y759937D02*
X891247Y759937D01*
X883747Y761807D02*
X879733Y761807D01*
X883747Y761807D02*
X883747Y757793D01*
X879733Y757793D01*
X879733Y761807D01*
X879733Y759937D02*
X883747Y759937D01*
X879747Y751307D02*
X875733Y751307D01*
X879747Y751307D02*
X879747Y747293D01*
X875733Y747293D01*
X875733Y751307D01*
X875733Y749437D02*
X879747Y749437D01*
X917233Y740807D02*
X921247Y740807D01*
X921247Y736793D01*
X917233Y736793D01*
X917233Y740807D01*
X917233Y738937D02*
X921247Y738937D01*
X924733Y740807D02*
X928747Y740807D01*
X928747Y736793D01*
X924733Y736793D01*
X924733Y740807D01*
X924733Y738937D02*
X928747Y738937D01*
X921247Y761807D02*
X917233Y761807D01*
X921247Y761807D02*
X921247Y757793D01*
X917233Y757793D01*
X917233Y761807D01*
X917233Y759937D02*
X921247Y759937D01*
X924733Y761807D02*
X928747Y761807D01*
X928747Y757793D01*
X924733Y757793D01*
X924733Y761807D01*
X924733Y759937D02*
X928747Y759937D01*
D13*
X922247Y754807D02*
X886233Y754807D01*
X922247Y754807D02*
X922247Y743793D01*
X886233Y743793D01*
X886233Y754807D01*
X886233Y745936D02*
X922247Y745936D01*
X922247Y748079D02*
X886233Y748079D01*
X886233Y750222D02*
X922247Y750222D01*
X922247Y752365D02*
X886233Y752365D01*
X886233Y754508D02*
X922247Y754508D01*
D10*
X967740Y673100D03*
D14*
X802640Y685800D03*
X1005840Y685800D03*
D10*
X840740Y673100D03*
X866140Y673100D03*
X891540Y673100D03*
X916940Y673100D03*
X1201420Y673100D03*
D11*
X1042670Y666750D03*
X1283970Y781050D03*
D12*
X1142827Y740807D02*
X1138813Y740807D01*
X1142827Y740807D02*
X1142827Y736793D01*
X1138813Y736793D01*
X1138813Y740807D01*
X1138813Y738937D02*
X1142827Y738937D01*
X1146313Y740807D02*
X1150327Y740807D01*
X1150327Y736793D01*
X1146313Y736793D01*
X1146313Y740807D01*
X1146313Y738937D02*
X1150327Y738937D01*
X1153813Y740807D02*
X1157827Y740807D01*
X1157827Y736793D01*
X1153813Y736793D01*
X1153813Y740807D01*
X1153813Y738937D02*
X1157827Y738937D01*
X1161313Y740807D02*
X1165327Y740807D01*
X1165327Y736793D01*
X1161313Y736793D01*
X1161313Y740807D01*
X1161313Y738937D02*
X1165327Y738937D01*
X1168813Y740807D02*
X1172827Y740807D01*
X1172827Y736793D01*
X1168813Y736793D01*
X1168813Y740807D01*
X1168813Y738937D02*
X1172827Y738937D01*
X1187813Y747293D02*
X1191827Y747293D01*
X1187813Y747293D02*
X1187813Y751307D01*
X1191827Y751307D01*
X1191827Y747293D01*
X1191827Y749437D02*
X1187813Y749437D01*
X1172827Y761807D02*
X1168813Y761807D01*
X1172827Y761807D02*
X1172827Y757793D01*
X1168813Y757793D01*
X1168813Y761807D01*
X1168813Y759937D02*
X1172827Y759937D01*
X1165327Y761807D02*
X1161313Y761807D01*
X1165327Y761807D02*
X1165327Y757793D01*
X1161313Y757793D01*
X1161313Y761807D01*
X1161313Y759937D02*
X1165327Y759937D01*
X1157827Y761807D02*
X1153813Y761807D01*
X1157827Y761807D02*
X1157827Y757793D01*
X1153813Y757793D01*
X1153813Y761807D01*
X1153813Y759937D02*
X1157827Y759937D01*
X1150327Y761807D02*
X1146313Y761807D01*
X1150327Y761807D02*
X1150327Y757793D01*
X1146313Y757793D01*
X1146313Y761807D01*
X1146313Y759937D02*
X1150327Y759937D01*
X1142827Y761807D02*
X1138813Y761807D01*
X1142827Y761807D02*
X1142827Y757793D01*
X1138813Y757793D01*
X1138813Y761807D01*
X1138813Y759937D02*
X1142827Y759937D01*
X1138827Y751307D02*
X1134813Y751307D01*
X1138827Y751307D02*
X1138827Y747293D01*
X1134813Y747293D01*
X1134813Y751307D01*
X1134813Y749437D02*
X1138827Y749437D01*
X1176313Y740807D02*
X1180327Y740807D01*
X1180327Y736793D01*
X1176313Y736793D01*
X1176313Y740807D01*
X1176313Y738937D02*
X1180327Y738937D01*
X1183813Y740807D02*
X1187827Y740807D01*
X1187827Y736793D01*
X1183813Y736793D01*
X1183813Y740807D01*
X1183813Y738937D02*
X1187827Y738937D01*
X1180327Y761807D02*
X1176313Y761807D01*
X1180327Y761807D02*
X1180327Y757793D01*
X1176313Y757793D01*
X1176313Y761807D01*
X1176313Y759937D02*
X1180327Y759937D01*
X1183813Y761807D02*
X1187827Y761807D01*
X1187827Y757793D01*
X1183813Y757793D01*
X1183813Y761807D01*
X1183813Y759937D02*
X1187827Y759937D01*
D13*
X1181327Y754807D02*
X1145313Y754807D01*
X1181327Y754807D02*
X1181327Y743793D01*
X1145313Y743793D01*
X1145313Y754807D01*
X1145313Y745936D02*
X1181327Y745936D01*
X1181327Y748079D02*
X1145313Y748079D01*
X1145313Y750222D02*
X1181327Y750222D01*
X1181327Y752365D02*
X1145313Y752365D01*
X1145313Y754508D02*
X1181327Y754508D01*
D10*
X1226820Y673100D03*
D14*
X1061720Y685800D03*
X1264920Y685800D03*
D10*
X1099820Y673100D03*
X1125220Y673100D03*
X1150620Y673100D03*
X1176020Y673100D03*
X1460500Y673100D03*
D11*
X1301750Y666750D03*
X1543050Y781050D03*
D12*
X1401907Y740807D02*
X1397893Y740807D01*
X1401907Y740807D02*
X1401907Y736793D01*
X1397893Y736793D01*
X1397893Y740807D01*
X1397893Y738937D02*
X1401907Y738937D01*
X1405393Y740807D02*
X1409407Y740807D01*
X1409407Y736793D01*
X1405393Y736793D01*
X1405393Y740807D01*
X1405393Y738937D02*
X1409407Y738937D01*
X1412893Y740807D02*
X1416907Y740807D01*
X1416907Y736793D01*
X1412893Y736793D01*
X1412893Y740807D01*
X1412893Y738937D02*
X1416907Y738937D01*
X1420393Y740807D02*
X1424407Y740807D01*
X1424407Y736793D01*
X1420393Y736793D01*
X1420393Y740807D01*
X1420393Y738937D02*
X1424407Y738937D01*
X1427893Y740807D02*
X1431907Y740807D01*
X1431907Y736793D01*
X1427893Y736793D01*
X1427893Y740807D01*
X1427893Y738937D02*
X1431907Y738937D01*
X1446893Y747293D02*
X1450907Y747293D01*
X1446893Y747293D02*
X1446893Y751307D01*
X1450907Y751307D01*
X1450907Y747293D01*
X1450907Y749437D02*
X1446893Y749437D01*
X1431907Y761807D02*
X1427893Y761807D01*
X1431907Y761807D02*
X1431907Y757793D01*
X1427893Y757793D01*
X1427893Y761807D01*
X1427893Y759937D02*
X1431907Y759937D01*
X1424407Y761807D02*
X1420393Y761807D01*
X1424407Y761807D02*
X1424407Y757793D01*
X1420393Y757793D01*
X1420393Y761807D01*
X1420393Y759937D02*
X1424407Y759937D01*
X1416907Y761807D02*
X1412893Y761807D01*
X1416907Y761807D02*
X1416907Y757793D01*
X1412893Y757793D01*
X1412893Y761807D01*
X1412893Y759937D02*
X1416907Y759937D01*
X1409407Y761807D02*
X1405393Y761807D01*
X1409407Y761807D02*
X1409407Y757793D01*
X1405393Y757793D01*
X1405393Y761807D01*
X1405393Y759937D02*
X1409407Y759937D01*
X1401907Y761807D02*
X1397893Y761807D01*
X1401907Y761807D02*
X1401907Y757793D01*
X1397893Y757793D01*
X1397893Y761807D01*
X1397893Y759937D02*
X1401907Y759937D01*
X1397907Y751307D02*
X1393893Y751307D01*
X1397907Y751307D02*
X1397907Y747293D01*
X1393893Y747293D01*
X1393893Y751307D01*
X1393893Y749437D02*
X1397907Y749437D01*
X1435393Y740807D02*
X1439407Y740807D01*
X1439407Y736793D01*
X1435393Y736793D01*
X1435393Y740807D01*
X1435393Y738937D02*
X1439407Y738937D01*
X1442893Y740807D02*
X1446907Y740807D01*
X1446907Y736793D01*
X1442893Y736793D01*
X1442893Y740807D01*
X1442893Y738937D02*
X1446907Y738937D01*
X1439407Y761807D02*
X1435393Y761807D01*
X1439407Y761807D02*
X1439407Y757793D01*
X1435393Y757793D01*
X1435393Y761807D01*
X1435393Y759937D02*
X1439407Y759937D01*
X1442893Y761807D02*
X1446907Y761807D01*
X1446907Y757793D01*
X1442893Y757793D01*
X1442893Y761807D01*
X1442893Y759937D02*
X1446907Y759937D01*
D13*
X1440407Y754807D02*
X1404393Y754807D01*
X1440407Y754807D02*
X1440407Y743793D01*
X1404393Y743793D01*
X1404393Y754807D01*
X1404393Y745936D02*
X1440407Y745936D01*
X1440407Y748079D02*
X1404393Y748079D01*
X1404393Y750222D02*
X1440407Y750222D01*
X1440407Y752365D02*
X1404393Y752365D01*
X1404393Y754508D02*
X1440407Y754508D01*
D10*
X1485900Y673100D03*
D14*
X1320800Y685800D03*
X1524000Y685800D03*
D10*
X1358900Y673100D03*
X1384300Y673100D03*
X1409700Y673100D03*
X1435100Y673100D03*
X165100Y805180D03*
D11*
X6350Y798830D03*
X247650Y913130D03*
D12*
X106507Y872887D02*
X102493Y872887D01*
X106507Y872887D02*
X106507Y868873D01*
X102493Y868873D01*
X102493Y872887D01*
X102493Y871017D02*
X106507Y871017D01*
X109993Y872887D02*
X114007Y872887D01*
X114007Y868873D01*
X109993Y868873D01*
X109993Y872887D01*
X109993Y871017D02*
X114007Y871017D01*
X117493Y872887D02*
X121507Y872887D01*
X121507Y868873D01*
X117493Y868873D01*
X117493Y872887D01*
X117493Y871017D02*
X121507Y871017D01*
X124993Y872887D02*
X129007Y872887D01*
X129007Y868873D01*
X124993Y868873D01*
X124993Y872887D01*
X124993Y871017D02*
X129007Y871017D01*
X132493Y872887D02*
X136507Y872887D01*
X136507Y868873D01*
X132493Y868873D01*
X132493Y872887D01*
X132493Y871017D02*
X136507Y871017D01*
X151493Y879373D02*
X155507Y879373D01*
X151493Y879373D02*
X151493Y883387D01*
X155507Y883387D01*
X155507Y879373D01*
X155507Y881517D02*
X151493Y881517D01*
X136507Y893887D02*
X132493Y893887D01*
X136507Y893887D02*
X136507Y889873D01*
X132493Y889873D01*
X132493Y893887D01*
X132493Y892017D02*
X136507Y892017D01*
X129007Y893887D02*
X124993Y893887D01*
X129007Y893887D02*
X129007Y889873D01*
X124993Y889873D01*
X124993Y893887D01*
X124993Y892017D02*
X129007Y892017D01*
X121507Y893887D02*
X117493Y893887D01*
X121507Y893887D02*
X121507Y889873D01*
X117493Y889873D01*
X117493Y893887D01*
X117493Y892017D02*
X121507Y892017D01*
X114007Y893887D02*
X109993Y893887D01*
X114007Y893887D02*
X114007Y889873D01*
X109993Y889873D01*
X109993Y893887D01*
X109993Y892017D02*
X114007Y892017D01*
X106507Y893887D02*
X102493Y893887D01*
X106507Y893887D02*
X106507Y889873D01*
X102493Y889873D01*
X102493Y893887D01*
X102493Y892017D02*
X106507Y892017D01*
X102507Y883387D02*
X98493Y883387D01*
X102507Y883387D02*
X102507Y879373D01*
X98493Y879373D01*
X98493Y883387D01*
X98493Y881517D02*
X102507Y881517D01*
X139993Y872887D02*
X144007Y872887D01*
X144007Y868873D01*
X139993Y868873D01*
X139993Y872887D01*
X139993Y871017D02*
X144007Y871017D01*
X147493Y872887D02*
X151507Y872887D01*
X151507Y868873D01*
X147493Y868873D01*
X147493Y872887D01*
X147493Y871017D02*
X151507Y871017D01*
X144007Y893887D02*
X139993Y893887D01*
X144007Y893887D02*
X144007Y889873D01*
X139993Y889873D01*
X139993Y893887D01*
X139993Y892017D02*
X144007Y892017D01*
X147493Y893887D02*
X151507Y893887D01*
X151507Y889873D01*
X147493Y889873D01*
X147493Y893887D01*
X147493Y892017D02*
X151507Y892017D01*
D13*
X145007Y886887D02*
X108993Y886887D01*
X145007Y886887D02*
X145007Y875873D01*
X108993Y875873D01*
X108993Y886887D01*
X108993Y878016D02*
X145007Y878016D01*
X145007Y880159D02*
X108993Y880159D01*
X108993Y882302D02*
X145007Y882302D01*
X145007Y884445D02*
X108993Y884445D01*
X108993Y886588D02*
X145007Y886588D01*
D10*
X190500Y805180D03*
D14*
X25400Y817880D03*
X228600Y817880D03*
D10*
X63500Y805180D03*
X88900Y805180D03*
X114300Y805180D03*
X139700Y805180D03*
X424180Y805180D03*
D11*
X265430Y798830D03*
X506730Y913130D03*
D12*
X365587Y872887D02*
X361573Y872887D01*
X365587Y872887D02*
X365587Y868873D01*
X361573Y868873D01*
X361573Y872887D01*
X361573Y871017D02*
X365587Y871017D01*
X369073Y872887D02*
X373087Y872887D01*
X373087Y868873D01*
X369073Y868873D01*
X369073Y872887D01*
X369073Y871017D02*
X373087Y871017D01*
X376573Y872887D02*
X380587Y872887D01*
X380587Y868873D01*
X376573Y868873D01*
X376573Y872887D01*
X376573Y871017D02*
X380587Y871017D01*
X384073Y872887D02*
X388087Y872887D01*
X388087Y868873D01*
X384073Y868873D01*
X384073Y872887D01*
X384073Y871017D02*
X388087Y871017D01*
X391573Y872887D02*
X395587Y872887D01*
X395587Y868873D01*
X391573Y868873D01*
X391573Y872887D01*
X391573Y871017D02*
X395587Y871017D01*
X410573Y879373D02*
X414587Y879373D01*
X410573Y879373D02*
X410573Y883387D01*
X414587Y883387D01*
X414587Y879373D01*
X414587Y881517D02*
X410573Y881517D01*
X395587Y893887D02*
X391573Y893887D01*
X395587Y893887D02*
X395587Y889873D01*
X391573Y889873D01*
X391573Y893887D01*
X391573Y892017D02*
X395587Y892017D01*
X388087Y893887D02*
X384073Y893887D01*
X388087Y893887D02*
X388087Y889873D01*
X384073Y889873D01*
X384073Y893887D01*
X384073Y892017D02*
X388087Y892017D01*
X380587Y893887D02*
X376573Y893887D01*
X380587Y893887D02*
X380587Y889873D01*
X376573Y889873D01*
X376573Y893887D01*
X376573Y892017D02*
X380587Y892017D01*
X373087Y893887D02*
X369073Y893887D01*
X373087Y893887D02*
X373087Y889873D01*
X369073Y889873D01*
X369073Y893887D01*
X369073Y892017D02*
X373087Y892017D01*
X365587Y893887D02*
X361573Y893887D01*
X365587Y893887D02*
X365587Y889873D01*
X361573Y889873D01*
X361573Y893887D01*
X361573Y892017D02*
X365587Y892017D01*
X361587Y883387D02*
X357573Y883387D01*
X361587Y883387D02*
X361587Y879373D01*
X357573Y879373D01*
X357573Y883387D01*
X357573Y881517D02*
X361587Y881517D01*
X399073Y872887D02*
X403087Y872887D01*
X403087Y868873D01*
X399073Y868873D01*
X399073Y872887D01*
X399073Y871017D02*
X403087Y871017D01*
X406573Y872887D02*
X410587Y872887D01*
X410587Y868873D01*
X406573Y868873D01*
X406573Y872887D01*
X406573Y871017D02*
X410587Y871017D01*
X403087Y893887D02*
X399073Y893887D01*
X403087Y893887D02*
X403087Y889873D01*
X399073Y889873D01*
X399073Y893887D01*
X399073Y892017D02*
X403087Y892017D01*
X406573Y893887D02*
X410587Y893887D01*
X410587Y889873D01*
X406573Y889873D01*
X406573Y893887D01*
X406573Y892017D02*
X410587Y892017D01*
D13*
X404087Y886887D02*
X368073Y886887D01*
X404087Y886887D02*
X404087Y875873D01*
X368073Y875873D01*
X368073Y886887D01*
X368073Y878016D02*
X404087Y878016D01*
X404087Y880159D02*
X368073Y880159D01*
X368073Y882302D02*
X404087Y882302D01*
X404087Y884445D02*
X368073Y884445D01*
X368073Y886588D02*
X404087Y886588D01*
D10*
X449580Y805180D03*
D14*
X284480Y817880D03*
X487680Y817880D03*
D10*
X322580Y805180D03*
X347980Y805180D03*
X373380Y805180D03*
X398780Y805180D03*
X683260Y805180D03*
D11*
X524510Y798830D03*
X765810Y913130D03*
D12*
X624667Y872887D02*
X620653Y872887D01*
X624667Y872887D02*
X624667Y868873D01*
X620653Y868873D01*
X620653Y872887D01*
X620653Y871017D02*
X624667Y871017D01*
X628153Y872887D02*
X632167Y872887D01*
X632167Y868873D01*
X628153Y868873D01*
X628153Y872887D01*
X628153Y871017D02*
X632167Y871017D01*
X635653Y872887D02*
X639667Y872887D01*
X639667Y868873D01*
X635653Y868873D01*
X635653Y872887D01*
X635653Y871017D02*
X639667Y871017D01*
X643153Y872887D02*
X647167Y872887D01*
X647167Y868873D01*
X643153Y868873D01*
X643153Y872887D01*
X643153Y871017D02*
X647167Y871017D01*
X650653Y872887D02*
X654667Y872887D01*
X654667Y868873D01*
X650653Y868873D01*
X650653Y872887D01*
X650653Y871017D02*
X654667Y871017D01*
X669653Y879373D02*
X673667Y879373D01*
X669653Y879373D02*
X669653Y883387D01*
X673667Y883387D01*
X673667Y879373D01*
X673667Y881517D02*
X669653Y881517D01*
X654667Y893887D02*
X650653Y893887D01*
X654667Y893887D02*
X654667Y889873D01*
X650653Y889873D01*
X650653Y893887D01*
X650653Y892017D02*
X654667Y892017D01*
X647167Y893887D02*
X643153Y893887D01*
X647167Y893887D02*
X647167Y889873D01*
X643153Y889873D01*
X643153Y893887D01*
X643153Y892017D02*
X647167Y892017D01*
X639667Y893887D02*
X635653Y893887D01*
X639667Y893887D02*
X639667Y889873D01*
X635653Y889873D01*
X635653Y893887D01*
X635653Y892017D02*
X639667Y892017D01*
X632167Y893887D02*
X628153Y893887D01*
X632167Y893887D02*
X632167Y889873D01*
X628153Y889873D01*
X628153Y893887D01*
X628153Y892017D02*
X632167Y892017D01*
X624667Y893887D02*
X620653Y893887D01*
X624667Y893887D02*
X624667Y889873D01*
X620653Y889873D01*
X620653Y893887D01*
X620653Y892017D02*
X624667Y892017D01*
X620667Y883387D02*
X616653Y883387D01*
X620667Y883387D02*
X620667Y879373D01*
X616653Y879373D01*
X616653Y883387D01*
X616653Y881517D02*
X620667Y881517D01*
X658153Y872887D02*
X662167Y872887D01*
X662167Y868873D01*
X658153Y868873D01*
X658153Y872887D01*
X658153Y871017D02*
X662167Y871017D01*
X665653Y872887D02*
X669667Y872887D01*
X669667Y868873D01*
X665653Y868873D01*
X665653Y872887D01*
X665653Y871017D02*
X669667Y871017D01*
X662167Y893887D02*
X658153Y893887D01*
X662167Y893887D02*
X662167Y889873D01*
X658153Y889873D01*
X658153Y893887D01*
X658153Y892017D02*
X662167Y892017D01*
X665653Y893887D02*
X669667Y893887D01*
X669667Y889873D01*
X665653Y889873D01*
X665653Y893887D01*
X665653Y892017D02*
X669667Y892017D01*
D13*
X663167Y886887D02*
X627153Y886887D01*
X663167Y886887D02*
X663167Y875873D01*
X627153Y875873D01*
X627153Y886887D01*
X627153Y878016D02*
X663167Y878016D01*
X663167Y880159D02*
X627153Y880159D01*
X627153Y882302D02*
X663167Y882302D01*
X663167Y884445D02*
X627153Y884445D01*
X627153Y886588D02*
X663167Y886588D01*
D10*
X708660Y805180D03*
D14*
X543560Y817880D03*
X746760Y817880D03*
D10*
X581660Y805180D03*
X607060Y805180D03*
X632460Y805180D03*
X657860Y805180D03*
X942340Y805180D03*
D11*
X783590Y798830D03*
X1024890Y913130D03*
D12*
X883747Y872887D02*
X879733Y872887D01*
X883747Y872887D02*
X883747Y868873D01*
X879733Y868873D01*
X879733Y872887D01*
X879733Y871017D02*
X883747Y871017D01*
X887233Y872887D02*
X891247Y872887D01*
X891247Y868873D01*
X887233Y868873D01*
X887233Y872887D01*
X887233Y871017D02*
X891247Y871017D01*
X894733Y872887D02*
X898747Y872887D01*
X898747Y868873D01*
X894733Y868873D01*
X894733Y872887D01*
X894733Y871017D02*
X898747Y871017D01*
X902233Y872887D02*
X906247Y872887D01*
X906247Y868873D01*
X902233Y868873D01*
X902233Y872887D01*
X902233Y871017D02*
X906247Y871017D01*
X909733Y872887D02*
X913747Y872887D01*
X913747Y868873D01*
X909733Y868873D01*
X909733Y872887D01*
X909733Y871017D02*
X913747Y871017D01*
X928733Y879373D02*
X932747Y879373D01*
X928733Y879373D02*
X928733Y883387D01*
X932747Y883387D01*
X932747Y879373D01*
X932747Y881517D02*
X928733Y881517D01*
X913747Y893887D02*
X909733Y893887D01*
X913747Y893887D02*
X913747Y889873D01*
X909733Y889873D01*
X909733Y893887D01*
X909733Y892017D02*
X913747Y892017D01*
X906247Y893887D02*
X902233Y893887D01*
X906247Y893887D02*
X906247Y889873D01*
X902233Y889873D01*
X902233Y893887D01*
X902233Y892017D02*
X906247Y892017D01*
X898747Y893887D02*
X894733Y893887D01*
X898747Y893887D02*
X898747Y889873D01*
X894733Y889873D01*
X894733Y893887D01*
X894733Y892017D02*
X898747Y892017D01*
X891247Y893887D02*
X887233Y893887D01*
X891247Y893887D02*
X891247Y889873D01*
X887233Y889873D01*
X887233Y893887D01*
X887233Y892017D02*
X891247Y892017D01*
X883747Y893887D02*
X879733Y893887D01*
X883747Y893887D02*
X883747Y889873D01*
X879733Y889873D01*
X879733Y893887D01*
X879733Y892017D02*
X883747Y892017D01*
X879747Y883387D02*
X875733Y883387D01*
X879747Y883387D02*
X879747Y879373D01*
X875733Y879373D01*
X875733Y883387D01*
X875733Y881517D02*
X879747Y881517D01*
X917233Y872887D02*
X921247Y872887D01*
X921247Y868873D01*
X917233Y868873D01*
X917233Y872887D01*
X917233Y871017D02*
X921247Y871017D01*
X924733Y872887D02*
X928747Y872887D01*
X928747Y868873D01*
X924733Y868873D01*
X924733Y872887D01*
X924733Y871017D02*
X928747Y871017D01*
X921247Y893887D02*
X917233Y893887D01*
X921247Y893887D02*
X921247Y889873D01*
X917233Y889873D01*
X917233Y893887D01*
X917233Y892017D02*
X921247Y892017D01*
X924733Y893887D02*
X928747Y893887D01*
X928747Y889873D01*
X924733Y889873D01*
X924733Y893887D01*
X924733Y892017D02*
X928747Y892017D01*
D13*
X922247Y886887D02*
X886233Y886887D01*
X922247Y886887D02*
X922247Y875873D01*
X886233Y875873D01*
X886233Y886887D01*
X886233Y878016D02*
X922247Y878016D01*
X922247Y880159D02*
X886233Y880159D01*
X886233Y882302D02*
X922247Y882302D01*
X922247Y884445D02*
X886233Y884445D01*
X886233Y886588D02*
X922247Y886588D01*
D10*
X967740Y805180D03*
D14*
X802640Y817880D03*
X1005840Y817880D03*
D10*
X840740Y805180D03*
X866140Y805180D03*
X891540Y805180D03*
X916940Y805180D03*
X1201420Y805180D03*
D11*
X1042670Y798830D03*
X1283970Y913130D03*
D12*
X1142827Y872887D02*
X1138813Y872887D01*
X1142827Y872887D02*
X1142827Y868873D01*
X1138813Y868873D01*
X1138813Y872887D01*
X1138813Y871017D02*
X1142827Y871017D01*
X1146313Y872887D02*
X1150327Y872887D01*
X1150327Y868873D01*
X1146313Y868873D01*
X1146313Y872887D01*
X1146313Y871017D02*
X1150327Y871017D01*
X1153813Y872887D02*
X1157827Y872887D01*
X1157827Y868873D01*
X1153813Y868873D01*
X1153813Y872887D01*
X1153813Y871017D02*
X1157827Y871017D01*
X1161313Y872887D02*
X1165327Y872887D01*
X1165327Y868873D01*
X1161313Y868873D01*
X1161313Y872887D01*
X1161313Y871017D02*
X1165327Y871017D01*
X1168813Y872887D02*
X1172827Y872887D01*
X1172827Y868873D01*
X1168813Y868873D01*
X1168813Y872887D01*
X1168813Y871017D02*
X1172827Y871017D01*
X1187813Y879373D02*
X1191827Y879373D01*
X1187813Y879373D02*
X1187813Y883387D01*
X1191827Y883387D01*
X1191827Y879373D01*
X1191827Y881517D02*
X1187813Y881517D01*
X1172827Y893887D02*
X1168813Y893887D01*
X1172827Y893887D02*
X1172827Y889873D01*
X1168813Y889873D01*
X1168813Y893887D01*
X1168813Y892017D02*
X1172827Y892017D01*
X1165327Y893887D02*
X1161313Y893887D01*
X1165327Y893887D02*
X1165327Y889873D01*
X1161313Y889873D01*
X1161313Y893887D01*
X1161313Y892017D02*
X1165327Y892017D01*
X1157827Y893887D02*
X1153813Y893887D01*
X1157827Y893887D02*
X1157827Y889873D01*
X1153813Y889873D01*
X1153813Y893887D01*
X1153813Y892017D02*
X1157827Y892017D01*
X1150327Y893887D02*
X1146313Y893887D01*
X1150327Y893887D02*
X1150327Y889873D01*
X1146313Y889873D01*
X1146313Y893887D01*
X1146313Y892017D02*
X1150327Y892017D01*
X1142827Y893887D02*
X1138813Y893887D01*
X1142827Y893887D02*
X1142827Y889873D01*
X1138813Y889873D01*
X1138813Y893887D01*
X1138813Y892017D02*
X1142827Y892017D01*
X1138827Y883387D02*
X1134813Y883387D01*
X1138827Y883387D02*
X1138827Y879373D01*
X1134813Y879373D01*
X1134813Y883387D01*
X1134813Y881517D02*
X1138827Y881517D01*
X1176313Y872887D02*
X1180327Y872887D01*
X1180327Y868873D01*
X1176313Y868873D01*
X1176313Y872887D01*
X1176313Y871017D02*
X1180327Y871017D01*
X1183813Y872887D02*
X1187827Y872887D01*
X1187827Y868873D01*
X1183813Y868873D01*
X1183813Y872887D01*
X1183813Y871017D02*
X1187827Y871017D01*
X1180327Y893887D02*
X1176313Y893887D01*
X1180327Y893887D02*
X1180327Y889873D01*
X1176313Y889873D01*
X1176313Y893887D01*
X1176313Y892017D02*
X1180327Y892017D01*
X1183813Y893887D02*
X1187827Y893887D01*
X1187827Y889873D01*
X1183813Y889873D01*
X1183813Y893887D01*
X1183813Y892017D02*
X1187827Y892017D01*
D13*
X1181327Y886887D02*
X1145313Y886887D01*
X1181327Y886887D02*
X1181327Y875873D01*
X1145313Y875873D01*
X1145313Y886887D01*
X1145313Y878016D02*
X1181327Y878016D01*
X1181327Y880159D02*
X1145313Y880159D01*
X1145313Y882302D02*
X1181327Y882302D01*
X1181327Y884445D02*
X1145313Y884445D01*
X1145313Y886588D02*
X1181327Y886588D01*
D10*
X1226820Y805180D03*
D14*
X1061720Y817880D03*
X1264920Y817880D03*
D10*
X1099820Y805180D03*
X1125220Y805180D03*
X1150620Y805180D03*
X1176020Y805180D03*
X1460500Y805180D03*
D11*
X1301750Y798830D03*
X1543050Y913130D03*
D12*
X1401907Y872887D02*
X1397893Y872887D01*
X1401907Y872887D02*
X1401907Y868873D01*
X1397893Y868873D01*
X1397893Y872887D01*
X1397893Y871017D02*
X1401907Y871017D01*
X1405393Y872887D02*
X1409407Y872887D01*
X1409407Y868873D01*
X1405393Y868873D01*
X1405393Y872887D01*
X1405393Y871017D02*
X1409407Y871017D01*
X1412893Y872887D02*
X1416907Y872887D01*
X1416907Y868873D01*
X1412893Y868873D01*
X1412893Y872887D01*
X1412893Y871017D02*
X1416907Y871017D01*
X1420393Y872887D02*
X1424407Y872887D01*
X1424407Y868873D01*
X1420393Y868873D01*
X1420393Y872887D01*
X1420393Y871017D02*
X1424407Y871017D01*
X1427893Y872887D02*
X1431907Y872887D01*
X1431907Y868873D01*
X1427893Y868873D01*
X1427893Y872887D01*
X1427893Y871017D02*
X1431907Y871017D01*
X1446893Y879373D02*
X1450907Y879373D01*
X1446893Y879373D02*
X1446893Y883387D01*
X1450907Y883387D01*
X1450907Y879373D01*
X1450907Y881517D02*
X1446893Y881517D01*
X1431907Y893887D02*
X1427893Y893887D01*
X1431907Y893887D02*
X1431907Y889873D01*
X1427893Y889873D01*
X1427893Y893887D01*
X1427893Y892017D02*
X1431907Y892017D01*
X1424407Y893887D02*
X1420393Y893887D01*
X1424407Y893887D02*
X1424407Y889873D01*
X1420393Y889873D01*
X1420393Y893887D01*
X1420393Y892017D02*
X1424407Y892017D01*
X1416907Y893887D02*
X1412893Y893887D01*
X1416907Y893887D02*
X1416907Y889873D01*
X1412893Y889873D01*
X1412893Y893887D01*
X1412893Y892017D02*
X1416907Y892017D01*
X1409407Y893887D02*
X1405393Y893887D01*
X1409407Y893887D02*
X1409407Y889873D01*
X1405393Y889873D01*
X1405393Y893887D01*
X1405393Y892017D02*
X1409407Y892017D01*
X1401907Y893887D02*
X1397893Y893887D01*
X1401907Y893887D02*
X1401907Y889873D01*
X1397893Y889873D01*
X1397893Y893887D01*
X1397893Y892017D02*
X1401907Y892017D01*
X1397907Y883387D02*
X1393893Y883387D01*
X1397907Y883387D02*
X1397907Y879373D01*
X1393893Y879373D01*
X1393893Y883387D01*
X1393893Y881517D02*
X1397907Y881517D01*
X1435393Y872887D02*
X1439407Y872887D01*
X1439407Y868873D01*
X1435393Y868873D01*
X1435393Y872887D01*
X1435393Y871017D02*
X1439407Y871017D01*
X1442893Y872887D02*
X1446907Y872887D01*
X1446907Y868873D01*
X1442893Y868873D01*
X1442893Y872887D01*
X1442893Y871017D02*
X1446907Y871017D01*
X1439407Y893887D02*
X1435393Y893887D01*
X1439407Y893887D02*
X1439407Y889873D01*
X1435393Y889873D01*
X1435393Y893887D01*
X1435393Y892017D02*
X1439407Y892017D01*
X1442893Y893887D02*
X1446907Y893887D01*
X1446907Y889873D01*
X1442893Y889873D01*
X1442893Y893887D01*
X1442893Y892017D02*
X1446907Y892017D01*
D13*
X1440407Y886887D02*
X1404393Y886887D01*
X1440407Y886887D02*
X1440407Y875873D01*
X1404393Y875873D01*
X1404393Y886887D01*
X1404393Y878016D02*
X1440407Y878016D01*
X1440407Y880159D02*
X1404393Y880159D01*
X1404393Y882302D02*
X1440407Y882302D01*
X1440407Y884445D02*
X1404393Y884445D01*
X1404393Y886588D02*
X1440407Y886588D01*
D10*
X1485900Y805180D03*
D14*
X1320800Y817880D03*
X1524000Y817880D03*
D10*
X1358900Y805180D03*
X1384300Y805180D03*
X1409700Y805180D03*
X1435100Y805180D03*
X165100Y937260D03*
D11*
X6350Y930910D03*
X247650Y1045210D03*
D12*
X106507Y1004967D02*
X102493Y1004967D01*
X106507Y1004967D02*
X106507Y1000953D01*
X102493Y1000953D01*
X102493Y1004967D01*
X102493Y1003097D02*
X106507Y1003097D01*
X109993Y1004967D02*
X114007Y1004967D01*
X114007Y1000953D01*
X109993Y1000953D01*
X109993Y1004967D01*
X109993Y1003097D02*
X114007Y1003097D01*
X117493Y1004967D02*
X121507Y1004967D01*
X121507Y1000953D01*
X117493Y1000953D01*
X117493Y1004967D01*
X117493Y1003097D02*
X121507Y1003097D01*
X124993Y1004967D02*
X129007Y1004967D01*
X129007Y1000953D01*
X124993Y1000953D01*
X124993Y1004967D01*
X124993Y1003097D02*
X129007Y1003097D01*
X132493Y1004967D02*
X136507Y1004967D01*
X136507Y1000953D01*
X132493Y1000953D01*
X132493Y1004967D01*
X132493Y1003097D02*
X136507Y1003097D01*
X151493Y1011453D02*
X155507Y1011453D01*
X151493Y1011453D02*
X151493Y1015467D01*
X155507Y1015467D01*
X155507Y1011453D01*
X155507Y1013597D02*
X151493Y1013597D01*
X136507Y1025967D02*
X132493Y1025967D01*
X136507Y1025967D02*
X136507Y1021953D01*
X132493Y1021953D01*
X132493Y1025967D01*
X132493Y1024097D02*
X136507Y1024097D01*
X129007Y1025967D02*
X124993Y1025967D01*
X129007Y1025967D02*
X129007Y1021953D01*
X124993Y1021953D01*
X124993Y1025967D01*
X124993Y1024097D02*
X129007Y1024097D01*
X121507Y1025967D02*
X117493Y1025967D01*
X121507Y1025967D02*
X121507Y1021953D01*
X117493Y1021953D01*
X117493Y1025967D01*
X117493Y1024097D02*
X121507Y1024097D01*
X114007Y1025967D02*
X109993Y1025967D01*
X114007Y1025967D02*
X114007Y1021953D01*
X109993Y1021953D01*
X109993Y1025967D01*
X109993Y1024097D02*
X114007Y1024097D01*
X106507Y1025967D02*
X102493Y1025967D01*
X106507Y1025967D02*
X106507Y1021953D01*
X102493Y1021953D01*
X102493Y1025967D01*
X102493Y1024097D02*
X106507Y1024097D01*
X102507Y1015467D02*
X98493Y1015467D01*
X102507Y1015467D02*
X102507Y1011453D01*
X98493Y1011453D01*
X98493Y1015467D01*
X98493Y1013597D02*
X102507Y1013597D01*
X139993Y1004967D02*
X144007Y1004967D01*
X144007Y1000953D01*
X139993Y1000953D01*
X139993Y1004967D01*
X139993Y1003097D02*
X144007Y1003097D01*
X147493Y1004967D02*
X151507Y1004967D01*
X151507Y1000953D01*
X147493Y1000953D01*
X147493Y1004967D01*
X147493Y1003097D02*
X151507Y1003097D01*
X144007Y1025967D02*
X139993Y1025967D01*
X144007Y1025967D02*
X144007Y1021953D01*
X139993Y1021953D01*
X139993Y1025967D01*
X139993Y1024097D02*
X144007Y1024097D01*
X147493Y1025967D02*
X151507Y1025967D01*
X151507Y1021953D01*
X147493Y1021953D01*
X147493Y1025967D01*
X147493Y1024097D02*
X151507Y1024097D01*
D13*
X145007Y1018967D02*
X108993Y1018967D01*
X145007Y1018967D02*
X145007Y1007953D01*
X108993Y1007953D01*
X108993Y1018967D01*
X108993Y1010096D02*
X145007Y1010096D01*
X145007Y1012239D02*
X108993Y1012239D01*
X108993Y1014382D02*
X145007Y1014382D01*
X145007Y1016525D02*
X108993Y1016525D01*
X108993Y1018668D02*
X145007Y1018668D01*
D10*
X190500Y937260D03*
D14*
X25400Y949960D03*
X228600Y949960D03*
D10*
X63500Y937260D03*
X88900Y937260D03*
X114300Y937260D03*
X139700Y937260D03*
X424180Y937260D03*
D11*
X265430Y930910D03*
X506730Y1045210D03*
D12*
X365587Y1004967D02*
X361573Y1004967D01*
X365587Y1004967D02*
X365587Y1000953D01*
X361573Y1000953D01*
X361573Y1004967D01*
X361573Y1003097D02*
X365587Y1003097D01*
X369073Y1004967D02*
X373087Y1004967D01*
X373087Y1000953D01*
X369073Y1000953D01*
X369073Y1004967D01*
X369073Y1003097D02*
X373087Y1003097D01*
X376573Y1004967D02*
X380587Y1004967D01*
X380587Y1000953D01*
X376573Y1000953D01*
X376573Y1004967D01*
X376573Y1003097D02*
X380587Y1003097D01*
X384073Y1004967D02*
X388087Y1004967D01*
X388087Y1000953D01*
X384073Y1000953D01*
X384073Y1004967D01*
X384073Y1003097D02*
X388087Y1003097D01*
X391573Y1004967D02*
X395587Y1004967D01*
X395587Y1000953D01*
X391573Y1000953D01*
X391573Y1004967D01*
X391573Y1003097D02*
X395587Y1003097D01*
X410573Y1011453D02*
X414587Y1011453D01*
X410573Y1011453D02*
X410573Y1015467D01*
X414587Y1015467D01*
X414587Y1011453D01*
X414587Y1013597D02*
X410573Y1013597D01*
X395587Y1025967D02*
X391573Y1025967D01*
X395587Y1025967D02*
X395587Y1021953D01*
X391573Y1021953D01*
X391573Y1025967D01*
X391573Y1024097D02*
X395587Y1024097D01*
X388087Y1025967D02*
X384073Y1025967D01*
X388087Y1025967D02*
X388087Y1021953D01*
X384073Y1021953D01*
X384073Y1025967D01*
X384073Y1024097D02*
X388087Y1024097D01*
X380587Y1025967D02*
X376573Y1025967D01*
X380587Y1025967D02*
X380587Y1021953D01*
X376573Y1021953D01*
X376573Y1025967D01*
X376573Y1024097D02*
X380587Y1024097D01*
X373087Y1025967D02*
X369073Y1025967D01*
X373087Y1025967D02*
X373087Y1021953D01*
X369073Y1021953D01*
X369073Y1025967D01*
X369073Y1024097D02*
X373087Y1024097D01*
X365587Y1025967D02*
X361573Y1025967D01*
X365587Y1025967D02*
X365587Y1021953D01*
X361573Y1021953D01*
X361573Y1025967D01*
X361573Y1024097D02*
X365587Y1024097D01*
X361587Y1015467D02*
X357573Y1015467D01*
X361587Y1015467D02*
X361587Y1011453D01*
X357573Y1011453D01*
X357573Y1015467D01*
X357573Y1013597D02*
X361587Y1013597D01*
X399073Y1004967D02*
X403087Y1004967D01*
X403087Y1000953D01*
X399073Y1000953D01*
X399073Y1004967D01*
X399073Y1003097D02*
X403087Y1003097D01*
X406573Y1004967D02*
X410587Y1004967D01*
X410587Y1000953D01*
X406573Y1000953D01*
X406573Y1004967D01*
X406573Y1003097D02*
X410587Y1003097D01*
X403087Y1025967D02*
X399073Y1025967D01*
X403087Y1025967D02*
X403087Y1021953D01*
X399073Y1021953D01*
X399073Y1025967D01*
X399073Y1024097D02*
X403087Y1024097D01*
X406573Y1025967D02*
X410587Y1025967D01*
X410587Y1021953D01*
X406573Y1021953D01*
X406573Y1025967D01*
X406573Y1024097D02*
X410587Y1024097D01*
D13*
X404087Y1018967D02*
X368073Y1018967D01*
X404087Y1018967D02*
X404087Y1007953D01*
X368073Y1007953D01*
X368073Y1018967D01*
X368073Y1010096D02*
X404087Y1010096D01*
X404087Y1012239D02*
X368073Y1012239D01*
X368073Y1014382D02*
X404087Y1014382D01*
X404087Y1016525D02*
X368073Y1016525D01*
X368073Y1018668D02*
X404087Y1018668D01*
D10*
X449580Y937260D03*
D14*
X284480Y949960D03*
X487680Y949960D03*
D10*
X322580Y937260D03*
X347980Y937260D03*
X373380Y937260D03*
X398780Y937260D03*
X683260Y937260D03*
D11*
X524510Y930910D03*
X765810Y1045210D03*
D12*
X624667Y1004967D02*
X620653Y1004967D01*
X624667Y1004967D02*
X624667Y1000953D01*
X620653Y1000953D01*
X620653Y1004967D01*
X620653Y1003097D02*
X624667Y1003097D01*
X628153Y1004967D02*
X632167Y1004967D01*
X632167Y1000953D01*
X628153Y1000953D01*
X628153Y1004967D01*
X628153Y1003097D02*
X632167Y1003097D01*
X635653Y1004967D02*
X639667Y1004967D01*
X639667Y1000953D01*
X635653Y1000953D01*
X635653Y1004967D01*
X635653Y1003097D02*
X639667Y1003097D01*
X643153Y1004967D02*
X647167Y1004967D01*
X647167Y1000953D01*
X643153Y1000953D01*
X643153Y1004967D01*
X643153Y1003097D02*
X647167Y1003097D01*
X650653Y1004967D02*
X654667Y1004967D01*
X654667Y1000953D01*
X650653Y1000953D01*
X650653Y1004967D01*
X650653Y1003097D02*
X654667Y1003097D01*
X669653Y1011453D02*
X673667Y1011453D01*
X669653Y1011453D02*
X669653Y1015467D01*
X673667Y1015467D01*
X673667Y1011453D01*
X673667Y1013597D02*
X669653Y1013597D01*
X654667Y1025967D02*
X650653Y1025967D01*
X654667Y1025967D02*
X654667Y1021953D01*
X650653Y1021953D01*
X650653Y1025967D01*
X650653Y1024097D02*
X654667Y1024097D01*
X647167Y1025967D02*
X643153Y1025967D01*
X647167Y1025967D02*
X647167Y1021953D01*
X643153Y1021953D01*
X643153Y1025967D01*
X643153Y1024097D02*
X647167Y1024097D01*
X639667Y1025967D02*
X635653Y1025967D01*
X639667Y1025967D02*
X639667Y1021953D01*
X635653Y1021953D01*
X635653Y1025967D01*
X635653Y1024097D02*
X639667Y1024097D01*
X632167Y1025967D02*
X628153Y1025967D01*
X632167Y1025967D02*
X632167Y1021953D01*
X628153Y1021953D01*
X628153Y1025967D01*
X628153Y1024097D02*
X632167Y1024097D01*
X624667Y1025967D02*
X620653Y1025967D01*
X624667Y1025967D02*
X624667Y1021953D01*
X620653Y1021953D01*
X620653Y1025967D01*
X620653Y1024097D02*
X624667Y1024097D01*
X620667Y1015467D02*
X616653Y1015467D01*
X620667Y1015467D02*
X620667Y1011453D01*
X616653Y1011453D01*
X616653Y1015467D01*
X616653Y1013597D02*
X620667Y1013597D01*
X658153Y1004967D02*
X662167Y1004967D01*
X662167Y1000953D01*
X658153Y1000953D01*
X658153Y1004967D01*
X658153Y1003097D02*
X662167Y1003097D01*
X665653Y1004967D02*
X669667Y1004967D01*
X669667Y1000953D01*
X665653Y1000953D01*
X665653Y1004967D01*
X665653Y1003097D02*
X669667Y1003097D01*
X662167Y1025967D02*
X658153Y1025967D01*
X662167Y1025967D02*
X662167Y1021953D01*
X658153Y1021953D01*
X658153Y1025967D01*
X658153Y1024097D02*
X662167Y1024097D01*
X665653Y1025967D02*
X669667Y1025967D01*
X669667Y1021953D01*
X665653Y1021953D01*
X665653Y1025967D01*
X665653Y1024097D02*
X669667Y1024097D01*
D13*
X663167Y1018967D02*
X627153Y1018967D01*
X663167Y1018967D02*
X663167Y1007953D01*
X627153Y1007953D01*
X627153Y1018967D01*
X627153Y1010096D02*
X663167Y1010096D01*
X663167Y1012239D02*
X627153Y1012239D01*
X627153Y1014382D02*
X663167Y1014382D01*
X663167Y1016525D02*
X627153Y1016525D01*
X627153Y1018668D02*
X663167Y1018668D01*
D10*
X708660Y937260D03*
D14*
X543560Y949960D03*
X746760Y949960D03*
D10*
X581660Y937260D03*
X607060Y937260D03*
X632460Y937260D03*
X657860Y937260D03*
X942340Y937260D03*
D11*
X783590Y930910D03*
X1024890Y1045210D03*
D12*
X883747Y1004967D02*
X879733Y1004967D01*
X883747Y1004967D02*
X883747Y1000953D01*
X879733Y1000953D01*
X879733Y1004967D01*
X879733Y1003097D02*
X883747Y1003097D01*
X887233Y1004967D02*
X891247Y1004967D01*
X891247Y1000953D01*
X887233Y1000953D01*
X887233Y1004967D01*
X887233Y1003097D02*
X891247Y1003097D01*
X894733Y1004967D02*
X898747Y1004967D01*
X898747Y1000953D01*
X894733Y1000953D01*
X894733Y1004967D01*
X894733Y1003097D02*
X898747Y1003097D01*
X902233Y1004967D02*
X906247Y1004967D01*
X906247Y1000953D01*
X902233Y1000953D01*
X902233Y1004967D01*
X902233Y1003097D02*
X906247Y1003097D01*
X909733Y1004967D02*
X913747Y1004967D01*
X913747Y1000953D01*
X909733Y1000953D01*
X909733Y1004967D01*
X909733Y1003097D02*
X913747Y1003097D01*
X928733Y1011453D02*
X932747Y1011453D01*
X928733Y1011453D02*
X928733Y1015467D01*
X932747Y1015467D01*
X932747Y1011453D01*
X932747Y1013597D02*
X928733Y1013597D01*
X913747Y1025967D02*
X909733Y1025967D01*
X913747Y1025967D02*
X913747Y1021953D01*
X909733Y1021953D01*
X909733Y1025967D01*
X909733Y1024097D02*
X913747Y1024097D01*
X906247Y1025967D02*
X902233Y1025967D01*
X906247Y1025967D02*
X906247Y1021953D01*
X902233Y1021953D01*
X902233Y1025967D01*
X902233Y1024097D02*
X906247Y1024097D01*
X898747Y1025967D02*
X894733Y1025967D01*
X898747Y1025967D02*
X898747Y1021953D01*
X894733Y1021953D01*
X894733Y1025967D01*
X894733Y1024097D02*
X898747Y1024097D01*
X891247Y1025967D02*
X887233Y1025967D01*
X891247Y1025967D02*
X891247Y1021953D01*
X887233Y1021953D01*
X887233Y1025967D01*
X887233Y1024097D02*
X891247Y1024097D01*
X883747Y1025967D02*
X879733Y1025967D01*
X883747Y1025967D02*
X883747Y1021953D01*
X879733Y1021953D01*
X879733Y1025967D01*
X879733Y1024097D02*
X883747Y1024097D01*
X879747Y1015467D02*
X875733Y1015467D01*
X879747Y1015467D02*
X879747Y1011453D01*
X875733Y1011453D01*
X875733Y1015467D01*
X875733Y1013597D02*
X879747Y1013597D01*
X917233Y1004967D02*
X921247Y1004967D01*
X921247Y1000953D01*
X917233Y1000953D01*
X917233Y1004967D01*
X917233Y1003097D02*
X921247Y1003097D01*
X924733Y1004967D02*
X928747Y1004967D01*
X928747Y1000953D01*
X924733Y1000953D01*
X924733Y1004967D01*
X924733Y1003097D02*
X928747Y1003097D01*
X921247Y1025967D02*
X917233Y1025967D01*
X921247Y1025967D02*
X921247Y1021953D01*
X917233Y1021953D01*
X917233Y1025967D01*
X917233Y1024097D02*
X921247Y1024097D01*
X924733Y1025967D02*
X928747Y1025967D01*
X928747Y1021953D01*
X924733Y1021953D01*
X924733Y1025967D01*
X924733Y1024097D02*
X928747Y1024097D01*
D13*
X922247Y1018967D02*
X886233Y1018967D01*
X922247Y1018967D02*
X922247Y1007953D01*
X886233Y1007953D01*
X886233Y1018967D01*
X886233Y1010096D02*
X922247Y1010096D01*
X922247Y1012239D02*
X886233Y1012239D01*
X886233Y1014382D02*
X922247Y1014382D01*
X922247Y1016525D02*
X886233Y1016525D01*
X886233Y1018668D02*
X922247Y1018668D01*
D10*
X967740Y937260D03*
D14*
X802640Y949960D03*
X1005840Y949960D03*
D10*
X840740Y937260D03*
X866140Y937260D03*
X891540Y937260D03*
X916940Y937260D03*
X1201420Y937260D03*
D11*
X1042670Y930910D03*
X1283970Y1045210D03*
D12*
X1142827Y1004967D02*
X1138813Y1004967D01*
X1142827Y1004967D02*
X1142827Y1000953D01*
X1138813Y1000953D01*
X1138813Y1004967D01*
X1138813Y1003097D02*
X1142827Y1003097D01*
X1146313Y1004967D02*
X1150327Y1004967D01*
X1150327Y1000953D01*
X1146313Y1000953D01*
X1146313Y1004967D01*
X1146313Y1003097D02*
X1150327Y1003097D01*
X1153813Y1004967D02*
X1157827Y1004967D01*
X1157827Y1000953D01*
X1153813Y1000953D01*
X1153813Y1004967D01*
X1153813Y1003097D02*
X1157827Y1003097D01*
X1161313Y1004967D02*
X1165327Y1004967D01*
X1165327Y1000953D01*
X1161313Y1000953D01*
X1161313Y1004967D01*
X1161313Y1003097D02*
X1165327Y1003097D01*
X1168813Y1004967D02*
X1172827Y1004967D01*
X1172827Y1000953D01*
X1168813Y1000953D01*
X1168813Y1004967D01*
X1168813Y1003097D02*
X1172827Y1003097D01*
X1187813Y1011453D02*
X1191827Y1011453D01*
X1187813Y1011453D02*
X1187813Y1015467D01*
X1191827Y1015467D01*
X1191827Y1011453D01*
X1191827Y1013597D02*
X1187813Y1013597D01*
X1172827Y1025967D02*
X1168813Y1025967D01*
X1172827Y1025967D02*
X1172827Y1021953D01*
X1168813Y1021953D01*
X1168813Y1025967D01*
X1168813Y1024097D02*
X1172827Y1024097D01*
X1165327Y1025967D02*
X1161313Y1025967D01*
X1165327Y1025967D02*
X1165327Y1021953D01*
X1161313Y1021953D01*
X1161313Y1025967D01*
X1161313Y1024097D02*
X1165327Y1024097D01*
X1157827Y1025967D02*
X1153813Y1025967D01*
X1157827Y1025967D02*
X1157827Y1021953D01*
X1153813Y1021953D01*
X1153813Y1025967D01*
X1153813Y1024097D02*
X1157827Y1024097D01*
X1150327Y1025967D02*
X1146313Y1025967D01*
X1150327Y1025967D02*
X1150327Y1021953D01*
X1146313Y1021953D01*
X1146313Y1025967D01*
X1146313Y1024097D02*
X1150327Y1024097D01*
X1142827Y1025967D02*
X1138813Y1025967D01*
X1142827Y1025967D02*
X1142827Y1021953D01*
X1138813Y1021953D01*
X1138813Y1025967D01*
X1138813Y1024097D02*
X1142827Y1024097D01*
X1138827Y1015467D02*
X1134813Y1015467D01*
X1138827Y1015467D02*
X1138827Y1011453D01*
X1134813Y1011453D01*
X1134813Y1015467D01*
X1134813Y1013597D02*
X1138827Y1013597D01*
X1176313Y1004967D02*
X1180327Y1004967D01*
X1180327Y1000953D01*
X1176313Y1000953D01*
X1176313Y1004967D01*
X1176313Y1003097D02*
X1180327Y1003097D01*
X1183813Y1004967D02*
X1187827Y1004967D01*
X1187827Y1000953D01*
X1183813Y1000953D01*
X1183813Y1004967D01*
X1183813Y1003097D02*
X1187827Y1003097D01*
X1180327Y1025967D02*
X1176313Y1025967D01*
X1180327Y1025967D02*
X1180327Y1021953D01*
X1176313Y1021953D01*
X1176313Y1025967D01*
X1176313Y1024097D02*
X1180327Y1024097D01*
X1183813Y1025967D02*
X1187827Y1025967D01*
X1187827Y1021953D01*
X1183813Y1021953D01*
X1183813Y1025967D01*
X1183813Y1024097D02*
X1187827Y1024097D01*
D13*
X1181327Y1018967D02*
X1145313Y1018967D01*
X1181327Y1018967D02*
X1181327Y1007953D01*
X1145313Y1007953D01*
X1145313Y1018967D01*
X1145313Y1010096D02*
X1181327Y1010096D01*
X1181327Y1012239D02*
X1145313Y1012239D01*
X1145313Y1014382D02*
X1181327Y1014382D01*
X1181327Y1016525D02*
X1145313Y1016525D01*
X1145313Y1018668D02*
X1181327Y1018668D01*
D10*
X1226820Y937260D03*
D14*
X1061720Y949960D03*
X1264920Y949960D03*
D10*
X1099820Y937260D03*
X1125220Y937260D03*
X1150620Y937260D03*
X1176020Y937260D03*
X1460500Y937260D03*
D11*
X1301750Y930910D03*
X1543050Y1045210D03*
D12*
X1401907Y1004967D02*
X1397893Y1004967D01*
X1401907Y1004967D02*
X1401907Y1000953D01*
X1397893Y1000953D01*
X1397893Y1004967D01*
X1397893Y1003097D02*
X1401907Y1003097D01*
X1405393Y1004967D02*
X1409407Y1004967D01*
X1409407Y1000953D01*
X1405393Y1000953D01*
X1405393Y1004967D01*
X1405393Y1003097D02*
X1409407Y1003097D01*
X1412893Y1004967D02*
X1416907Y1004967D01*
X1416907Y1000953D01*
X1412893Y1000953D01*
X1412893Y1004967D01*
X1412893Y1003097D02*
X1416907Y1003097D01*
X1420393Y1004967D02*
X1424407Y1004967D01*
X1424407Y1000953D01*
X1420393Y1000953D01*
X1420393Y1004967D01*
X1420393Y1003097D02*
X1424407Y1003097D01*
X1427893Y1004967D02*
X1431907Y1004967D01*
X1431907Y1000953D01*
X1427893Y1000953D01*
X1427893Y1004967D01*
X1427893Y1003097D02*
X1431907Y1003097D01*
X1446893Y1011453D02*
X1450907Y1011453D01*
X1446893Y1011453D02*
X1446893Y1015467D01*
X1450907Y1015467D01*
X1450907Y1011453D01*
X1450907Y1013597D02*
X1446893Y1013597D01*
X1431907Y1025967D02*
X1427893Y1025967D01*
X1431907Y1025967D02*
X1431907Y1021953D01*
X1427893Y1021953D01*
X1427893Y1025967D01*
X1427893Y1024097D02*
X1431907Y1024097D01*
X1424407Y1025967D02*
X1420393Y1025967D01*
X1424407Y1025967D02*
X1424407Y1021953D01*
X1420393Y1021953D01*
X1420393Y1025967D01*
X1420393Y1024097D02*
X1424407Y1024097D01*
X1416907Y1025967D02*
X1412893Y1025967D01*
X1416907Y1025967D02*
X1416907Y1021953D01*
X1412893Y1021953D01*
X1412893Y1025967D01*
X1412893Y1024097D02*
X1416907Y1024097D01*
X1409407Y1025967D02*
X1405393Y1025967D01*
X1409407Y1025967D02*
X1409407Y1021953D01*
X1405393Y1021953D01*
X1405393Y1025967D01*
X1405393Y1024097D02*
X1409407Y1024097D01*
X1401907Y1025967D02*
X1397893Y1025967D01*
X1401907Y1025967D02*
X1401907Y1021953D01*
X1397893Y1021953D01*
X1397893Y1025967D01*
X1397893Y1024097D02*
X1401907Y1024097D01*
X1397907Y1015467D02*
X1393893Y1015467D01*
X1397907Y1015467D02*
X1397907Y1011453D01*
X1393893Y1011453D01*
X1393893Y1015467D01*
X1393893Y1013597D02*
X1397907Y1013597D01*
X1435393Y1004967D02*
X1439407Y1004967D01*
X1439407Y1000953D01*
X1435393Y1000953D01*
X1435393Y1004967D01*
X1435393Y1003097D02*
X1439407Y1003097D01*
X1442893Y1004967D02*
X1446907Y1004967D01*
X1446907Y1000953D01*
X1442893Y1000953D01*
X1442893Y1004967D01*
X1442893Y1003097D02*
X1446907Y1003097D01*
X1439407Y1025967D02*
X1435393Y1025967D01*
X1439407Y1025967D02*
X1439407Y1021953D01*
X1435393Y1021953D01*
X1435393Y1025967D01*
X1435393Y1024097D02*
X1439407Y1024097D01*
X1442893Y1025967D02*
X1446907Y1025967D01*
X1446907Y1021953D01*
X1442893Y1021953D01*
X1442893Y1025967D01*
X1442893Y1024097D02*
X1446907Y1024097D01*
D13*
X1440407Y1018967D02*
X1404393Y1018967D01*
X1440407Y1018967D02*
X1440407Y1007953D01*
X1404393Y1007953D01*
X1404393Y1018967D01*
X1404393Y1010096D02*
X1440407Y1010096D01*
X1440407Y1012239D02*
X1404393Y1012239D01*
X1404393Y1014382D02*
X1440407Y1014382D01*
X1440407Y1016525D02*
X1404393Y1016525D01*
X1404393Y1018668D02*
X1440407Y1018668D01*
D10*
X1485900Y937260D03*
D14*
X1320800Y949960D03*
X1524000Y949960D03*
D10*
X1358900Y937260D03*
X1384300Y937260D03*
X1409700Y937260D03*
X1435100Y937260D03*
X165100Y1069340D03*
D11*
X6350Y1062990D03*
X247650Y1177290D03*
D12*
X106507Y1137047D02*
X102493Y1137047D01*
X106507Y1137047D02*
X106507Y1133033D01*
X102493Y1133033D01*
X102493Y1137047D01*
X102493Y1135177D02*
X106507Y1135177D01*
X109993Y1137047D02*
X114007Y1137047D01*
X114007Y1133033D01*
X109993Y1133033D01*
X109993Y1137047D01*
X109993Y1135177D02*
X114007Y1135177D01*
X117493Y1137047D02*
X121507Y1137047D01*
X121507Y1133033D01*
X117493Y1133033D01*
X117493Y1137047D01*
X117493Y1135177D02*
X121507Y1135177D01*
X124993Y1137047D02*
X129007Y1137047D01*
X129007Y1133033D01*
X124993Y1133033D01*
X124993Y1137047D01*
X124993Y1135177D02*
X129007Y1135177D01*
X132493Y1137047D02*
X136507Y1137047D01*
X136507Y1133033D01*
X132493Y1133033D01*
X132493Y1137047D01*
X132493Y1135177D02*
X136507Y1135177D01*
X151493Y1143533D02*
X155507Y1143533D01*
X151493Y1143533D02*
X151493Y1147547D01*
X155507Y1147547D01*
X155507Y1143533D01*
X155507Y1145677D02*
X151493Y1145677D01*
X136507Y1158047D02*
X132493Y1158047D01*
X136507Y1158047D02*
X136507Y1154033D01*
X132493Y1154033D01*
X132493Y1158047D01*
X132493Y1156177D02*
X136507Y1156177D01*
X129007Y1158047D02*
X124993Y1158047D01*
X129007Y1158047D02*
X129007Y1154033D01*
X124993Y1154033D01*
X124993Y1158047D01*
X124993Y1156177D02*
X129007Y1156177D01*
X121507Y1158047D02*
X117493Y1158047D01*
X121507Y1158047D02*
X121507Y1154033D01*
X117493Y1154033D01*
X117493Y1158047D01*
X117493Y1156177D02*
X121507Y1156177D01*
X114007Y1158047D02*
X109993Y1158047D01*
X114007Y1158047D02*
X114007Y1154033D01*
X109993Y1154033D01*
X109993Y1158047D01*
X109993Y1156177D02*
X114007Y1156177D01*
X106507Y1158047D02*
X102493Y1158047D01*
X106507Y1158047D02*
X106507Y1154033D01*
X102493Y1154033D01*
X102493Y1158047D01*
X102493Y1156177D02*
X106507Y1156177D01*
X102507Y1147547D02*
X98493Y1147547D01*
X102507Y1147547D02*
X102507Y1143533D01*
X98493Y1143533D01*
X98493Y1147547D01*
X98493Y1145677D02*
X102507Y1145677D01*
X139993Y1137047D02*
X144007Y1137047D01*
X144007Y1133033D01*
X139993Y1133033D01*
X139993Y1137047D01*
X139993Y1135177D02*
X144007Y1135177D01*
X147493Y1137047D02*
X151507Y1137047D01*
X151507Y1133033D01*
X147493Y1133033D01*
X147493Y1137047D01*
X147493Y1135177D02*
X151507Y1135177D01*
X144007Y1158047D02*
X139993Y1158047D01*
X144007Y1158047D02*
X144007Y1154033D01*
X139993Y1154033D01*
X139993Y1158047D01*
X139993Y1156177D02*
X144007Y1156177D01*
X147493Y1158047D02*
X151507Y1158047D01*
X151507Y1154033D01*
X147493Y1154033D01*
X147493Y1158047D01*
X147493Y1156177D02*
X151507Y1156177D01*
D13*
X145007Y1151047D02*
X108993Y1151047D01*
X145007Y1151047D02*
X145007Y1140033D01*
X108993Y1140033D01*
X108993Y1151047D01*
X108993Y1142176D02*
X145007Y1142176D01*
X145007Y1144319D02*
X108993Y1144319D01*
X108993Y1146462D02*
X145007Y1146462D01*
X145007Y1148605D02*
X108993Y1148605D01*
X108993Y1150748D02*
X145007Y1150748D01*
D10*
X190500Y1069340D03*
D14*
X25400Y1082040D03*
X228600Y1082040D03*
D10*
X63500Y1069340D03*
X88900Y1069340D03*
X114300Y1069340D03*
X139700Y1069340D03*
X424180Y1069340D03*
D11*
X265430Y1062990D03*
X506730Y1177290D03*
D12*
X365587Y1137047D02*
X361573Y1137047D01*
X365587Y1137047D02*
X365587Y1133033D01*
X361573Y1133033D01*
X361573Y1137047D01*
X361573Y1135177D02*
X365587Y1135177D01*
X369073Y1137047D02*
X373087Y1137047D01*
X373087Y1133033D01*
X369073Y1133033D01*
X369073Y1137047D01*
X369073Y1135177D02*
X373087Y1135177D01*
X376573Y1137047D02*
X380587Y1137047D01*
X380587Y1133033D01*
X376573Y1133033D01*
X376573Y1137047D01*
X376573Y1135177D02*
X380587Y1135177D01*
X384073Y1137047D02*
X388087Y1137047D01*
X388087Y1133033D01*
X384073Y1133033D01*
X384073Y1137047D01*
X384073Y1135177D02*
X388087Y1135177D01*
X391573Y1137047D02*
X395587Y1137047D01*
X395587Y1133033D01*
X391573Y1133033D01*
X391573Y1137047D01*
X391573Y1135177D02*
X395587Y1135177D01*
X410573Y1143533D02*
X414587Y1143533D01*
X410573Y1143533D02*
X410573Y1147547D01*
X414587Y1147547D01*
X414587Y1143533D01*
X414587Y1145677D02*
X410573Y1145677D01*
X395587Y1158047D02*
X391573Y1158047D01*
X395587Y1158047D02*
X395587Y1154033D01*
X391573Y1154033D01*
X391573Y1158047D01*
X391573Y1156177D02*
X395587Y1156177D01*
X388087Y1158047D02*
X384073Y1158047D01*
X388087Y1158047D02*
X388087Y1154033D01*
X384073Y1154033D01*
X384073Y1158047D01*
X384073Y1156177D02*
X388087Y1156177D01*
X380587Y1158047D02*
X376573Y1158047D01*
X380587Y1158047D02*
X380587Y1154033D01*
X376573Y1154033D01*
X376573Y1158047D01*
X376573Y1156177D02*
X380587Y1156177D01*
X373087Y1158047D02*
X369073Y1158047D01*
X373087Y1158047D02*
X373087Y1154033D01*
X369073Y1154033D01*
X369073Y1158047D01*
X369073Y1156177D02*
X373087Y1156177D01*
X365587Y1158047D02*
X361573Y1158047D01*
X365587Y1158047D02*
X365587Y1154033D01*
X361573Y1154033D01*
X361573Y1158047D01*
X361573Y1156177D02*
X365587Y1156177D01*
X361587Y1147547D02*
X357573Y1147547D01*
X361587Y1147547D02*
X361587Y1143533D01*
X357573Y1143533D01*
X357573Y1147547D01*
X357573Y1145677D02*
X361587Y1145677D01*
X399073Y1137047D02*
X403087Y1137047D01*
X403087Y1133033D01*
X399073Y1133033D01*
X399073Y1137047D01*
X399073Y1135177D02*
X403087Y1135177D01*
X406573Y1137047D02*
X410587Y1137047D01*
X410587Y1133033D01*
X406573Y1133033D01*
X406573Y1137047D01*
X406573Y1135177D02*
X410587Y1135177D01*
X403087Y1158047D02*
X399073Y1158047D01*
X403087Y1158047D02*
X403087Y1154033D01*
X399073Y1154033D01*
X399073Y1158047D01*
X399073Y1156177D02*
X403087Y1156177D01*
X406573Y1158047D02*
X410587Y1158047D01*
X410587Y1154033D01*
X406573Y1154033D01*
X406573Y1158047D01*
X406573Y1156177D02*
X410587Y1156177D01*
D13*
X404087Y1151047D02*
X368073Y1151047D01*
X404087Y1151047D02*
X404087Y1140033D01*
X368073Y1140033D01*
X368073Y1151047D01*
X368073Y1142176D02*
X404087Y1142176D01*
X404087Y1144319D02*
X368073Y1144319D01*
X368073Y1146462D02*
X404087Y1146462D01*
X404087Y1148605D02*
X368073Y1148605D01*
X368073Y1150748D02*
X404087Y1150748D01*
D10*
X449580Y1069340D03*
D14*
X284480Y1082040D03*
X487680Y1082040D03*
D10*
X322580Y1069340D03*
X347980Y1069340D03*
X373380Y1069340D03*
X398780Y1069340D03*
X683260Y1069340D03*
D11*
X524510Y1062990D03*
X765810Y1177290D03*
D12*
X624667Y1137047D02*
X620653Y1137047D01*
X624667Y1137047D02*
X624667Y1133033D01*
X620653Y1133033D01*
X620653Y1137047D01*
X620653Y1135177D02*
X624667Y1135177D01*
X628153Y1137047D02*
X632167Y1137047D01*
X632167Y1133033D01*
X628153Y1133033D01*
X628153Y1137047D01*
X628153Y1135177D02*
X632167Y1135177D01*
X635653Y1137047D02*
X639667Y1137047D01*
X639667Y1133033D01*
X635653Y1133033D01*
X635653Y1137047D01*
X635653Y1135177D02*
X639667Y1135177D01*
X643153Y1137047D02*
X647167Y1137047D01*
X647167Y1133033D01*
X643153Y1133033D01*
X643153Y1137047D01*
X643153Y1135177D02*
X647167Y1135177D01*
X650653Y1137047D02*
X654667Y1137047D01*
X654667Y1133033D01*
X650653Y1133033D01*
X650653Y1137047D01*
X650653Y1135177D02*
X654667Y1135177D01*
X669653Y1143533D02*
X673667Y1143533D01*
X669653Y1143533D02*
X669653Y1147547D01*
X673667Y1147547D01*
X673667Y1143533D01*
X673667Y1145677D02*
X669653Y1145677D01*
X654667Y1158047D02*
X650653Y1158047D01*
X654667Y1158047D02*
X654667Y1154033D01*
X650653Y1154033D01*
X650653Y1158047D01*
X650653Y1156177D02*
X654667Y1156177D01*
X647167Y1158047D02*
X643153Y1158047D01*
X647167Y1158047D02*
X647167Y1154033D01*
X643153Y1154033D01*
X643153Y1158047D01*
X643153Y1156177D02*
X647167Y1156177D01*
X639667Y1158047D02*
X635653Y1158047D01*
X639667Y1158047D02*
X639667Y1154033D01*
X635653Y1154033D01*
X635653Y1158047D01*
X635653Y1156177D02*
X639667Y1156177D01*
X632167Y1158047D02*
X628153Y1158047D01*
X632167Y1158047D02*
X632167Y1154033D01*
X628153Y1154033D01*
X628153Y1158047D01*
X628153Y1156177D02*
X632167Y1156177D01*
X624667Y1158047D02*
X620653Y1158047D01*
X624667Y1158047D02*
X624667Y1154033D01*
X620653Y1154033D01*
X620653Y1158047D01*
X620653Y1156177D02*
X624667Y1156177D01*
X620667Y1147547D02*
X616653Y1147547D01*
X620667Y1147547D02*
X620667Y1143533D01*
X616653Y1143533D01*
X616653Y1147547D01*
X616653Y1145677D02*
X620667Y1145677D01*
X658153Y1137047D02*
X662167Y1137047D01*
X662167Y1133033D01*
X658153Y1133033D01*
X658153Y1137047D01*
X658153Y1135177D02*
X662167Y1135177D01*
X665653Y1137047D02*
X669667Y1137047D01*
X669667Y1133033D01*
X665653Y1133033D01*
X665653Y1137047D01*
X665653Y1135177D02*
X669667Y1135177D01*
X662167Y1158047D02*
X658153Y1158047D01*
X662167Y1158047D02*
X662167Y1154033D01*
X658153Y1154033D01*
X658153Y1158047D01*
X658153Y1156177D02*
X662167Y1156177D01*
X665653Y1158047D02*
X669667Y1158047D01*
X669667Y1154033D01*
X665653Y1154033D01*
X665653Y1158047D01*
X665653Y1156177D02*
X669667Y1156177D01*
D13*
X663167Y1151047D02*
X627153Y1151047D01*
X663167Y1151047D02*
X663167Y1140033D01*
X627153Y1140033D01*
X627153Y1151047D01*
X627153Y1142176D02*
X663167Y1142176D01*
X663167Y1144319D02*
X627153Y1144319D01*
X627153Y1146462D02*
X663167Y1146462D01*
X663167Y1148605D02*
X627153Y1148605D01*
X627153Y1150748D02*
X663167Y1150748D01*
D10*
X708660Y1069340D03*
D14*
X543560Y1082040D03*
X746760Y1082040D03*
D10*
X581660Y1069340D03*
X607060Y1069340D03*
X632460Y1069340D03*
X657860Y1069340D03*
X942340Y1069340D03*
D11*
X783590Y1062990D03*
X1024890Y1177290D03*
D12*
X883747Y1137047D02*
X879733Y1137047D01*
X883747Y1137047D02*
X883747Y1133033D01*
X879733Y1133033D01*
X879733Y1137047D01*
X879733Y1135177D02*
X883747Y1135177D01*
X887233Y1137047D02*
X891247Y1137047D01*
X891247Y1133033D01*
X887233Y1133033D01*
X887233Y1137047D01*
X887233Y1135177D02*
X891247Y1135177D01*
X894733Y1137047D02*
X898747Y1137047D01*
X898747Y1133033D01*
X894733Y1133033D01*
X894733Y1137047D01*
X894733Y1135177D02*
X898747Y1135177D01*
X902233Y1137047D02*
X906247Y1137047D01*
X906247Y1133033D01*
X902233Y1133033D01*
X902233Y1137047D01*
X902233Y1135177D02*
X906247Y1135177D01*
X909733Y1137047D02*
X913747Y1137047D01*
X913747Y1133033D01*
X909733Y1133033D01*
X909733Y1137047D01*
X909733Y1135177D02*
X913747Y1135177D01*
X928733Y1143533D02*
X932747Y1143533D01*
X928733Y1143533D02*
X928733Y1147547D01*
X932747Y1147547D01*
X932747Y1143533D01*
X932747Y1145677D02*
X928733Y1145677D01*
X913747Y1158047D02*
X909733Y1158047D01*
X913747Y1158047D02*
X913747Y1154033D01*
X909733Y1154033D01*
X909733Y1158047D01*
X909733Y1156177D02*
X913747Y1156177D01*
X906247Y1158047D02*
X902233Y1158047D01*
X906247Y1158047D02*
X906247Y1154033D01*
X902233Y1154033D01*
X902233Y1158047D01*
X902233Y1156177D02*
X906247Y1156177D01*
X898747Y1158047D02*
X894733Y1158047D01*
X898747Y1158047D02*
X898747Y1154033D01*
X894733Y1154033D01*
X894733Y1158047D01*
X894733Y1156177D02*
X898747Y1156177D01*
X891247Y1158047D02*
X887233Y1158047D01*
X891247Y1158047D02*
X891247Y1154033D01*
X887233Y1154033D01*
X887233Y1158047D01*
X887233Y1156177D02*
X891247Y1156177D01*
X883747Y1158047D02*
X879733Y1158047D01*
X883747Y1158047D02*
X883747Y1154033D01*
X879733Y1154033D01*
X879733Y1158047D01*
X879733Y1156177D02*
X883747Y1156177D01*
X879747Y1147547D02*
X875733Y1147547D01*
X879747Y1147547D02*
X879747Y1143533D01*
X875733Y1143533D01*
X875733Y1147547D01*
X875733Y1145677D02*
X879747Y1145677D01*
X917233Y1137047D02*
X921247Y1137047D01*
X921247Y1133033D01*
X917233Y1133033D01*
X917233Y1137047D01*
X917233Y1135177D02*
X921247Y1135177D01*
X924733Y1137047D02*
X928747Y1137047D01*
X928747Y1133033D01*
X924733Y1133033D01*
X924733Y1137047D01*
X924733Y1135177D02*
X928747Y1135177D01*
X921247Y1158047D02*
X917233Y1158047D01*
X921247Y1158047D02*
X921247Y1154033D01*
X917233Y1154033D01*
X917233Y1158047D01*
X917233Y1156177D02*
X921247Y1156177D01*
X924733Y1158047D02*
X928747Y1158047D01*
X928747Y1154033D01*
X924733Y1154033D01*
X924733Y1158047D01*
X924733Y1156177D02*
X928747Y1156177D01*
D13*
X922247Y1151047D02*
X886233Y1151047D01*
X922247Y1151047D02*
X922247Y1140033D01*
X886233Y1140033D01*
X886233Y1151047D01*
X886233Y1142176D02*
X922247Y1142176D01*
X922247Y1144319D02*
X886233Y1144319D01*
X886233Y1146462D02*
X922247Y1146462D01*
X922247Y1148605D02*
X886233Y1148605D01*
X886233Y1150748D02*
X922247Y1150748D01*
D10*
X967740Y1069340D03*
D14*
X802640Y1082040D03*
X1005840Y1082040D03*
D10*
X840740Y1069340D03*
X866140Y1069340D03*
X891540Y1069340D03*
X916940Y1069340D03*
X1201420Y1069340D03*
D11*
X1042670Y1062990D03*
X1283970Y1177290D03*
D12*
X1142827Y1137047D02*
X1138813Y1137047D01*
X1142827Y1137047D02*
X1142827Y1133033D01*
X1138813Y1133033D01*
X1138813Y1137047D01*
X1138813Y1135177D02*
X1142827Y1135177D01*
X1146313Y1137047D02*
X1150327Y1137047D01*
X1150327Y1133033D01*
X1146313Y1133033D01*
X1146313Y1137047D01*
X1146313Y1135177D02*
X1150327Y1135177D01*
X1153813Y1137047D02*
X1157827Y1137047D01*
X1157827Y1133033D01*
X1153813Y1133033D01*
X1153813Y1137047D01*
X1153813Y1135177D02*
X1157827Y1135177D01*
X1161313Y1137047D02*
X1165327Y1137047D01*
X1165327Y1133033D01*
X1161313Y1133033D01*
X1161313Y1137047D01*
X1161313Y1135177D02*
X1165327Y1135177D01*
X1168813Y1137047D02*
X1172827Y1137047D01*
X1172827Y1133033D01*
X1168813Y1133033D01*
X1168813Y1137047D01*
X1168813Y1135177D02*
X1172827Y1135177D01*
X1187813Y1143533D02*
X1191827Y1143533D01*
X1187813Y1143533D02*
X1187813Y1147547D01*
X1191827Y1147547D01*
X1191827Y1143533D01*
X1191827Y1145677D02*
X1187813Y1145677D01*
X1172827Y1158047D02*
X1168813Y1158047D01*
X1172827Y1158047D02*
X1172827Y1154033D01*
X1168813Y1154033D01*
X1168813Y1158047D01*
X1168813Y1156177D02*
X1172827Y1156177D01*
X1165327Y1158047D02*
X1161313Y1158047D01*
X1165327Y1158047D02*
X1165327Y1154033D01*
X1161313Y1154033D01*
X1161313Y1158047D01*
X1161313Y1156177D02*
X1165327Y1156177D01*
X1157827Y1158047D02*
X1153813Y1158047D01*
X1157827Y1158047D02*
X1157827Y1154033D01*
X1153813Y1154033D01*
X1153813Y1158047D01*
X1153813Y1156177D02*
X1157827Y1156177D01*
X1150327Y1158047D02*
X1146313Y1158047D01*
X1150327Y1158047D02*
X1150327Y1154033D01*
X1146313Y1154033D01*
X1146313Y1158047D01*
X1146313Y1156177D02*
X1150327Y1156177D01*
X1142827Y1158047D02*
X1138813Y1158047D01*
X1142827Y1158047D02*
X1142827Y1154033D01*
X1138813Y1154033D01*
X1138813Y1158047D01*
X1138813Y1156177D02*
X1142827Y1156177D01*
X1138827Y1147547D02*
X1134813Y1147547D01*
X1138827Y1147547D02*
X1138827Y1143533D01*
X1134813Y1143533D01*
X1134813Y1147547D01*
X1134813Y1145677D02*
X1138827Y1145677D01*
X1176313Y1137047D02*
X1180327Y1137047D01*
X1180327Y1133033D01*
X1176313Y1133033D01*
X1176313Y1137047D01*
X1176313Y1135177D02*
X1180327Y1135177D01*
X1183813Y1137047D02*
X1187827Y1137047D01*
X1187827Y1133033D01*
X1183813Y1133033D01*
X1183813Y1137047D01*
X1183813Y1135177D02*
X1187827Y1135177D01*
X1180327Y1158047D02*
X1176313Y1158047D01*
X1180327Y1158047D02*
X1180327Y1154033D01*
X1176313Y1154033D01*
X1176313Y1158047D01*
X1176313Y1156177D02*
X1180327Y1156177D01*
X1183813Y1158047D02*
X1187827Y1158047D01*
X1187827Y1154033D01*
X1183813Y1154033D01*
X1183813Y1158047D01*
X1183813Y1156177D02*
X1187827Y1156177D01*
D13*
X1181327Y1151047D02*
X1145313Y1151047D01*
X1181327Y1151047D02*
X1181327Y1140033D01*
X1145313Y1140033D01*
X1145313Y1151047D01*
X1145313Y1142176D02*
X1181327Y1142176D01*
X1181327Y1144319D02*
X1145313Y1144319D01*
X1145313Y1146462D02*
X1181327Y1146462D01*
X1181327Y1148605D02*
X1145313Y1148605D01*
X1145313Y1150748D02*
X1181327Y1150748D01*
D10*
X1226820Y1069340D03*
D14*
X1061720Y1082040D03*
X1264920Y1082040D03*
D10*
X1099820Y1069340D03*
X1125220Y1069340D03*
X1150620Y1069340D03*
X1176020Y1069340D03*
X1460500Y1069340D03*
D11*
X1301750Y1062990D03*
X1543050Y1177290D03*
D12*
X1401907Y1137047D02*
X1397893Y1137047D01*
X1401907Y1137047D02*
X1401907Y1133033D01*
X1397893Y1133033D01*
X1397893Y1137047D01*
X1397893Y1135177D02*
X1401907Y1135177D01*
X1405393Y1137047D02*
X1409407Y1137047D01*
X1409407Y1133033D01*
X1405393Y1133033D01*
X1405393Y1137047D01*
X1405393Y1135177D02*
X1409407Y1135177D01*
X1412893Y1137047D02*
X1416907Y1137047D01*
X1416907Y1133033D01*
X1412893Y1133033D01*
X1412893Y1137047D01*
X1412893Y1135177D02*
X1416907Y1135177D01*
X1420393Y1137047D02*
X1424407Y1137047D01*
X1424407Y1133033D01*
X1420393Y1133033D01*
X1420393Y1137047D01*
X1420393Y1135177D02*
X1424407Y1135177D01*
X1427893Y1137047D02*
X1431907Y1137047D01*
X1431907Y1133033D01*
X1427893Y1133033D01*
X1427893Y1137047D01*
X1427893Y1135177D02*
X1431907Y1135177D01*
X1446893Y1143533D02*
X1450907Y1143533D01*
X1446893Y1143533D02*
X1446893Y1147547D01*
X1450907Y1147547D01*
X1450907Y1143533D01*
X1450907Y1145677D02*
X1446893Y1145677D01*
X1431907Y1158047D02*
X1427893Y1158047D01*
X1431907Y1158047D02*
X1431907Y1154033D01*
X1427893Y1154033D01*
X1427893Y1158047D01*
X1427893Y1156177D02*
X1431907Y1156177D01*
X1424407Y1158047D02*
X1420393Y1158047D01*
X1424407Y1158047D02*
X1424407Y1154033D01*
X1420393Y1154033D01*
X1420393Y1158047D01*
X1420393Y1156177D02*
X1424407Y1156177D01*
X1416907Y1158047D02*
X1412893Y1158047D01*
X1416907Y1158047D02*
X1416907Y1154033D01*
X1412893Y1154033D01*
X1412893Y1158047D01*
X1412893Y1156177D02*
X1416907Y1156177D01*
X1409407Y1158047D02*
X1405393Y1158047D01*
X1409407Y1158047D02*
X1409407Y1154033D01*
X1405393Y1154033D01*
X1405393Y1158047D01*
X1405393Y1156177D02*
X1409407Y1156177D01*
X1401907Y1158047D02*
X1397893Y1158047D01*
X1401907Y1158047D02*
X1401907Y1154033D01*
X1397893Y1154033D01*
X1397893Y1158047D01*
X1397893Y1156177D02*
X1401907Y1156177D01*
X1397907Y1147547D02*
X1393893Y1147547D01*
X1397907Y1147547D02*
X1397907Y1143533D01*
X1393893Y1143533D01*
X1393893Y1147547D01*
X1393893Y1145677D02*
X1397907Y1145677D01*
X1435393Y1137047D02*
X1439407Y1137047D01*
X1439407Y1133033D01*
X1435393Y1133033D01*
X1435393Y1137047D01*
X1435393Y1135177D02*
X1439407Y1135177D01*
X1442893Y1137047D02*
X1446907Y1137047D01*
X1446907Y1133033D01*
X1442893Y1133033D01*
X1442893Y1137047D01*
X1442893Y1135177D02*
X1446907Y1135177D01*
X1439407Y1158047D02*
X1435393Y1158047D01*
X1439407Y1158047D02*
X1439407Y1154033D01*
X1435393Y1154033D01*
X1435393Y1158047D01*
X1435393Y1156177D02*
X1439407Y1156177D01*
X1442893Y1158047D02*
X1446907Y1158047D01*
X1446907Y1154033D01*
X1442893Y1154033D01*
X1442893Y1158047D01*
X1442893Y1156177D02*
X1446907Y1156177D01*
D13*
X1440407Y1151047D02*
X1404393Y1151047D01*
X1440407Y1151047D02*
X1440407Y1140033D01*
X1404393Y1140033D01*
X1404393Y1151047D01*
X1404393Y1142176D02*
X1440407Y1142176D01*
X1440407Y1144319D02*
X1404393Y1144319D01*
X1404393Y1146462D02*
X1440407Y1146462D01*
X1440407Y1148605D02*
X1404393Y1148605D01*
X1404393Y1150748D02*
X1440407Y1150748D01*
D10*
X1485900Y1069340D03*
D14*
X1320800Y1082040D03*
X1524000Y1082040D03*
D10*
X1358900Y1069340D03*
X1384300Y1069340D03*
X1409700Y1069340D03*
X1435100Y1069340D03*
D15*
X-26238Y1156970D03*
X1575638Y1156970D03*
D16*
X-35293Y63500D02*
X-35290Y63722D01*
X-35282Y63944D01*
X-35268Y64166D01*
X-35249Y64388D01*
X-35225Y64608D01*
X-35195Y64829D01*
X-35160Y65048D01*
X-35119Y65267D01*
X-35073Y65484D01*
X-35022Y65700D01*
X-34965Y65915D01*
X-34903Y66129D01*
X-34836Y66340D01*
X-34764Y66551D01*
X-34686Y66759D01*
X-34604Y66965D01*
X-34516Y67169D01*
X-34424Y67372D01*
X-34326Y67571D01*
X-34224Y67768D01*
X-34117Y67963D01*
X-34005Y68155D01*
X-33888Y68344D01*
X-33767Y68531D01*
X-33641Y68714D01*
X-33511Y68894D01*
X-33376Y69071D01*
X-33238Y69244D01*
X-33095Y69414D01*
X-32947Y69581D01*
X-32796Y69744D01*
X-32641Y69903D01*
X-32482Y70058D01*
X-32319Y70209D01*
X-32152Y70357D01*
X-31982Y70500D01*
X-31809Y70638D01*
X-31632Y70773D01*
X-31452Y70903D01*
X-31269Y71029D01*
X-31082Y71150D01*
X-30893Y71267D01*
X-30701Y71379D01*
X-30506Y71486D01*
X-30309Y71588D01*
X-30110Y71686D01*
X-29907Y71778D01*
X-29703Y71866D01*
X-29497Y71948D01*
X-29289Y72026D01*
X-29078Y72098D01*
X-28867Y72165D01*
X-28653Y72227D01*
X-28438Y72284D01*
X-28222Y72335D01*
X-28005Y72381D01*
X-27786Y72422D01*
X-27567Y72457D01*
X-27346Y72487D01*
X-27126Y72511D01*
X-26904Y72530D01*
X-26682Y72544D01*
X-26460Y72552D01*
X-26238Y72555D01*
X-26016Y72552D01*
X-25794Y72544D01*
X-25572Y72530D01*
X-25350Y72511D01*
X-25130Y72487D01*
X-24909Y72457D01*
X-24690Y72422D01*
X-24471Y72381D01*
X-24254Y72335D01*
X-24038Y72284D01*
X-23823Y72227D01*
X-23609Y72165D01*
X-23398Y72098D01*
X-23187Y72026D01*
X-22979Y71948D01*
X-22773Y71866D01*
X-22569Y71778D01*
X-22366Y71686D01*
X-22167Y71588D01*
X-21970Y71486D01*
X-21775Y71379D01*
X-21583Y71267D01*
X-21394Y71150D01*
X-21207Y71029D01*
X-21024Y70903D01*
X-20844Y70773D01*
X-20667Y70638D01*
X-20494Y70500D01*
X-20324Y70357D01*
X-20157Y70209D01*
X-19994Y70058D01*
X-19835Y69903D01*
X-19680Y69744D01*
X-19529Y69581D01*
X-19381Y69414D01*
X-19238Y69244D01*
X-19100Y69071D01*
X-18965Y68894D01*
X-18835Y68714D01*
X-18709Y68531D01*
X-18588Y68344D01*
X-18471Y68155D01*
X-18359Y67963D01*
X-18252Y67768D01*
X-18150Y67571D01*
X-18052Y67372D01*
X-17960Y67169D01*
X-17872Y66965D01*
X-17790Y66759D01*
X-17712Y66551D01*
X-17640Y66340D01*
X-17573Y66129D01*
X-17511Y65915D01*
X-17454Y65700D01*
X-17403Y65484D01*
X-17357Y65267D01*
X-17316Y65048D01*
X-17281Y64829D01*
X-17251Y64608D01*
X-17227Y64388D01*
X-17208Y64166D01*
X-17194Y63944D01*
X-17186Y63722D01*
X-17183Y63500D01*
X-17186Y63278D01*
X-17194Y63056D01*
X-17208Y62834D01*
X-17227Y62612D01*
X-17251Y62392D01*
X-17281Y62171D01*
X-17316Y61952D01*
X-17357Y61733D01*
X-17403Y61516D01*
X-17454Y61300D01*
X-17511Y61085D01*
X-17573Y60871D01*
X-17640Y60660D01*
X-17712Y60449D01*
X-17790Y60241D01*
X-17872Y60035D01*
X-17960Y59831D01*
X-18052Y59628D01*
X-18150Y59429D01*
X-18252Y59232D01*
X-18359Y59037D01*
X-18471Y58845D01*
X-18588Y58656D01*
X-18709Y58469D01*
X-18835Y58286D01*
X-18965Y58106D01*
X-19100Y57929D01*
X-19238Y57756D01*
X-19381Y57586D01*
X-19529Y57419D01*
X-19680Y57256D01*
X-19835Y57097D01*
X-19994Y56942D01*
X-20157Y56791D01*
X-20324Y56643D01*
X-20494Y56500D01*
X-20667Y56362D01*
X-20844Y56227D01*
X-21024Y56097D01*
X-21207Y55971D01*
X-21394Y55850D01*
X-21583Y55733D01*
X-21775Y55621D01*
X-21970Y55514D01*
X-22167Y55412D01*
X-22366Y55314D01*
X-22569Y55222D01*
X-22773Y55134D01*
X-22979Y55052D01*
X-23187Y54974D01*
X-23398Y54902D01*
X-23609Y54835D01*
X-23823Y54773D01*
X-24038Y54716D01*
X-24254Y54665D01*
X-24471Y54619D01*
X-24690Y54578D01*
X-24909Y54543D01*
X-25130Y54513D01*
X-25350Y54489D01*
X-25572Y54470D01*
X-25794Y54456D01*
X-26016Y54448D01*
X-26238Y54445D01*
X-26460Y54448D01*
X-26682Y54456D01*
X-26904Y54470D01*
X-27126Y54489D01*
X-27346Y54513D01*
X-27567Y54543D01*
X-27786Y54578D01*
X-28005Y54619D01*
X-28222Y54665D01*
X-28438Y54716D01*
X-28653Y54773D01*
X-28867Y54835D01*
X-29078Y54902D01*
X-29289Y54974D01*
X-29497Y55052D01*
X-29703Y55134D01*
X-29907Y55222D01*
X-30110Y55314D01*
X-30309Y55412D01*
X-30506Y55514D01*
X-30701Y55621D01*
X-30893Y55733D01*
X-31082Y55850D01*
X-31269Y55971D01*
X-31452Y56097D01*
X-31632Y56227D01*
X-31809Y56362D01*
X-31982Y56500D01*
X-32152Y56643D01*
X-32319Y56791D01*
X-32482Y56942D01*
X-32641Y57097D01*
X-32796Y57256D01*
X-32947Y57419D01*
X-33095Y57586D01*
X-33238Y57756D01*
X-33376Y57929D01*
X-33511Y58106D01*
X-33641Y58286D01*
X-33767Y58469D01*
X-33888Y58656D01*
X-34005Y58845D01*
X-34117Y59037D01*
X-34224Y59232D01*
X-34326Y59429D01*
X-34424Y59628D01*
X-34516Y59831D01*
X-34604Y60035D01*
X-34686Y60241D01*
X-34764Y60449D01*
X-34836Y60660D01*
X-34903Y60871D01*
X-34965Y61085D01*
X-35022Y61300D01*
X-35073Y61516D01*
X-35119Y61733D01*
X-35160Y61952D01*
X-35195Y62171D01*
X-35225Y62392D01*
X-35249Y62612D01*
X-35268Y62834D01*
X-35282Y63056D01*
X-35290Y63278D01*
X-35293Y63500D01*
D17*
X-26238Y63500D03*
M02*
