M48
;GenerationSoftware,Autodesk,EAGLE,9.6.2*%
;CreationDate,2021-11-19T17:38:17Z*%
FMAT,2
ICI,OFF
METRIC,TZ,000.000
T3C0.305
T2C1.016
T1C3.302
%
G90
M71
T1
X54356Y55372
X152400Y108204
X2540Y2540
X22860Y2540
X28448Y2540
X48768Y2540
X54356Y2540
X74676Y2540
X80264Y2540
X100584Y2540
X106172Y2540
X126492Y2540
X132080Y2540
X152400Y2540
X2540Y15748
X22860Y15748
X28448Y15748
X48768Y15748
X54356Y15748
X74676Y15748
X80264Y15748
X100584Y15748
X106172Y15748
X126492Y15748
X132080Y15748
X152400Y15748
X2540Y28956
X22860Y28956
X28448Y28956
X48768Y28956
X54356Y28956
X74676Y28956
X80264Y28956
X100584Y28956
X106172Y28956
X126492Y28956
X132080Y28956
X152400Y28956
X2540Y42164
X22860Y42164
X28448Y42164
X48768Y42164
X54356Y42164
X74676Y42164
X80264Y42164
X100584Y42164
X106172Y42164
X126492Y42164
X132080Y42164
X152400Y42164
X2540Y55372
X22860Y55372
X28448Y55372
X48768Y55372
X132080Y108204
X74676Y55372
X80264Y55372
X100584Y55372
X106172Y55372
X126492Y55372
X132080Y55372
X152400Y55372
X2540Y68580
X22860Y68580
X28448Y68580
X48768Y68580
X54356Y68580
X74676Y68580
X80264Y68580
X100584Y68580
X106172Y68580
X126492Y68580
X132080Y68580
X152400Y68580
X2540Y81788
X22860Y81788
X28448Y81788
X48768Y81788
X54356Y81788
X74676Y81788
X80264Y81788
X100584Y81788
X106172Y81788
X126492Y81788
X132080Y81788
X152400Y81788
X2540Y94996
X22860Y94996
X28448Y94996
X48768Y94996
X54356Y94996
X74676Y94996
X80264Y94996
X100584Y94996
X106172Y94996
X126492Y94996
X132080Y94996
X152400Y94996
X2540Y108204
X22860Y108204
X28448Y108204
X48768Y108204
X54356Y108204
X74676Y108204
X80264Y108204
X100584Y108204
X106172Y108204
X126492Y108204
T2
X65786Y14478
X143510Y106934
X16510Y1270
X19050Y1270
X6350Y1270
X8890Y1270
X11430Y1270
X13970Y1270
X42418Y1270
X44958Y1270
X32258Y1270
X34798Y1270
X37338Y1270
X39878Y1270
X68326Y1270
X70866Y1270
X58166Y1270
X60706Y1270
X63246Y1270
X65786Y1270
X94234Y1270
X96774Y1270
X84074Y1270
X86614Y1270
X89154Y1270
X91694Y1270
X120142Y1270
X122682Y1270
X109982Y1270
X112522Y1270
X115062Y1270
X117602Y1270
X146050Y1270
X148590Y1270
X135890Y1270
X138430Y1270
X140970Y1270
X143510Y1270
X16510Y14478
X19050Y14478
X6350Y14478
X8890Y14478
X11430Y14478
X13970Y14478
X42418Y14478
X44958Y14478
X32258Y14478
X34798Y14478
X37338Y14478
X39878Y14478
X68326Y14478
X70866Y14478
X58166Y14478
X60706Y14478
X63246Y14478
X94234Y14478
X96774Y14478
X84074Y14478
X86614Y14478
X89154Y14478
X91694Y14478
X120142Y14478
X122682Y14478
X109982Y14478
X112522Y14478
X115062Y14478
X117602Y14478
X146050Y14478
X148590Y14478
X135890Y14478
X138430Y14478
X140970Y14478
X143510Y14478
X16510Y27686
X19050Y27686
X6350Y27686
X8890Y27686
X11430Y27686
X13970Y27686
X42418Y27686
X44958Y27686
X32258Y27686
X34798Y27686
X37338Y27686
X39878Y27686
X68326Y27686
X70866Y27686
X58166Y27686
X60706Y27686
X63246Y27686
X65786Y27686
X94234Y27686
X96774Y27686
X84074Y27686
X86614Y27686
X89154Y27686
X91694Y27686
X120142Y27686
X122682Y27686
X109982Y27686
X112522Y27686
X115062Y27686
X117602Y27686
X146050Y27686
X148590Y27686
X135890Y27686
X138430Y27686
X140970Y27686
X143510Y27686
X16510Y40894
X19050Y40894
X6350Y40894
X8890Y40894
X11430Y40894
X13970Y40894
X42418Y40894
X44958Y40894
X32258Y40894
X34798Y40894
X37338Y40894
X39878Y40894
X68326Y40894
X70866Y40894
X58166Y40894
X60706Y40894
X63246Y40894
X65786Y40894
X94234Y40894
X96774Y40894
X84074Y40894
X86614Y40894
X89154Y40894
X91694Y40894
X120142Y40894
X122682Y40894
X109982Y40894
X112522Y40894
X115062Y40894
X117602Y40894
X146050Y40894
X148590Y40894
X135890Y40894
X138430Y40894
X140970Y40894
X143510Y40894
X16510Y54102
X19050Y54102
X6350Y54102
X8890Y54102
X11430Y54102
X13970Y54102
X42418Y54102
X44958Y54102
X32258Y54102
X34798Y54102
X37338Y54102
X39878Y54102
X68326Y54102
X70866Y54102
X58166Y54102
X60706Y54102
X63246Y54102
X65786Y54102
X94234Y54102
X96774Y54102
X84074Y54102
X86614Y54102
X89154Y54102
X91694Y54102
X120142Y54102
X122682Y54102
X109982Y54102
X112522Y54102
X115062Y54102
X117602Y54102
X146050Y54102
X148590Y54102
X135890Y54102
X138430Y54102
X140970Y54102
X143510Y54102
X16510Y67310
X19050Y67310
X6350Y67310
X8890Y67310
X11430Y67310
X13970Y67310
X42418Y67310
X44958Y67310
X32258Y67310
X34798Y67310
X37338Y67310
X39878Y67310
X68326Y67310
X70866Y67310
X58166Y67310
X60706Y67310
X63246Y67310
X65786Y67310
X94234Y67310
X96774Y67310
X84074Y67310
X86614Y67310
X89154Y67310
X91694Y67310
X120142Y67310
X122682Y67310
X109982Y67310
X112522Y67310
X115062Y67310
X117602Y67310
X146050Y67310
X148590Y67310
X135890Y67310
X138430Y67310
X140970Y67310
X143510Y67310
X16510Y80518
X19050Y80518
X6350Y80518
X8890Y80518
X11430Y80518
X13970Y80518
X42418Y80518
X44958Y80518
X32258Y80518
X34798Y80518
X37338Y80518
X39878Y80518
X68326Y80518
X70866Y80518
X58166Y80518
X60706Y80518
X63246Y80518
X65786Y80518
X94234Y80518
X96774Y80518
X84074Y80518
X86614Y80518
X89154Y80518
X91694Y80518
X120142Y80518
X122682Y80518
X109982Y80518
X112522Y80518
X115062Y80518
X117602Y80518
X146050Y80518
X148590Y80518
X135890Y80518
X138430Y80518
X140970Y80518
X143510Y80518
X16510Y93726
X19050Y93726
X6350Y93726
X8890Y93726
X11430Y93726
X13970Y93726
X42418Y93726
X44958Y93726
X32258Y93726
X34798Y93726
X37338Y93726
X39878Y93726
X68326Y93726
X70866Y93726
X58166Y93726
X60706Y93726
X63246Y93726
X65786Y93726
X94234Y93726
X96774Y93726
X84074Y93726
X86614Y93726
X89154Y93726
X91694Y93726
X120142Y93726
X122682Y93726
X109982Y93726
X112522Y93726
X115062Y93726
X117602Y93726
X146050Y93726
X148590Y93726
X135890Y93726
X138430Y93726
X140970Y93726
X143510Y93726
X16510Y106934
X19050Y106934
X6350Y106934
X8890Y106934
X11430Y106934
X13970Y106934
X42418Y106934
X44958Y106934
X32258Y106934
X34798Y106934
X37338Y106934
X39878Y106934
X68326Y106934
X70866Y106934
X58166Y106934
X60706Y106934
X63246Y106934
X65786Y106934
X94234Y106934
X96774Y106934
X84074Y106934
X86614Y106934
X89154Y106934
X91694Y106934
X120142Y106934
X122682Y106934
X109982Y106934
X112522Y106934
X115062Y106934
X117602Y106934
X146050Y106934
X148590Y106934
X135890Y106934
X138430Y106934
X140970Y106934
T3
X35687Y37084
X38900Y37084
X28448Y36576
X38100Y37084
X28448Y35560
X33528Y38210
X38608Y30480
X44031Y29972
X44069Y33401
X39878Y37114
X40005Y32156
X32258Y32512
X31369Y35306
X36068Y30836
X34508Y35268
X36703Y37084
X64361Y33556
X61127Y35306
X67607Y34206
X69469Y35306
X56261Y32893
X64516Y35306
X63754Y35306
X62992Y35306
X65278Y35306
X66040Y35306
X73152Y37592
X68326Y36576
X65913Y33401
X60579Y32639
X63119Y33401
X72644Y32385
X61595Y37084
X64808Y37084
X54356Y36576
X64008Y37084
X54356Y35560
X59436Y38210
X64516Y30480
X69939Y29972
X69977Y33401
X65786Y37114
X65913Y32156
X58166Y32512
X57277Y35306
X61976Y30836
X60416Y35268
X62611Y37084
X90269Y33556
X87035Y35306
X93515Y34206
X95377Y35306
X82169Y32893
X90424Y35306
X89662Y35306
X88900Y35306
X91186Y35306
X91948Y35306
X99060Y37592
X94234Y36576
X91821Y33401
X86487Y32639
X89027Y33401
X98552Y32385
X87503Y37084
X90716Y37084
X80264Y36576
X89916Y37084
X80264Y35560
X85344Y38210
X90424Y30480
X95847Y29972
X95885Y33401
X91694Y37114
X91821Y32156
X84074Y32512
X83185Y35306
X87884Y30836
X86324Y35268
X88519Y37084
X116177Y33556
X112943Y35306
X119423Y34206
X121285Y35306
X108077Y32893
X116332Y35306
X115570Y35306
X114808Y35306
X117094Y35306
X117856Y35306
X124968Y37592
X120142Y36576
X117729Y33401
X112395Y32639
X114935Y33401
X124460Y32385
X113411Y37084
X116624Y37084
X106172Y36576
X115824Y37084
X106172Y35560
X111252Y38210
X116332Y30480
X121755Y29972
X121793Y33401
X117602Y37114
X117729Y32156
X109982Y32512
X109093Y35306
X113792Y30836
X112232Y35268
X114427Y37084
X142085Y33556
X138851Y35306
X145331Y34206
X147193Y35306
X133985Y32893
X142240Y35306
X141478Y35306
X140716Y35306
X143002Y35306
X143764Y35306
X150876Y37592
X146050Y36576
X143637Y33401
X138303Y32639
X140843Y33401
X150368Y32385
X139319Y37084
X142532Y37084
X132080Y36576
X141732Y37084
X132080Y35560
X137160Y38210
X142240Y30480
X147663Y29972
X147701Y33401
X143510Y37114
X143637Y32156
X135890Y32512
X135001Y35306
X139700Y30836
X138140Y35268
X140335Y37084
X12545Y46764
X9311Y48514
X15791Y47414
X17653Y48514
X4445Y46101
X12700Y48514
X11938Y48514
X11176Y48514
X13462Y48514
X14224Y48514
X21336Y50800
X16510Y49784
X14097Y46609
X8763Y45847
X11303Y46609
X20828Y45593
X9779Y50292
X12992Y50292
X2540Y49784
X12192Y50292
X2540Y48768
X7620Y51417
X12700Y43688
X18123Y43180
X18161Y46609
X13970Y50322
X14097Y45364
X6350Y45720
X5461Y48514
X10160Y44044
X8600Y48476
X10795Y50292
X38453Y46764
X35219Y48514
X41699Y47414
X43561Y48514
X30353Y46101
X38608Y48514
X37846Y48514
X37084Y48514
X39370Y48514
X40132Y48514
X47244Y50800
X42418Y49784
X40005Y46609
X34671Y45847
X37211Y46609
X46736Y45593
X35687Y50292
X38900Y50292
X28448Y49784
X38100Y50292
X28448Y48768
X33528Y51417
X38608Y43688
X44031Y43180
X44069Y46609
X39878Y50322
X40005Y45364
X32258Y45720
X31369Y48514
X36068Y44044
X34508Y48476
X36703Y50292
X64361Y46764
X61127Y48514
X67607Y47414
X69469Y48514
X56261Y46101
X64516Y48514
X63754Y48514
X62992Y48514
X65278Y48514
X66040Y48514
X73152Y50800
X68326Y49784
X65913Y46609
X60579Y45847
X63119Y46609
X72644Y45593
X61595Y50292
X64808Y50292
X54356Y49784
X64008Y50292
X54356Y48768
X59436Y51417
X64516Y43688
X69939Y43180
X69977Y46609
X65786Y50322
X65913Y45364
X58166Y45720
X57277Y48514
X61976Y44044
X60416Y48476
X62611Y50292
X90269Y46764
X87035Y48514
X93515Y47414
X95377Y48514
X82169Y46101
X90424Y48514
X89662Y48514
X88900Y48514
X91186Y48514
X91948Y48514
X99060Y50800
X94234Y49784
X91821Y46609
X86487Y45847
X89027Y46609
X98552Y45593
X87503Y50292
X90716Y50292
X80264Y49784
X89916Y50292
X80264Y48768
X85344Y51417
X90424Y43688
X95847Y43180
X95885Y46609
X91694Y50322
X91821Y45364
X84074Y45720
X83185Y48514
X87884Y44044
X86324Y48476
X88519Y50292
X116177Y46764
X112943Y48514
X119423Y47414
X121285Y48514
X108077Y46101
X116332Y48514
X115570Y48514
X114808Y48514
X117094Y48514
X117856Y48514
X124968Y50800
X120142Y49784
X117729Y46609
X112395Y45847
X114935Y46609
X124460Y45593
X113411Y50292
X116624Y50292
X106172Y49784
X115824Y50292
X106172Y48768
X111252Y51417
X116332Y43688
X121755Y43180
X121793Y46609
X117602Y50322
X117729Y45364
X109982Y45720
X109093Y48514
X113792Y44044
X112232Y48476
X114427Y50292
X142085Y46764
X138851Y48514
X145331Y47414
X147193Y48514
X133985Y46101
X142240Y48514
X141478Y48514
X140716Y48514
X143002Y48514
X143764Y48514
X150876Y50800
X146050Y49784
X143637Y46609
X138303Y45847
X140843Y46609
X150368Y45593
X139319Y50292
X142532Y50292
X132080Y49784
X141732Y50292
X132080Y48768
X137160Y51417
X142240Y43688
X147663Y43180
X147701Y46609
X143510Y50322
X143637Y45364
X135890Y45720
X135001Y48514
X139700Y44044
X138140Y48476
X140335Y50292
X12545Y59972
X9311Y61722
X15791Y60622
X17653Y61722
X4445Y59309
X12700Y61722
X11938Y61722
X11176Y61722
X13462Y61722
X14224Y61722
X21336Y64008
X16510Y62992
X14097Y59817
X8763Y59055
X11303Y59817
X20828Y58801
X9779Y63500
X12992Y63500
X2540Y62992
X12192Y63500
X2540Y61976
X7620Y64625
X12700Y56896
X18123Y56388
X18161Y59817
X13970Y63530
X14097Y58572
X6350Y58928
X5461Y61722
X10160Y57252
X8600Y61684
X10795Y63500
X38453Y59972
X35219Y61722
X41699Y60622
X43561Y61722
X30353Y59309
X38608Y61722
X37846Y61722
X37084Y61722
X39370Y61722
X40132Y61722
X47244Y64008
X42418Y62992
X40005Y59817
X34671Y59055
X37211Y59817
X46736Y58801
X35687Y63500
X38900Y63500
X28448Y62992
X38100Y63500
X28448Y61976
X33528Y64625
X38608Y56896
X44031Y56388
X44069Y59817
X39878Y63530
X40005Y58572
X32258Y58928
X31369Y61722
X36068Y57252
X34508Y61684
X36703Y63500
X64361Y59972
X61127Y61722
X67607Y60622
X69469Y61722
X56261Y59309
X64516Y61722
X63754Y61722
X62992Y61722
X65278Y61722
X66040Y61722
X73152Y64008
X68326Y62992
X65913Y59817
X60579Y59055
X63119Y59817
X72644Y58801
X61595Y63500
X64808Y63500
X54356Y62992
X64008Y63500
X54356Y61976
X59436Y64625
X64516Y56896
X69939Y56388
X69977Y59817
X65786Y63530
X65913Y58572
X58166Y58928
X57277Y61722
X61976Y57252
X60416Y61684
X62611Y63500
X90269Y59972
X87035Y61722
X93515Y60622
X95377Y61722
X82169Y59309
X90424Y61722
X89662Y61722
X88900Y61722
X91186Y61722
X91948Y61722
X99060Y64008
X94234Y62992
X91821Y59817
X86487Y59055
X89027Y59817
X98552Y58801
X87503Y63500
X90716Y63500
X80264Y62992
X89916Y63500
X80264Y61976
X85344Y64625
X90424Y56896
X95847Y56388
X95885Y59817
X91694Y63530
X91821Y58572
X84074Y58928
X83185Y61722
X87884Y57252
X86324Y61684
X88519Y63500
X116177Y59972
X112943Y61722
X119423Y60622
X121285Y61722
X108077Y59309
X116332Y61722
X115570Y61722
X114808Y61722
X117094Y61722
X117856Y61722
X124968Y64008
X120142Y62992
X117729Y59817
X112395Y59055
X114935Y59817
X124460Y58801
X113411Y63500
X116624Y63500
X106172Y62992
X115824Y63500
X106172Y61976
X111252Y64625
X116332Y56896
X121755Y56388
X121793Y59817
X117602Y63530
X117729Y58572
X109982Y58928
X109093Y61722
X113792Y57252
X112232Y61684
X114427Y63500
X142085Y59972
X138851Y61722
X145331Y60622
X147193Y61722
X133985Y59309
X142240Y61722
X141478Y61722
X140716Y61722
X143002Y61722
X143764Y61722
X150876Y64008
X146050Y62992
X143637Y59817
X138303Y59055
X140843Y59817
X150368Y58801
X139319Y63500
X142532Y63500
X132080Y62992
X141732Y63500
X132080Y61976
X137160Y64625
X142240Y56896
X147663Y56388
X147701Y59817
X143510Y63530
X143637Y58572
X135890Y58928
X135001Y61722
X139700Y57252
X138140Y61684
X140335Y63500
X12545Y73180
X9311Y74930
X15791Y73830
X17653Y74930
X4445Y72517
X12700Y74930
X11938Y74930
X11176Y74930
X13462Y74930
X14224Y74930
X21336Y77216
X16510Y76200
X14097Y73025
X8763Y72263
X11303Y73025
X20828Y72009
X9779Y76708
X12992Y76708
X2540Y76200
X12192Y76708
X2540Y75184
X7620Y77834
X12700Y70104
X18123Y69596
X18161Y73025
X13970Y76738
X14097Y71780
X6350Y72136
X5461Y74930
X10160Y70460
X8600Y74892
X10795Y76708
X38453Y73180
X35219Y74930
X41699Y73830
X43561Y74930
X30353Y72517
X38608Y74930
X37846Y74930
X37084Y74930
X39370Y74930
X40132Y74930
X47244Y77216
X42418Y76200
X40005Y73025
X34671Y72263
X37211Y73025
X46736Y72009
X35687Y76708
X38900Y76708
X28448Y76200
X38100Y76708
X28448Y75184
X33528Y77834
X38608Y70104
X44031Y69596
X44069Y73025
X39878Y76738
X40005Y71780
X32258Y72136
X31369Y74930
X36068Y70460
X34508Y74892
X36703Y76708
X64361Y73180
X61127Y74930
X67607Y73830
X69469Y74930
X56261Y72517
X64516Y74930
X63754Y74930
X62992Y74930
X65278Y74930
X66040Y74930
X73152Y77216
X68326Y76200
X65913Y73025
X60579Y72263
X63119Y73025
X72644Y72009
X61595Y76708
X64808Y76708
X54356Y76200
X64008Y76708
X54356Y75184
X59436Y77834
X64516Y70104
X69939Y69596
X69977Y73025
X65786Y76738
X65913Y71780
X58166Y72136
X57277Y74930
X61976Y70460
X60416Y74892
X62611Y76708
X90269Y73180
X87035Y74930
X93515Y73830
X95377Y74930
X82169Y72517
X90424Y74930
X89662Y74930
X88900Y74930
X91186Y74930
X91948Y74930
X99060Y77216
X94234Y76200
X91821Y73025
X86487Y72263
X89027Y73025
X98552Y72009
X87503Y76708
X90716Y76708
X80264Y76200
X89916Y76708
X80264Y75184
X85344Y77834
X90424Y70104
X95847Y69596
X63119Y20193
X91694Y76738
X91821Y71780
X84074Y72136
X83185Y74930
X87884Y70460
X86324Y74892
X88519Y76708
X116177Y73180
X112943Y74930
X119423Y73830
X121285Y74930
X108077Y72517
X116332Y74930
X115570Y74930
X114808Y74930
X117094Y74930
X117856Y74930
X124968Y77216
X120142Y76200
X117729Y73025
X112395Y72263
X114935Y73025
X124460Y72009
X113411Y76708
X116624Y76708
X106172Y76200
X115824Y76708
X106172Y75184
X111252Y77834
X116332Y70104
X121755Y69596
X121793Y73025
X117602Y76738
X117729Y71780
X109982Y72136
X109093Y74930
X113792Y70460
X112232Y74892
X114427Y76708
X142085Y73180
X138851Y74930
X145331Y73830
X147193Y74930
X133985Y72517
X142240Y74930
X141478Y74930
X140716Y74930
X143002Y74930
X143764Y74930
X150876Y77216
X146050Y76200
X143637Y73025
X138303Y72263
X140843Y73025
X150368Y72009
X139319Y76708
X142532Y76708
X132080Y76200
X141732Y76708
X132080Y75184
X137160Y77834
X142240Y70104
X147663Y69596
X147701Y73025
X143510Y76738
X143637Y71780
X135890Y72136
X135001Y74930
X139700Y70460
X138140Y74892
X140335Y76708
X12545Y86388
X9311Y88138
X15791Y87038
X17653Y88138
X4445Y85725
X12700Y88138
X11938Y88138
X11176Y88138
X13462Y88138
X14224Y88138
X21336Y90424
X16510Y89408
X14097Y86233
X8763Y85471
X11303Y86233
X20828Y85217
X9779Y89916
X12992Y89916
X2540Y89408
X12192Y89916
X2540Y88392
X7620Y91041
X12700Y83312
X18123Y82804
X18161Y86233
X13970Y89946
X14097Y84988
X6350Y85344
X5461Y88138
X10160Y83668
X8600Y88100
X10795Y89916
X38453Y86388
X35219Y88138
X41699Y87038
X43561Y88138
X30353Y85725
X38608Y88138
X37846Y88138
X37084Y88138
X39370Y88138
X40132Y88138
X47244Y90424
X42418Y89408
X40005Y86233
X34671Y85471
X37211Y86233
X46736Y85217
X35687Y89916
X38900Y89916
X28448Y89408
X38100Y89916
X28448Y88392
X33528Y91041
X38608Y83312
X44031Y82804
X44069Y86233
X39878Y89946
X40005Y84988
X32258Y85344
X31369Y88138
X36068Y83668
X34508Y88100
X36703Y89916
X64361Y86388
X61127Y88138
X67607Y87038
X69469Y88138
X56261Y85725
X64516Y88138
X63754Y88138
X62992Y88138
X65278Y88138
X66040Y88138
X73152Y90424
X68326Y89408
X65913Y86233
X60579Y85471
X63119Y86233
X72644Y85217
X61595Y89916
X64808Y89916
X54356Y89408
X64008Y89916
X54356Y88392
X59436Y91041
X64516Y83312
X69939Y82804
X69977Y86233
X65786Y89946
X65913Y84988
X58166Y85344
X57277Y88138
X61976Y83668
X60416Y88100
X62611Y89916
X90269Y86388
X87035Y88138
X93515Y87038
X95377Y88138
X82169Y85725
X90424Y88138
X89662Y88138
X88900Y88138
X91186Y88138
X91948Y88138
X99060Y90424
X94234Y89408
X91821Y86233
X86487Y85471
X89027Y86233
X98552Y85217
X87503Y89916
X90716Y89916
X80264Y89408
X89916Y89916
X80264Y88392
X85344Y91041
X90424Y83312
X95847Y82804
X95885Y86233
X91694Y89946
X91821Y84988
X84074Y85344
X83185Y88138
X87884Y83668
X86324Y88100
X88519Y89916
X116177Y86388
X112943Y88138
X119423Y87038
X121285Y88138
X108077Y85725
X116332Y88138
X115570Y88138
X114808Y88138
X117094Y88138
X117856Y88138
X124968Y90424
X120142Y89408
X117729Y86233
X112395Y85471
X114935Y86233
X124460Y85217
X113411Y89916
X116624Y89916
X106172Y89408
X115824Y89916
X106172Y88392
X111252Y91041
X116332Y83312
X121755Y82804
X121793Y86233
X117602Y89946
X117729Y84988
X109982Y85344
X109093Y88138
X113792Y83668
X112232Y88100
X114427Y89916
X142085Y86388
X138851Y88138
X145331Y87038
X147193Y88138
X133985Y85725
X142240Y88138
X141478Y88138
X140716Y88138
X143002Y88138
X143764Y88138
X150876Y90424
X146050Y89408
X143637Y86233
X138303Y85471
X140843Y86233
X150368Y85217
X139319Y89916
X142532Y89916
X132080Y89408
X141732Y89916
X132080Y88392
X137160Y91041
X142240Y83312
X147663Y82804
X147701Y86233
X143510Y89946
X143637Y84988
X135890Y85344
X135001Y88138
X139700Y83668
X138140Y88100
X140335Y89916
X12545Y99596
X9311Y101346
X15791Y100246
X17653Y101346
X4445Y98933
X12700Y101346
X11938Y101346
X11176Y101346
X13462Y101346
X14224Y101346
X21336Y103632
X16510Y102616
X14097Y99441
X8763Y98679
X11303Y99441
X20828Y98425
X9779Y103124
X12992Y103124
X2540Y102616
X12192Y103124
X2540Y101600
X7620Y104249
X12700Y96520
X18123Y96012
X18161Y99441
X13970Y103154
X14097Y98196
X6350Y98552
X5461Y101346
X10160Y96876
X8600Y101308
X10795Y103124
X38453Y99596
X35219Y101346
X41699Y100246
X43561Y101346
X30353Y98933
X38608Y101346
X37846Y101346
X37084Y101346
X39370Y101346
X40132Y101346
X47244Y103632
X42418Y102616
X40005Y99441
X34671Y98679
X37211Y99441
X46736Y98425
X35687Y103124
X38900Y103124
X28448Y102616
X38100Y103124
X28448Y101600
X33528Y104249
X38608Y96520
X44031Y96012
X44069Y99441
X39878Y103154
X40005Y98196
X32258Y98552
X31369Y101346
X36068Y96876
X34508Y101308
X36703Y103124
X64361Y99596
X61127Y101346
X67607Y100246
X69469Y101346
X56261Y98933
X64516Y101346
X63754Y101346
X62992Y101346
X65278Y101346
X66040Y101346
X73152Y103632
X68326Y102616
X65913Y99441
X60579Y98679
X63119Y99441
X72644Y98425
X61595Y103124
X64808Y103124
X54356Y102616
X64008Y103124
X54356Y101600
X59436Y104249
X64516Y96520
X69939Y96012
X69977Y99441
X65786Y103154
X65913Y98196
X58166Y98552
X57277Y101346
X61976Y96876
X60416Y101308
X62611Y103124
X90269Y99596
X87035Y101346
X93515Y100246
X95377Y101346
X82169Y98933
X90424Y101346
X89662Y101346
X88900Y101346
X91186Y101346
X91948Y101346
X99060Y103632
X94234Y102616
X91821Y99441
X86487Y98679
X89027Y99441
X98552Y98425
X87503Y103124
X90716Y103124
X80264Y102616
X89916Y103124
X80264Y101600
X85344Y104249
X90424Y96520
X95847Y96012
X95885Y99441
X91694Y103154
X91821Y98196
X84074Y98552
X83185Y101346
X87884Y96876
X86324Y101308
X88519Y103124
X116177Y99596
X112943Y101346
X119423Y100246
X121285Y101346
X108077Y98933
X116332Y101346
X115570Y101346
X114808Y101346
X117094Y101346
X117856Y101346
X124968Y103632
X120142Y102616
X117729Y99441
X112395Y98679
X114935Y99441
X124460Y98425
X113411Y103124
X116624Y103124
X106172Y102616
X115824Y103124
X106172Y101600
X111252Y104249
X116332Y96520
X121755Y96012
X121793Y99441
X117602Y103154
X117729Y98196
X109982Y98552
X109093Y101346
X113792Y96876
X112232Y101308
X114427Y103124
X142085Y99596
X138851Y101346
X145331Y100246
X147193Y101346
X133985Y98933
X142240Y101346
X141478Y101346
X140716Y101346
X143002Y101346
X143764Y101346
X150876Y103632
X146050Y102616
X143637Y99441
X138303Y98679
X140843Y99441
X150368Y98425
X139319Y103124
X142532Y103124
X132080Y102616
X141732Y103124
X132080Y101600
X137160Y104249
X142240Y96520
X147663Y96012
X147701Y99441
X143510Y103154
X143637Y98196
X135890Y98552
X135001Y101346
X139700Y96876
X138140Y101308
X140335Y103124
X12545Y112804
X9311Y114554
X15791Y113454
X17653Y114554
X4445Y112141
X12700Y114554
X11938Y114554
X11176Y114554
X13462Y114554
X14224Y114554
X21336Y116840
X16510Y115824
X14097Y112649
X8763Y111887
X11303Y112649
X20828Y111633
X9779Y116332
X12992Y116332
X2540Y115824
X12192Y116332
X2540Y114808
X7620Y117457
X12700Y109728
X18123Y109220
X18161Y112649
X13970Y116362
X14097Y111404
X6350Y111760
X5461Y114554
X10160Y110084
X8600Y114516
X10795Y116332
X38453Y112804
X35219Y114554
X41699Y113454
X43561Y114554
X30353Y112141
X38608Y114554
X37846Y114554
X37084Y114554
X39370Y114554
X40132Y114554
X47244Y116840
X42418Y115824
X40005Y112649
X34671Y111887
X37211Y112649
X46736Y111633
X35687Y116332
X38900Y116332
X28448Y115824
X38100Y116332
X28448Y114808
X33528Y117457
X38608Y109728
X44031Y109220
X44069Y112649
X39878Y116362
X40005Y111404
X32258Y111760
X31369Y114554
X36068Y110084
X34508Y114516
X36703Y116332
X64361Y112804
X61127Y114554
X67607Y113454
X69469Y114554
X56261Y112141
X64516Y114554
X63754Y114554
X62992Y114554
X65278Y114554
X66040Y114554
X73152Y116840
X68326Y115824
X65913Y112649
X60579Y111887
X63119Y112649
X72644Y111633
X61595Y116332
X64808Y116332
X54356Y115824
X12545Y7140
X54356Y114808
X59436Y117457
X64516Y109728
X69939Y109220
X69977Y112649
X65786Y116362
X65913Y111404
X58166Y111760
X57277Y114554
X61976Y110084
X60416Y114516
X62611Y116332
X90269Y112804
X87035Y114554
X93515Y113454
X95377Y114554
X82169Y112141
X90424Y114554
X89662Y114554
X88900Y114554
X91186Y114554
X91948Y114554
X99060Y116840
X94234Y115824
X91821Y112649
X86487Y111887
X89027Y112649
X98552Y111633
X87503Y116332
X90716Y116332
X80264Y115824
X89916Y116332
X80264Y114808
X85344Y117457
X90424Y109728
X95847Y109220
X95885Y112649
X91694Y116362
X91821Y111404
X84074Y111760
X83185Y114554
X87884Y110084
X86324Y114516
X88519Y116332
X116177Y112804
X112943Y114554
X119423Y113454
X121285Y114554
X108077Y112141
X116332Y114554
X115570Y114554
X114808Y114554
X117094Y114554
X117856Y114554
X124968Y116840
X120142Y115824
X117729Y112649
X112395Y111887
X114935Y112649
X124460Y111633
X113411Y116332
X116624Y116332
X106172Y115824
X115824Y116332
X106172Y114808
X111252Y117457
X116332Y109728
X121755Y109220
X121793Y112649
X117602Y116362
X117729Y111404
X109982Y111760
X109093Y114554
X113792Y110084
X112232Y114516
X114427Y116332
X142085Y112804
X138851Y114554
X145331Y113454
X147193Y114554
X133985Y112141
X142240Y114554
X141478Y114554
X140716Y114554
X143002Y114554
X143764Y114554
X150876Y116840
X146050Y115824
X143637Y112649
X138303Y111887
X140843Y112649
X150368Y111633
X139319Y116332
X142532Y116332
X132080Y115824
X141732Y116332
X132080Y114808
X137160Y117457
X142240Y109728
X147663Y109220
X147701Y112649
X143510Y116362
X143637Y111404
X135890Y111760
X135001Y114554
X139700Y110084
X138140Y114516
X140335Y116332
X9311Y8890
X15791Y7790
X17653Y8890
X4445Y6477
X12700Y8890
X11938Y8890
X11176Y8890
X13462Y8890
X14224Y8890
X21336Y11176
X16510Y10160
X14097Y6985
X8763Y6223
X11303Y6985
X20828Y5969
X9779Y10668
X12992Y10668
X2540Y10160
X12192Y10668
X2540Y9144
X7620Y11793
X12700Y4064
X18123Y3556
X18161Y6985
X13970Y10698
X14097Y5740
X6350Y6096
X5461Y8890
X10160Y4420
X8600Y8852
X10795Y10668
X38453Y7140
X35219Y8890
X41699Y7790
X43561Y8890
X30353Y6477
X38608Y8890
X37846Y8890
X37084Y8890
X39370Y8890
X40132Y8890
X47244Y11176
X42418Y10160
X40005Y6985
X34671Y6223
X37211Y6985
X46736Y5969
X35687Y10668
X38900Y10668
X28448Y10160
X38100Y10668
X28448Y9144
X33528Y11793
X38608Y4064
X44031Y3556
X44069Y6985
X39878Y10698
X40005Y5740
X32258Y6096
X31369Y8890
X36068Y4420
X34508Y8852
X36703Y10668
X64361Y7140
X61127Y8890
X67607Y7790
X69469Y8890
X56261Y6477
X64516Y8890
X63754Y8890
X62992Y8890
X65278Y8890
X66040Y8890
X73152Y11176
X68326Y10160
X65913Y6985
X60579Y6223
X63119Y6985
X72644Y5969
X61595Y10668
X64808Y10668
X54356Y10160
X64008Y10668
X54356Y9144
X59436Y11793
X64516Y4064
X69939Y3556
X69977Y6985
X65786Y10698
X65913Y5740
X58166Y6096
X57277Y8890
X61976Y4420
X60416Y8852
X62611Y10668
X90269Y7140
X87035Y8890
X93515Y7790
X95377Y8890
X82169Y6477
X90424Y8890
X89662Y8890
X88900Y8890
X91186Y8890
X91948Y8890
X99060Y11176
X94234Y10160
X91821Y6985
X86487Y6223
X89027Y6985
X98552Y5969
X87503Y10668
X90716Y10668
X80264Y10160
X89916Y10668
X80264Y9144
X85344Y11793
X90424Y4064
X95847Y3556
X95885Y6985
X91694Y10698
X91821Y5740
X84074Y6096
X83185Y8890
X87884Y4420
X86324Y8852
X88519Y10668
X116177Y7140
X112943Y8890
X119423Y7790
X121285Y8890
X108077Y6477
X116332Y8890
X115570Y8890
X114808Y8890
X117094Y8890
X117856Y8890
X124968Y11176
X120142Y10160
X117729Y6985
X112395Y6223
X114935Y6985
X124460Y5969
X113411Y10668
X116624Y10668
X106172Y10160
X115824Y10668
X106172Y9144
X111252Y11793
X116332Y4064
X121755Y3556
X121793Y6985
X117602Y10698
X117729Y5740
X109982Y6096
X109093Y8890
X113792Y4420
X112232Y8852
X114427Y10668
X142085Y7140
X138851Y8890
X95885Y73025
X145331Y7790
X147193Y8890
X133985Y6477
X142240Y8890
X141478Y8890
X140716Y8890
X143002Y8890
X143764Y8890
X150876Y11176
X146050Y10160
X143637Y6985
X138303Y6223
X140843Y6985
X150368Y5969
X139319Y10668
X142532Y10668
X132080Y10160
X141732Y10668
X132080Y9144
X137160Y11793
X142240Y4064
X147663Y3556
X147701Y6985
X143510Y10698
X143637Y5740
X135890Y6096
X135001Y8890
X139700Y4420
X138140Y8852
X140335Y10668
X12545Y20348
X9311Y22098
X15791Y20998
X17653Y22098
X4445Y19685
X12700Y22098
X11938Y22098
X11176Y22098
X13462Y22098
X14224Y22098
X21336Y24384
X16510Y23368
X14097Y20193
X8763Y19431
X11303Y20193
X20828Y19177
X9779Y23876
X12992Y23876
X2540Y23368
X12192Y23876
X2540Y22352
X7620Y25001
X12700Y17272
X18123Y16764
X18161Y20193
X13970Y23906
X14097Y18948
X6350Y19304
X5461Y22098
X10160Y17628
X8600Y22060
X10795Y23876
X38453Y20348
X35219Y22098
X41699Y20998
X43561Y22098
X30353Y19685
X38608Y22098
X37846Y22098
X37084Y22098
X39370Y22098
X40132Y22098
X47244Y24384
X42418Y23368
X40005Y20193
X34671Y19431
X37211Y20193
X46736Y19177
X35687Y23876
X38900Y23876
X28448Y23368
X38100Y23876
X28448Y22352
X33528Y25001
X38608Y17272
X44031Y16764
X44069Y20193
X39878Y23906
X40005Y18948
X32258Y19304
X31369Y22098
X36068Y17628
X34508Y22060
X36703Y23876
X64361Y20348
X61127Y22098
X67607Y20998
X69469Y22098
X56261Y19685
X64516Y22098
X63754Y22098
X62992Y22098
X65278Y22098
X66040Y22098
X73152Y24384
X68326Y23368
X65913Y20193
X60579Y19431
X72644Y19177
X61595Y23876
X64808Y23876
X54356Y23368
X64008Y23876
X54356Y22352
X59436Y25001
X64516Y17272
X69939Y16764
X69977Y20193
X65786Y23906
X65913Y18948
X58166Y19304
X57277Y22098
X61976Y17628
X60416Y22060
X62611Y23876
X90269Y20348
X87035Y22098
X93515Y20998
X95377Y22098
X82169Y19685
X90424Y22098
X89662Y22098
X88900Y22098
X91186Y22098
X91948Y22098
X99060Y24384
X94234Y23368
X91821Y20193
X86487Y19431
X89027Y20193
X98552Y19177
X87503Y23876
X90716Y23876
X80264Y23368
X89916Y23876
X80264Y22352
X85344Y25001
X90424Y17272
X95847Y16764
X95885Y20193
X91694Y23906
X91821Y18948
X84074Y19304
X83185Y22098
X87884Y17628
X86324Y22060
X88519Y23876
X116177Y20348
X112943Y22098
X119423Y20998
X121285Y22098
X108077Y19685
X116332Y22098
X115570Y22098
X114808Y22098
X117094Y22098
X117856Y22098
X124968Y24384
X120142Y23368
X117729Y20193
X112395Y19431
X114935Y20193
X124460Y19177
X113411Y23876
X116624Y23876
X106172Y23368
X115824Y23876
X106172Y22352
X111252Y25001
X116332Y17272
X121755Y16764
X121793Y20193
X117602Y23906
X117729Y18948
X109982Y19304
X109093Y22098
X113792Y17628
X112232Y22060
X114427Y23876
X142085Y20348
X138851Y22098
X145331Y20998
X147193Y22098
X133985Y19685
X142240Y22098
X141478Y22098
X140716Y22098
X143002Y22098
X143764Y22098
X150876Y24384
X146050Y23368
X143637Y20193
X138303Y19431
X140843Y20193
X150368Y19177
X139319Y23876
X142532Y23876
X132080Y23368
X141732Y23876
X132080Y22352
X137160Y25001
X142240Y17272
X147663Y16764
X147701Y20193
X143510Y23906
X143637Y18948
X135890Y19304
X135001Y22098
X139700Y17628
X138140Y22060
X140335Y23876
X12545Y33556
X9311Y35306
X15791Y34206
X17653Y35306
X4445Y32893
X12700Y35306
X11938Y35306
X11176Y35306
X13462Y35306
X14224Y35306
X21336Y37592
X16510Y36576
X14097Y33401
X8763Y32639
X11303Y33401
X20828Y32385
X9779Y37084
X12992Y37084
X2540Y36576
X12192Y37084
X2540Y35560
X7620Y38210
X12700Y30480
X18123Y29972
X18161Y33401
X13970Y37114
X14097Y32156
X6350Y32512
X5461Y35306
X10160Y30836
X8600Y35268
X10795Y37084
X38453Y33556
X35219Y35306
X41699Y34206
X43561Y35306
X30353Y32893
X38608Y35306
X37846Y35306
X37084Y35306
X39370Y35306
X40132Y35306
X47244Y37592
X42418Y36576
X40005Y33401
X34671Y32639
X37211Y33401
X46736Y32385
X64008Y116332
M30