G04 EAGLE Gerber RS-274X export*
G75*
%MOMM*%
%FSLAX34Y34*%
%LPD*%
%INSolderpaste Bottom*%
%IPPOS*%
%AMOC8*
5,1,8,0,0,1.08239X$1,22.5*%
G01*
%ADD10R,0.650000X0.450000*%
%ADD11R,0.400000X0.500000*%


D10*
X121250Y92150D03*
X132750Y92150D03*
X132750Y85650D03*
X121250Y85650D03*
D11*
X149500Y78400D03*
X142000Y78400D03*
X134500Y78400D03*
X127000Y78400D03*
X119500Y78400D03*
X112000Y78400D03*
X104500Y78400D03*
X100500Y88900D03*
X104500Y99400D03*
X112000Y99400D03*
X119500Y99400D03*
X127000Y99400D03*
X134500Y99400D03*
X142000Y99400D03*
X149500Y99400D03*
X153500Y88900D03*
D10*
X380330Y92150D03*
X391830Y92150D03*
X391830Y85650D03*
X380330Y85650D03*
D11*
X408580Y78400D03*
X401080Y78400D03*
X393580Y78400D03*
X386080Y78400D03*
X378580Y78400D03*
X371080Y78400D03*
X363580Y78400D03*
X359580Y88900D03*
X363580Y99400D03*
X371080Y99400D03*
X378580Y99400D03*
X386080Y99400D03*
X393580Y99400D03*
X401080Y99400D03*
X408580Y99400D03*
X412580Y88900D03*
D10*
X639410Y92150D03*
X650910Y92150D03*
X650910Y85650D03*
X639410Y85650D03*
D11*
X667660Y78400D03*
X660160Y78400D03*
X652660Y78400D03*
X645160Y78400D03*
X637660Y78400D03*
X630160Y78400D03*
X622660Y78400D03*
X618660Y88900D03*
X622660Y99400D03*
X630160Y99400D03*
X637660Y99400D03*
X645160Y99400D03*
X652660Y99400D03*
X660160Y99400D03*
X667660Y99400D03*
X671660Y88900D03*
D10*
X898490Y92150D03*
X909990Y92150D03*
X909990Y85650D03*
X898490Y85650D03*
D11*
X926740Y78400D03*
X919240Y78400D03*
X911740Y78400D03*
X904240Y78400D03*
X896740Y78400D03*
X889240Y78400D03*
X881740Y78400D03*
X877740Y88900D03*
X881740Y99400D03*
X889240Y99400D03*
X896740Y99400D03*
X904240Y99400D03*
X911740Y99400D03*
X919240Y99400D03*
X926740Y99400D03*
X930740Y88900D03*
D10*
X1157570Y92150D03*
X1169070Y92150D03*
X1169070Y85650D03*
X1157570Y85650D03*
D11*
X1185820Y78400D03*
X1178320Y78400D03*
X1170820Y78400D03*
X1163320Y78400D03*
X1155820Y78400D03*
X1148320Y78400D03*
X1140820Y78400D03*
X1136820Y88900D03*
X1140820Y99400D03*
X1148320Y99400D03*
X1155820Y99400D03*
X1163320Y99400D03*
X1170820Y99400D03*
X1178320Y99400D03*
X1185820Y99400D03*
X1189820Y88900D03*
D10*
X1416650Y92150D03*
X1428150Y92150D03*
X1428150Y85650D03*
X1416650Y85650D03*
D11*
X1444900Y78400D03*
X1437400Y78400D03*
X1429900Y78400D03*
X1422400Y78400D03*
X1414900Y78400D03*
X1407400Y78400D03*
X1399900Y78400D03*
X1395900Y88900D03*
X1399900Y99400D03*
X1407400Y99400D03*
X1414900Y99400D03*
X1422400Y99400D03*
X1429900Y99400D03*
X1437400Y99400D03*
X1444900Y99400D03*
X1448900Y88900D03*
D10*
X121250Y224230D03*
X132750Y224230D03*
X132750Y217730D03*
X121250Y217730D03*
D11*
X149500Y210480D03*
X142000Y210480D03*
X134500Y210480D03*
X127000Y210480D03*
X119500Y210480D03*
X112000Y210480D03*
X104500Y210480D03*
X100500Y220980D03*
X104500Y231480D03*
X112000Y231480D03*
X119500Y231480D03*
X127000Y231480D03*
X134500Y231480D03*
X142000Y231480D03*
X149500Y231480D03*
X153500Y220980D03*
D10*
X380330Y224230D03*
X391830Y224230D03*
X391830Y217730D03*
X380330Y217730D03*
D11*
X408580Y210480D03*
X401080Y210480D03*
X393580Y210480D03*
X386080Y210480D03*
X378580Y210480D03*
X371080Y210480D03*
X363580Y210480D03*
X359580Y220980D03*
X363580Y231480D03*
X371080Y231480D03*
X378580Y231480D03*
X386080Y231480D03*
X393580Y231480D03*
X401080Y231480D03*
X408580Y231480D03*
X412580Y220980D03*
D10*
X639410Y224230D03*
X650910Y224230D03*
X650910Y217730D03*
X639410Y217730D03*
D11*
X667660Y210480D03*
X660160Y210480D03*
X652660Y210480D03*
X645160Y210480D03*
X637660Y210480D03*
X630160Y210480D03*
X622660Y210480D03*
X618660Y220980D03*
X622660Y231480D03*
X630160Y231480D03*
X637660Y231480D03*
X645160Y231480D03*
X652660Y231480D03*
X660160Y231480D03*
X667660Y231480D03*
X671660Y220980D03*
D10*
X898490Y224230D03*
X909990Y224230D03*
X909990Y217730D03*
X898490Y217730D03*
D11*
X926740Y210480D03*
X919240Y210480D03*
X911740Y210480D03*
X904240Y210480D03*
X896740Y210480D03*
X889240Y210480D03*
X881740Y210480D03*
X877740Y220980D03*
X881740Y231480D03*
X889240Y231480D03*
X896740Y231480D03*
X904240Y231480D03*
X911740Y231480D03*
X919240Y231480D03*
X926740Y231480D03*
X930740Y220980D03*
D10*
X1157570Y224230D03*
X1169070Y224230D03*
X1169070Y217730D03*
X1157570Y217730D03*
D11*
X1185820Y210480D03*
X1178320Y210480D03*
X1170820Y210480D03*
X1163320Y210480D03*
X1155820Y210480D03*
X1148320Y210480D03*
X1140820Y210480D03*
X1136820Y220980D03*
X1140820Y231480D03*
X1148320Y231480D03*
X1155820Y231480D03*
X1163320Y231480D03*
X1170820Y231480D03*
X1178320Y231480D03*
X1185820Y231480D03*
X1189820Y220980D03*
D10*
X1416650Y224230D03*
X1428150Y224230D03*
X1428150Y217730D03*
X1416650Y217730D03*
D11*
X1444900Y210480D03*
X1437400Y210480D03*
X1429900Y210480D03*
X1422400Y210480D03*
X1414900Y210480D03*
X1407400Y210480D03*
X1399900Y210480D03*
X1395900Y220980D03*
X1399900Y231480D03*
X1407400Y231480D03*
X1414900Y231480D03*
X1422400Y231480D03*
X1429900Y231480D03*
X1437400Y231480D03*
X1444900Y231480D03*
X1448900Y220980D03*
D10*
X121250Y356310D03*
X132750Y356310D03*
X132750Y349810D03*
X121250Y349810D03*
D11*
X149500Y342560D03*
X142000Y342560D03*
X134500Y342560D03*
X127000Y342560D03*
X119500Y342560D03*
X112000Y342560D03*
X104500Y342560D03*
X100500Y353060D03*
X104500Y363560D03*
X112000Y363560D03*
X119500Y363560D03*
X127000Y363560D03*
X134500Y363560D03*
X142000Y363560D03*
X149500Y363560D03*
X153500Y353060D03*
D10*
X380330Y356310D03*
X391830Y356310D03*
X391830Y349810D03*
X380330Y349810D03*
D11*
X408580Y342560D03*
X401080Y342560D03*
X393580Y342560D03*
X386080Y342560D03*
X378580Y342560D03*
X371080Y342560D03*
X363580Y342560D03*
X359580Y353060D03*
X363580Y363560D03*
X371080Y363560D03*
X378580Y363560D03*
X386080Y363560D03*
X393580Y363560D03*
X401080Y363560D03*
X408580Y363560D03*
X412580Y353060D03*
D10*
X639410Y356310D03*
X650910Y356310D03*
X650910Y349810D03*
X639410Y349810D03*
D11*
X667660Y342560D03*
X660160Y342560D03*
X652660Y342560D03*
X645160Y342560D03*
X637660Y342560D03*
X630160Y342560D03*
X622660Y342560D03*
X618660Y353060D03*
X622660Y363560D03*
X630160Y363560D03*
X637660Y363560D03*
X645160Y363560D03*
X652660Y363560D03*
X660160Y363560D03*
X667660Y363560D03*
X671660Y353060D03*
D10*
X898490Y356310D03*
X909990Y356310D03*
X909990Y349810D03*
X898490Y349810D03*
D11*
X926740Y342560D03*
X919240Y342560D03*
X911740Y342560D03*
X904240Y342560D03*
X896740Y342560D03*
X889240Y342560D03*
X881740Y342560D03*
X877740Y353060D03*
X881740Y363560D03*
X889240Y363560D03*
X896740Y363560D03*
X904240Y363560D03*
X911740Y363560D03*
X919240Y363560D03*
X926740Y363560D03*
X930740Y353060D03*
D10*
X1157570Y356310D03*
X1169070Y356310D03*
X1169070Y349810D03*
X1157570Y349810D03*
D11*
X1185820Y342560D03*
X1178320Y342560D03*
X1170820Y342560D03*
X1163320Y342560D03*
X1155820Y342560D03*
X1148320Y342560D03*
X1140820Y342560D03*
X1136820Y353060D03*
X1140820Y363560D03*
X1148320Y363560D03*
X1155820Y363560D03*
X1163320Y363560D03*
X1170820Y363560D03*
X1178320Y363560D03*
X1185820Y363560D03*
X1189820Y353060D03*
D10*
X1416650Y356310D03*
X1428150Y356310D03*
X1428150Y349810D03*
X1416650Y349810D03*
D11*
X1444900Y342560D03*
X1437400Y342560D03*
X1429900Y342560D03*
X1422400Y342560D03*
X1414900Y342560D03*
X1407400Y342560D03*
X1399900Y342560D03*
X1395900Y353060D03*
X1399900Y363560D03*
X1407400Y363560D03*
X1414900Y363560D03*
X1422400Y363560D03*
X1429900Y363560D03*
X1437400Y363560D03*
X1444900Y363560D03*
X1448900Y353060D03*
D10*
X121250Y488390D03*
X132750Y488390D03*
X132750Y481890D03*
X121250Y481890D03*
D11*
X149500Y474640D03*
X142000Y474640D03*
X134500Y474640D03*
X127000Y474640D03*
X119500Y474640D03*
X112000Y474640D03*
X104500Y474640D03*
X100500Y485140D03*
X104500Y495640D03*
X112000Y495640D03*
X119500Y495640D03*
X127000Y495640D03*
X134500Y495640D03*
X142000Y495640D03*
X149500Y495640D03*
X153500Y485140D03*
D10*
X380330Y488390D03*
X391830Y488390D03*
X391830Y481890D03*
X380330Y481890D03*
D11*
X408580Y474640D03*
X401080Y474640D03*
X393580Y474640D03*
X386080Y474640D03*
X378580Y474640D03*
X371080Y474640D03*
X363580Y474640D03*
X359580Y485140D03*
X363580Y495640D03*
X371080Y495640D03*
X378580Y495640D03*
X386080Y495640D03*
X393580Y495640D03*
X401080Y495640D03*
X408580Y495640D03*
X412580Y485140D03*
D10*
X639410Y488390D03*
X650910Y488390D03*
X650910Y481890D03*
X639410Y481890D03*
D11*
X667660Y474640D03*
X660160Y474640D03*
X652660Y474640D03*
X645160Y474640D03*
X637660Y474640D03*
X630160Y474640D03*
X622660Y474640D03*
X618660Y485140D03*
X622660Y495640D03*
X630160Y495640D03*
X637660Y495640D03*
X645160Y495640D03*
X652660Y495640D03*
X660160Y495640D03*
X667660Y495640D03*
X671660Y485140D03*
D10*
X898490Y488390D03*
X909990Y488390D03*
X909990Y481890D03*
X898490Y481890D03*
D11*
X926740Y474640D03*
X919240Y474640D03*
X911740Y474640D03*
X904240Y474640D03*
X896740Y474640D03*
X889240Y474640D03*
X881740Y474640D03*
X877740Y485140D03*
X881740Y495640D03*
X889240Y495640D03*
X896740Y495640D03*
X904240Y495640D03*
X911740Y495640D03*
X919240Y495640D03*
X926740Y495640D03*
X930740Y485140D03*
D10*
X1157570Y488390D03*
X1169070Y488390D03*
X1169070Y481890D03*
X1157570Y481890D03*
D11*
X1185820Y474640D03*
X1178320Y474640D03*
X1170820Y474640D03*
X1163320Y474640D03*
X1155820Y474640D03*
X1148320Y474640D03*
X1140820Y474640D03*
X1136820Y485140D03*
X1140820Y495640D03*
X1148320Y495640D03*
X1155820Y495640D03*
X1163320Y495640D03*
X1170820Y495640D03*
X1178320Y495640D03*
X1185820Y495640D03*
X1189820Y485140D03*
D10*
X1416650Y488390D03*
X1428150Y488390D03*
X1428150Y481890D03*
X1416650Y481890D03*
D11*
X1444900Y474640D03*
X1437400Y474640D03*
X1429900Y474640D03*
X1422400Y474640D03*
X1414900Y474640D03*
X1407400Y474640D03*
X1399900Y474640D03*
X1395900Y485140D03*
X1399900Y495640D03*
X1407400Y495640D03*
X1414900Y495640D03*
X1422400Y495640D03*
X1429900Y495640D03*
X1437400Y495640D03*
X1444900Y495640D03*
X1448900Y485140D03*
D10*
X121250Y620470D03*
X132750Y620470D03*
X132750Y613970D03*
X121250Y613970D03*
D11*
X149500Y606720D03*
X142000Y606720D03*
X134500Y606720D03*
X127000Y606720D03*
X119500Y606720D03*
X112000Y606720D03*
X104500Y606720D03*
X100500Y617220D03*
X104500Y627720D03*
X112000Y627720D03*
X119500Y627720D03*
X127000Y627720D03*
X134500Y627720D03*
X142000Y627720D03*
X149500Y627720D03*
X153500Y617220D03*
D10*
X380330Y620470D03*
X391830Y620470D03*
X391830Y613970D03*
X380330Y613970D03*
D11*
X408580Y606720D03*
X401080Y606720D03*
X393580Y606720D03*
X386080Y606720D03*
X378580Y606720D03*
X371080Y606720D03*
X363580Y606720D03*
X359580Y617220D03*
X363580Y627720D03*
X371080Y627720D03*
X378580Y627720D03*
X386080Y627720D03*
X393580Y627720D03*
X401080Y627720D03*
X408580Y627720D03*
X412580Y617220D03*
D10*
X639410Y620470D03*
X650910Y620470D03*
X650910Y613970D03*
X639410Y613970D03*
D11*
X667660Y606720D03*
X660160Y606720D03*
X652660Y606720D03*
X645160Y606720D03*
X637660Y606720D03*
X630160Y606720D03*
X622660Y606720D03*
X618660Y617220D03*
X622660Y627720D03*
X630160Y627720D03*
X637660Y627720D03*
X645160Y627720D03*
X652660Y627720D03*
X660160Y627720D03*
X667660Y627720D03*
X671660Y617220D03*
D10*
X898490Y620470D03*
X909990Y620470D03*
X909990Y613970D03*
X898490Y613970D03*
D11*
X926740Y606720D03*
X919240Y606720D03*
X911740Y606720D03*
X904240Y606720D03*
X896740Y606720D03*
X889240Y606720D03*
X881740Y606720D03*
X877740Y617220D03*
X881740Y627720D03*
X889240Y627720D03*
X896740Y627720D03*
X904240Y627720D03*
X911740Y627720D03*
X919240Y627720D03*
X926740Y627720D03*
X930740Y617220D03*
D10*
X1157570Y620470D03*
X1169070Y620470D03*
X1169070Y613970D03*
X1157570Y613970D03*
D11*
X1185820Y606720D03*
X1178320Y606720D03*
X1170820Y606720D03*
X1163320Y606720D03*
X1155820Y606720D03*
X1148320Y606720D03*
X1140820Y606720D03*
X1136820Y617220D03*
X1140820Y627720D03*
X1148320Y627720D03*
X1155820Y627720D03*
X1163320Y627720D03*
X1170820Y627720D03*
X1178320Y627720D03*
X1185820Y627720D03*
X1189820Y617220D03*
D10*
X1416650Y620470D03*
X1428150Y620470D03*
X1428150Y613970D03*
X1416650Y613970D03*
D11*
X1444900Y606720D03*
X1437400Y606720D03*
X1429900Y606720D03*
X1422400Y606720D03*
X1414900Y606720D03*
X1407400Y606720D03*
X1399900Y606720D03*
X1395900Y617220D03*
X1399900Y627720D03*
X1407400Y627720D03*
X1414900Y627720D03*
X1422400Y627720D03*
X1429900Y627720D03*
X1437400Y627720D03*
X1444900Y627720D03*
X1448900Y617220D03*
D10*
X121250Y752550D03*
X132750Y752550D03*
X132750Y746050D03*
X121250Y746050D03*
D11*
X149500Y738800D03*
X142000Y738800D03*
X134500Y738800D03*
X127000Y738800D03*
X119500Y738800D03*
X112000Y738800D03*
X104500Y738800D03*
X100500Y749300D03*
X104500Y759800D03*
X112000Y759800D03*
X119500Y759800D03*
X127000Y759800D03*
X134500Y759800D03*
X142000Y759800D03*
X149500Y759800D03*
X153500Y749300D03*
D10*
X380330Y752550D03*
X391830Y752550D03*
X391830Y746050D03*
X380330Y746050D03*
D11*
X408580Y738800D03*
X401080Y738800D03*
X393580Y738800D03*
X386080Y738800D03*
X378580Y738800D03*
X371080Y738800D03*
X363580Y738800D03*
X359580Y749300D03*
X363580Y759800D03*
X371080Y759800D03*
X378580Y759800D03*
X386080Y759800D03*
X393580Y759800D03*
X401080Y759800D03*
X408580Y759800D03*
X412580Y749300D03*
D10*
X639410Y752550D03*
X650910Y752550D03*
X650910Y746050D03*
X639410Y746050D03*
D11*
X667660Y738800D03*
X660160Y738800D03*
X652660Y738800D03*
X645160Y738800D03*
X637660Y738800D03*
X630160Y738800D03*
X622660Y738800D03*
X618660Y749300D03*
X622660Y759800D03*
X630160Y759800D03*
X637660Y759800D03*
X645160Y759800D03*
X652660Y759800D03*
X660160Y759800D03*
X667660Y759800D03*
X671660Y749300D03*
D10*
X898490Y752550D03*
X909990Y752550D03*
X909990Y746050D03*
X898490Y746050D03*
D11*
X926740Y738800D03*
X919240Y738800D03*
X911740Y738800D03*
X904240Y738800D03*
X896740Y738800D03*
X889240Y738800D03*
X881740Y738800D03*
X877740Y749300D03*
X881740Y759800D03*
X889240Y759800D03*
X896740Y759800D03*
X904240Y759800D03*
X911740Y759800D03*
X919240Y759800D03*
X926740Y759800D03*
X930740Y749300D03*
D10*
X1157570Y752550D03*
X1169070Y752550D03*
X1169070Y746050D03*
X1157570Y746050D03*
D11*
X1185820Y738800D03*
X1178320Y738800D03*
X1170820Y738800D03*
X1163320Y738800D03*
X1155820Y738800D03*
X1148320Y738800D03*
X1140820Y738800D03*
X1136820Y749300D03*
X1140820Y759800D03*
X1148320Y759800D03*
X1155820Y759800D03*
X1163320Y759800D03*
X1170820Y759800D03*
X1178320Y759800D03*
X1185820Y759800D03*
X1189820Y749300D03*
D10*
X1416650Y752550D03*
X1428150Y752550D03*
X1428150Y746050D03*
X1416650Y746050D03*
D11*
X1444900Y738800D03*
X1437400Y738800D03*
X1429900Y738800D03*
X1422400Y738800D03*
X1414900Y738800D03*
X1407400Y738800D03*
X1399900Y738800D03*
X1395900Y749300D03*
X1399900Y759800D03*
X1407400Y759800D03*
X1414900Y759800D03*
X1422400Y759800D03*
X1429900Y759800D03*
X1437400Y759800D03*
X1444900Y759800D03*
X1448900Y749300D03*
D10*
X121250Y884630D03*
X132750Y884630D03*
X132750Y878130D03*
X121250Y878130D03*
D11*
X149500Y870880D03*
X142000Y870880D03*
X134500Y870880D03*
X127000Y870880D03*
X119500Y870880D03*
X112000Y870880D03*
X104500Y870880D03*
X100500Y881380D03*
X104500Y891880D03*
X112000Y891880D03*
X119500Y891880D03*
X127000Y891880D03*
X134500Y891880D03*
X142000Y891880D03*
X149500Y891880D03*
X153500Y881380D03*
D10*
X380330Y884630D03*
X391830Y884630D03*
X391830Y878130D03*
X380330Y878130D03*
D11*
X408580Y870880D03*
X401080Y870880D03*
X393580Y870880D03*
X386080Y870880D03*
X378580Y870880D03*
X371080Y870880D03*
X363580Y870880D03*
X359580Y881380D03*
X363580Y891880D03*
X371080Y891880D03*
X378580Y891880D03*
X386080Y891880D03*
X393580Y891880D03*
X401080Y891880D03*
X408580Y891880D03*
X412580Y881380D03*
D10*
X639410Y884630D03*
X650910Y884630D03*
X650910Y878130D03*
X639410Y878130D03*
D11*
X667660Y870880D03*
X660160Y870880D03*
X652660Y870880D03*
X645160Y870880D03*
X637660Y870880D03*
X630160Y870880D03*
X622660Y870880D03*
X618660Y881380D03*
X622660Y891880D03*
X630160Y891880D03*
X637660Y891880D03*
X645160Y891880D03*
X652660Y891880D03*
X660160Y891880D03*
X667660Y891880D03*
X671660Y881380D03*
D10*
X898490Y884630D03*
X909990Y884630D03*
X909990Y878130D03*
X898490Y878130D03*
D11*
X926740Y870880D03*
X919240Y870880D03*
X911740Y870880D03*
X904240Y870880D03*
X896740Y870880D03*
X889240Y870880D03*
X881740Y870880D03*
X877740Y881380D03*
X881740Y891880D03*
X889240Y891880D03*
X896740Y891880D03*
X904240Y891880D03*
X911740Y891880D03*
X919240Y891880D03*
X926740Y891880D03*
X930740Y881380D03*
D10*
X1157570Y884630D03*
X1169070Y884630D03*
X1169070Y878130D03*
X1157570Y878130D03*
D11*
X1185820Y870880D03*
X1178320Y870880D03*
X1170820Y870880D03*
X1163320Y870880D03*
X1155820Y870880D03*
X1148320Y870880D03*
X1140820Y870880D03*
X1136820Y881380D03*
X1140820Y891880D03*
X1148320Y891880D03*
X1155820Y891880D03*
X1163320Y891880D03*
X1170820Y891880D03*
X1178320Y891880D03*
X1185820Y891880D03*
X1189820Y881380D03*
D10*
X1416650Y884630D03*
X1428150Y884630D03*
X1428150Y878130D03*
X1416650Y878130D03*
D11*
X1444900Y870880D03*
X1437400Y870880D03*
X1429900Y870880D03*
X1422400Y870880D03*
X1414900Y870880D03*
X1407400Y870880D03*
X1399900Y870880D03*
X1395900Y881380D03*
X1399900Y891880D03*
X1407400Y891880D03*
X1414900Y891880D03*
X1422400Y891880D03*
X1429900Y891880D03*
X1437400Y891880D03*
X1444900Y891880D03*
X1448900Y881380D03*
D10*
X121250Y1016710D03*
X132750Y1016710D03*
X132750Y1010210D03*
X121250Y1010210D03*
D11*
X149500Y1002960D03*
X142000Y1002960D03*
X134500Y1002960D03*
X127000Y1002960D03*
X119500Y1002960D03*
X112000Y1002960D03*
X104500Y1002960D03*
X100500Y1013460D03*
X104500Y1023960D03*
X112000Y1023960D03*
X119500Y1023960D03*
X127000Y1023960D03*
X134500Y1023960D03*
X142000Y1023960D03*
X149500Y1023960D03*
X153500Y1013460D03*
D10*
X380330Y1016710D03*
X391830Y1016710D03*
X391830Y1010210D03*
X380330Y1010210D03*
D11*
X408580Y1002960D03*
X401080Y1002960D03*
X393580Y1002960D03*
X386080Y1002960D03*
X378580Y1002960D03*
X371080Y1002960D03*
X363580Y1002960D03*
X359580Y1013460D03*
X363580Y1023960D03*
X371080Y1023960D03*
X378580Y1023960D03*
X386080Y1023960D03*
X393580Y1023960D03*
X401080Y1023960D03*
X408580Y1023960D03*
X412580Y1013460D03*
D10*
X639410Y1016710D03*
X650910Y1016710D03*
X650910Y1010210D03*
X639410Y1010210D03*
D11*
X667660Y1002960D03*
X660160Y1002960D03*
X652660Y1002960D03*
X645160Y1002960D03*
X637660Y1002960D03*
X630160Y1002960D03*
X622660Y1002960D03*
X618660Y1013460D03*
X622660Y1023960D03*
X630160Y1023960D03*
X637660Y1023960D03*
X645160Y1023960D03*
X652660Y1023960D03*
X660160Y1023960D03*
X667660Y1023960D03*
X671660Y1013460D03*
D10*
X898490Y1016710D03*
X909990Y1016710D03*
X909990Y1010210D03*
X898490Y1010210D03*
D11*
X926740Y1002960D03*
X919240Y1002960D03*
X911740Y1002960D03*
X904240Y1002960D03*
X896740Y1002960D03*
X889240Y1002960D03*
X881740Y1002960D03*
X877740Y1013460D03*
X881740Y1023960D03*
X889240Y1023960D03*
X896740Y1023960D03*
X904240Y1023960D03*
X911740Y1023960D03*
X919240Y1023960D03*
X926740Y1023960D03*
X930740Y1013460D03*
D10*
X1157570Y1016710D03*
X1169070Y1016710D03*
X1169070Y1010210D03*
X1157570Y1010210D03*
D11*
X1185820Y1002960D03*
X1178320Y1002960D03*
X1170820Y1002960D03*
X1163320Y1002960D03*
X1155820Y1002960D03*
X1148320Y1002960D03*
X1140820Y1002960D03*
X1136820Y1013460D03*
X1140820Y1023960D03*
X1148320Y1023960D03*
X1155820Y1023960D03*
X1163320Y1023960D03*
X1170820Y1023960D03*
X1178320Y1023960D03*
X1185820Y1023960D03*
X1189820Y1013460D03*
D10*
X1416650Y1016710D03*
X1428150Y1016710D03*
X1428150Y1010210D03*
X1416650Y1010210D03*
D11*
X1444900Y1002960D03*
X1437400Y1002960D03*
X1429900Y1002960D03*
X1422400Y1002960D03*
X1414900Y1002960D03*
X1407400Y1002960D03*
X1399900Y1002960D03*
X1395900Y1013460D03*
X1399900Y1023960D03*
X1407400Y1023960D03*
X1414900Y1023960D03*
X1422400Y1023960D03*
X1429900Y1023960D03*
X1437400Y1023960D03*
X1444900Y1023960D03*
X1448900Y1013460D03*
D10*
X121250Y1148790D03*
X132750Y1148790D03*
X132750Y1142290D03*
X121250Y1142290D03*
D11*
X149500Y1135040D03*
X142000Y1135040D03*
X134500Y1135040D03*
X127000Y1135040D03*
X119500Y1135040D03*
X112000Y1135040D03*
X104500Y1135040D03*
X100500Y1145540D03*
X104500Y1156040D03*
X112000Y1156040D03*
X119500Y1156040D03*
X127000Y1156040D03*
X134500Y1156040D03*
X142000Y1156040D03*
X149500Y1156040D03*
X153500Y1145540D03*
D10*
X380330Y1148790D03*
X391830Y1148790D03*
X391830Y1142290D03*
X380330Y1142290D03*
D11*
X408580Y1135040D03*
X401080Y1135040D03*
X393580Y1135040D03*
X386080Y1135040D03*
X378580Y1135040D03*
X371080Y1135040D03*
X363580Y1135040D03*
X359580Y1145540D03*
X363580Y1156040D03*
X371080Y1156040D03*
X378580Y1156040D03*
X386080Y1156040D03*
X393580Y1156040D03*
X401080Y1156040D03*
X408580Y1156040D03*
X412580Y1145540D03*
D10*
X639410Y1148790D03*
X650910Y1148790D03*
X650910Y1142290D03*
X639410Y1142290D03*
D11*
X667660Y1135040D03*
X660160Y1135040D03*
X652660Y1135040D03*
X645160Y1135040D03*
X637660Y1135040D03*
X630160Y1135040D03*
X622660Y1135040D03*
X618660Y1145540D03*
X622660Y1156040D03*
X630160Y1156040D03*
X637660Y1156040D03*
X645160Y1156040D03*
X652660Y1156040D03*
X660160Y1156040D03*
X667660Y1156040D03*
X671660Y1145540D03*
D10*
X898490Y1148790D03*
X909990Y1148790D03*
X909990Y1142290D03*
X898490Y1142290D03*
D11*
X926740Y1135040D03*
X919240Y1135040D03*
X911740Y1135040D03*
X904240Y1135040D03*
X896740Y1135040D03*
X889240Y1135040D03*
X881740Y1135040D03*
X877740Y1145540D03*
X881740Y1156040D03*
X889240Y1156040D03*
X896740Y1156040D03*
X904240Y1156040D03*
X911740Y1156040D03*
X919240Y1156040D03*
X926740Y1156040D03*
X930740Y1145540D03*
D10*
X1157570Y1148790D03*
X1169070Y1148790D03*
X1169070Y1142290D03*
X1157570Y1142290D03*
D11*
X1185820Y1135040D03*
X1178320Y1135040D03*
X1170820Y1135040D03*
X1163320Y1135040D03*
X1155820Y1135040D03*
X1148320Y1135040D03*
X1140820Y1135040D03*
X1136820Y1145540D03*
X1140820Y1156040D03*
X1148320Y1156040D03*
X1155820Y1156040D03*
X1163320Y1156040D03*
X1170820Y1156040D03*
X1178320Y1156040D03*
X1185820Y1156040D03*
X1189820Y1145540D03*
D10*
X1416650Y1148790D03*
X1428150Y1148790D03*
X1428150Y1142290D03*
X1416650Y1142290D03*
D11*
X1444900Y1135040D03*
X1437400Y1135040D03*
X1429900Y1135040D03*
X1422400Y1135040D03*
X1414900Y1135040D03*
X1407400Y1135040D03*
X1399900Y1135040D03*
X1395900Y1145540D03*
X1399900Y1156040D03*
X1407400Y1156040D03*
X1414900Y1156040D03*
X1422400Y1156040D03*
X1429900Y1156040D03*
X1437400Y1156040D03*
X1444900Y1156040D03*
X1448900Y1145540D03*
M02*
